Amaranth-ttf.ufo
<glyph name="exclam" format="1">
  <advance width="319"/>
  <unicode hex="0021"/>
  <outline>
    <contour>
      <point x="176" y="141" type="qcurve"/>
      <point x="211" y="141"/>
      <point x="249" y="99"/>
      <point x="249" y="66" type="qcurve"/>
      <point x="249" y="34"/>
      <point x="211" y="-11"/>
      <point x="173" y="-11" type="qcurve"/>
      <point x="138" y="-11"/>
      <point x="100" y="33"/>
      <point x="100" y="63" type="qcurve"/>
      <point x="100" y="96"/>
      <point x="138" y="141"/>
    </contour>
    <contour>
      <point x="126" y="677" type="line"/>
      <point x="255" y="677" type="line"/>
      <point x="226" y="220" type="line"/>
      <point x="126" y="220" type="line"/>
    </contour>
  </outline>
</glyph>
<glyph name="numbersign" format="1">
  <advance width="616"/>
  <unicode hex="0023"/>
  <outline>
    <contour>
      <point x="485" y="593" type="line"/>
      <point x="467" y="457" type="line"/>
      <point x="566" y="457" type="line"/>
      <point x="556" y="378" type="line"/>
      <point x="457" y="378" type="line"/>
      <point x="437" y="222" type="line"/>
      <point x="543" y="222" type="line"/>
      <point x="533" y="143" type="line"/>
      <point x="427" y="143" type="line"/>
      <point x="409" y="0" type="line"/>
      <point x="329" y="0" type="line"/>
      <point x="347" y="143" type="line"/>
      <point x="224" y="143" type="line"/>
      <point x="206" y="0" type="line"/>
      <point x="126" y="0" type="line"/>
      <point x="144" y="143" type="line"/>
      <point x="40" y="143" type="line"/>
      <point x="50" y="222" type="line"/>
      <point x="154" y="222" type="line"/>
      <point x="174" y="378" type="line"/>
      <point x="63" y="378" type="line"/>
      <point x="73" y="457" type="line"/>
      <point x="184" y="457" type="line"/>
      <point x="202" y="593" type="line"/>
      <point x="282" y="593" type="line"/>
      <point x="264" y="457" type="line"/>
      <point x="387" y="457" type="line"/>
      <point x="405" y="593" type="line"/>
    </contour>
    <contour>
      <point x="234" y="222" type="line"/>
      <point x="357" y="222" type="line"/>
      <point x="377" y="378" type="line"/>
      <point x="254" y="378" type="line"/>
    </contour>
  </outline>
</glyph>
<glyph name="dollar" format="1">
  <advance width="520"/>
  <unicode hex="0024"/>
  <outline>
    <contour>
      <point x="306" y="694" type="line"/>
      <point x="306" y="617" type="line"/>
      <point x="332" y="614"/>
      <point x="380" y="602"/>
      <point x="419" y="588"/>
      <point x="446" y="575"/>
      <point x="452" y="571" type="qcurve"/>
      <point x="411" y="489" type="line"/>
      <point x="388" y="500"/>
      <point x="364" y="509" type="qcurve"/>
      <point x="344" y="517"/>
      <point x="296" y="530"/>
      <point x="275" y="530" type="qcurve"/>
      <point x="241" y="530"/>
      <point x="189" y="504"/>
      <point x="189" y="472" type="qcurve"/>
      <point x="189" y="452"/>
      <point x="204" y="422"/>
      <point x="232" y="398"/>
      <point x="275" y="377"/>
      <point x="304" y="366" type="qcurve"/>
      <point x="341" y="351"/>
      <point x="399" y="319"/>
      <point x="439" y="279"/>
      <point x="460" y="227"/>
      <point x="460" y="192" type="qcurve"/>
      <point x="460" y="162"/>
      <point x="440" y="106"/>
      <point x="401" y="58"/>
      <point x="344" y="23"/>
      <point x="306" y="15" type="qcurve"/>
      <point x="306" y="-83" type="line"/>
      <point x="223" y="-83" type="line"/>
      <point x="223" y="11" type="line"/>
      <point x="191" y="14"/>
      <point x="136" y="29"/>
      <point x="91" y="47"/>
      <point x="58" y="64"/>
      <point x="50" y="69" type="qcurve"/>
      <point x="93" y="158" type="line"/>
      <point x="122" y="142"/>
      <point x="149" y="130" type="qcurve"/>
      <point x="172" y="119"/>
      <point x="224" y="102"/>
      <point x="244" y="102" type="qcurve"/>
      <point x="343" y="102"/>
      <point x="343" y="184" type="qcurve"/>
      <point x="343" y="204"/>
      <point x="330" y="231"/>
      <point x="305" y="249"/>
      <point x="270" y="264"/>
      <point x="248" y="272" type="qcurve"/>
      <point x="206" y="288"/>
      <point x="141" y="323"/>
      <point x="95" y="367"/>
      <point x="71" y="423"/>
      <point x="71" y="459" type="qcurve"/>
      <point x="71" y="487"/>
      <point x="93" y="539"/>
      <point x="133" y="580"/>
      <point x="189" y="609"/>
      <point x="223" y="615" type="qcurve"/>
      <point x="223" y="694" type="line"/>
    </contour>
  </outline>
</glyph>
<glyph name="percent" format="1">
  <advance width="843"/>
  <unicode hex="0025"/>
  <outline>
    <contour>
      <point x="512" y="587" type="line"/>
      <point x="607" y="587" type="line"/>
      <point x="333" y="0" type="line"/>
      <point x="238" y="0" type="line"/>
    </contour>
    <contour>
      <point x="194" y="591" type="qcurve"/>
      <point x="272" y="591"/>
      <point x="342" y="498"/>
      <point x="342" y="417" type="qcurve"/>
      <point x="342" y="379"/>
      <point x="323" y="313"/>
      <point x="285" y="265"/>
      <point x="227" y="237"/>
      <point x="188" y="237" type="qcurve"/>
      <point x="110" y="237"/>
      <point x="40" y="330"/>
      <point x="40" y="410" type="qcurve"/>
      <point x="40" y="449"/>
      <point x="59" y="515"/>
      <point x="97" y="564"/>
      <point x="155" y="591"/>
    </contour>
    <contour>
      <point x="188" y="520" type="qcurve"/>
      <point x="158" y="520"/>
      <point x="139" y="461"/>
      <point x="139" y="416" type="qcurve"/>
      <point x="139" y="393"/>
      <point x="143" y="354"/>
      <point x="155" y="325"/>
      <point x="177" y="308"/>
      <point x="194" y="308" type="qcurve"/>
      <point x="224" y="308"/>
      <point x="243" y="367"/>
      <point x="243" y="412" type="qcurve"/>
      <point x="243" y="434"/>
      <point x="239" y="474"/>
      <point x="227" y="503"/>
      <point x="205" y="520"/>
    </contour>
    <contour>
      <point x="655" y="351" type="qcurve"/>
      <point x="733" y="351"/>
      <point x="803" y="258"/>
      <point x="803" y="177" type="qcurve"/>
      <point x="803" y="139"/>
      <point x="784" y="73"/>
      <point x="746" y="25"/>
      <point x="688" y="-3"/>
      <point x="649" y="-3" type="qcurve"/>
      <point x="571" y="-3"/>
      <point x="501" y="90"/>
      <point x="501" y="170" type="qcurve"/>
      <point x="501" y="209"/>
      <point x="520" y="275"/>
      <point x="558" y="324"/>
      <point x="616" y="351"/>
    </contour>
    <contour>
      <point x="649" y="280" type="qcurve"/>
      <point x="619" y="280"/>
      <point x="600" y="221"/>
      <point x="600" y="176" type="qcurve"/>
      <point x="600" y="153"/>
      <point x="604" y="114"/>
      <point x="616" y="85"/>
      <point x="638" y="68"/>
      <point x="655" y="68" type="qcurve"/>
      <point x="685" y="68"/>
      <point x="704" y="127"/>
      <point x="704" y="172" type="qcurve"/>
      <point x="704" y="194"/>
      <point x="700" y="234"/>
      <point x="688" y="263"/>
      <point x="666" y="280"/>
    </contour>
  </outline>
</glyph>
<glyph name="ampersand" format="1">
  <advance width="575"/>
  <unicode hex="0026"/>
  <outline>
    <contour>
      <point x="385" y="459" type="line"/>
      <point x="372" y="470"/>
      <point x="359" y="480" type="qcurve"/>
      <point x="347" y="488"/>
      <point x="318" y="501"/>
      <point x="301" y="501" type="qcurve"/>
      <point x="270" y="501"/>
      <point x="240" y="472"/>
      <point x="240" y="448" type="qcurve"/>
      <point x="240" y="399"/>
      <point x="336" y="286"/>
      <point x="413" y="217" type="qcurve"/>
      <point x="425" y="237"/>
      <point x="445" y="276"/>
      <point x="453" y="296" type="qcurve"/>
      <point x="538" y="261" type="line"/>
      <point x="527" y="236"/>
      <point x="500" y="182"/>
      <point x="483" y="156" type="qcurve"/>
      <point x="580" y="72" type="line"/>
      <point x="522" y="-5" type="line"/>
      <point x="496" y="16"/>
      <point x="446" y="57"/>
      <point x="421" y="78" type="qcurve"/>
      <point x="383" y="41"/>
      <point x="283" y="-6"/>
      <point x="217" y="-6" type="qcurve"/>
      <point x="183" y="-6"/>
      <point x="117" y="17"/>
      <point x="66" y="62"/>
      <point x="35" y="127"/>
      <point x="35" y="169" type="qcurve"/>
      <point x="35" y="206"/>
      <point x="56" y="267"/>
      <point x="88" y="315"/>
      <point x="127" y="351"/>
      <point x="144" y="363" type="qcurve"/>
      <point x="121" y="409"/>
      <point x="121" y="453" type="qcurve"/>
      <point x="121" y="480"/>
      <point x="140" y="531"/>
      <point x="181" y="571"/>
      <point x="246" y="595"/>
      <point x="292" y="595" type="qcurve"/>
      <point x="343" y="595"/>
      <point x="417" y="557"/>
      <point x="443" y="523" type="qcurve"/>
    </contour>
    <contour>
      <point x="349" y="138" type="qcurve"/>
      <point x="304" y="176"/>
      <point x="224" y="251"/>
      <point x="194" y="289" type="qcurve"/>
      <point x="180" y="274"/>
      <point x="154" y="222"/>
      <point x="154" y="184" type="qcurve"/>
      <point x="154" y="142"/>
      <point x="204" y="93"/>
      <point x="250" y="93" type="qcurve"/>
      <point x="276" y="93"/>
      <point x="326" y="117"/>
    </contour>
  </outline>
</glyph>
<glyph name="quotesingle" format="1">
  <advance width="197"/>
  <unicode hex="0027"/>
  <outline>
    <contour>
      <point x="147" y="677" type="line"/>
      <point x="139" y="434" type="line"/>
      <point x="58" y="434" type="line"/>
      <point x="50" y="677" type="line"/>
    </contour>
  </outline>
</glyph>
<glyph name="parenleft" format="1">
  <advance width="383"/>
  <unicode hex="0028"/>
  <outline>
    <contour>
      <point x="70" y="269" type="qcurve"/>
      <point x="70" y="366"/>
      <point x="115" y="518"/>
      <point x="181" y="632"/>
      <point x="254" y="707"/>
      <point x="281" y="726" type="qcurve"/>
      <point x="343" y="657" type="line"/>
      <point x="321" y="639"/>
      <point x="266" y="573"/>
      <point x="217" y="477"/>
      <point x="184" y="349"/>
      <point x="184" y="268" type="qcurve"/>
      <point x="184" y="187"/>
      <point x="217" y="58"/>
      <point x="266" y="-38"/>
      <point x="321" y="-104"/>
      <point x="343" y="-122" type="qcurve"/>
      <point x="281" y="-191" type="line"/>
      <point x="254" y="-172"/>
      <point x="181" y="-97"/>
      <point x="115" y="17"/>
      <point x="70" y="171"/>
    </contour>
  </outline>
</glyph>
<glyph name="parenright" format="1">
  <advance width="383"/>
  <unicode hex="0029"/>
  <outline>
    <contour>
      <point x="343" y="269" type="qcurve"/>
      <point x="343" y="171"/>
      <point x="298" y="17"/>
      <point x="232" y="-97"/>
      <point x="159" y="-172"/>
      <point x="132" y="-191" type="qcurve"/>
      <point x="70" y="-122" type="line"/>
      <point x="92" y="-104"/>
      <point x="147" y="-38"/>
      <point x="196" y="58"/>
      <point x="229" y="187"/>
      <point x="229" y="268" type="qcurve"/>
      <point x="229" y="349"/>
      <point x="196" y="477"/>
      <point x="147" y="573"/>
      <point x="92" y="639"/>
      <point x="70" y="657" type="qcurve"/>
      <point x="132" y="726" type="line"/>
      <point x="159" y="707"/>
      <point x="232" y="632"/>
      <point x="298" y="518"/>
      <point x="343" y="366"/>
    </contour>
  </outline>
</glyph>
<glyph name="plus" format="1">
  <advance width="512"/>
  <unicode hex="002B"/>
  <outline>
    <contour>
      <point x="60" y="346" type="line"/>
      <point x="208" y="346" type="line"/>
      <point x="208" y="498" type="line"/>
      <point x="303" y="498" type="line"/>
      <point x="303" y="346" type="line"/>
      <point x="452" y="346" type="line"/>
      <point x="452" y="257" type="line"/>
      <point x="303" y="257" type="line"/>
      <point x="303" y="99" type="line"/>
      <point x="208" y="99" type="line"/>
      <point x="208" y="257" type="line"/>
      <point x="60" y="257" type="line"/>
    </contour>
  </outline>
</glyph>
<glyph name="comma" format="1">
  <advance width="281"/>
  <unicode hex="002C"/>
  <outline>
    <contour>
      <point x="87" y="123" type="qcurve"/>
      <point x="92" y="128"/>
      <point x="102" y="132" type="qcurve"/>
      <point x="110" y="135"/>
      <point x="135" y="141"/>
      <point x="153" y="141" type="qcurve"/>
      <point x="188" y="141"/>
      <point x="221" y="99"/>
      <point x="221" y="66" type="qcurve"/>
      <point x="221" y="26"/>
      <point x="198" y="-41"/>
      <point x="160" y="-94"/>
      <point x="110" y="-134"/>
      <point x="83" y="-148" type="qcurve"/>
      <point x="40" y="-89" type="line"/>
      <point x="80" y="-59"/>
      <point x="107" y="1"/>
      <point x="105" y="56"/>
      <point x="89" y="105"/>
    </contour>
  </outline>
</glyph>
<glyph name="period" format="1">
  <advance width="269"/>
  <unicode hex="002E"/>
  <outline>
    <contour>
      <point x="136" y="141" type="qcurve"/>
      <point x="171" y="141"/>
      <point x="209" y="99"/>
      <point x="209" y="66" type="qcurve"/>
      <point x="209" y="34"/>
      <point x="171" y="-11"/>
      <point x="133" y="-11" type="qcurve"/>
      <point x="98" y="-11"/>
      <point x="60" y="33"/>
      <point x="60" y="63" type="qcurve"/>
      <point x="60" y="96"/>
      <point x="98" y="141"/>
    </contour>
  </outline>
</glyph>
<glyph name="slash" format="1">
  <advance width="418"/>
  <unicode hex="002F"/>
  <outline>
    <contour>
      <point x="308" y="729" type="line"/>
      <point x="428" y="729" type="line"/>
      <point x="110" y="-126" type="line"/>
      <point x="-10" y="-126" type="line"/>
    </contour>
  </outline>
</glyph>
<glyph name="zero" format="1">
  <advance width="564"/>
  <unicode hex="0030"/>
  <outline>
    <contour>
      <point x="289" y="642" type="qcurve"/>
      <point x="351" y="642"/>
      <point x="438" y="600"/>
      <point x="494" y="520"/>
      <point x="519" y="402"/>
      <point x="519" y="327" type="qcurve"/>
      <point x="519" y="252"/>
      <point x="492" y="130"/>
      <point x="433" y="42"/>
      <point x="341" y="-6"/>
      <point x="276" y="-6" type="qcurve"/>
      <point x="214" y="-6"/>
      <point x="126" y="36"/>
      <point x="71" y="117"/>
      <point x="45" y="235"/>
      <point x="45" y="311" type="qcurve"/>
      <point x="45" y="386"/>
      <point x="73" y="508"/>
      <point x="132" y="595"/>
      <point x="224" y="642"/>
    </contour>
    <contour>
      <point x="276" y="554" type="qcurve"/>
      <point x="245" y="554"/>
      <point x="204" y="521"/>
      <point x="180" y="461"/>
      <point x="170" y="375"/>
      <point x="170" y="322" type="qcurve"/>
      <point x="170" y="272"/>
      <point x="179" y="185"/>
      <point x="204" y="120"/>
      <point x="250" y="82"/>
      <point x="288" y="82" type="qcurve"/>
      <point x="319" y="82"/>
      <point x="360" y="115"/>
      <point x="384" y="177"/>
      <point x="393" y="262"/>
      <point x="393" y="315" type="qcurve"/>
      <point x="393" y="365"/>
      <point x="385" y="452"/>
      <point x="359" y="517"/>
      <point x="313" y="554"/>
    </contour>
  </outline>
</glyph>
<glyph name="one" format="1">
  <advance width="386"/>
  <unicode hex="0031"/>
  <outline>
    <contour>
      <point x="286" y="637" type="line"/>
      <point x="286" y="0" type="line"/>
      <point x="171" y="0" type="line"/>
      <point x="171" y="503" type="line"/>
      <point x="140" y="474"/>
      <point x="74" y="430"/>
      <point x="45" y="421" type="qcurve"/>
      <point x="0" y="504" type="line"/>
      <point x="24" y="515"/>
      <point x="72" y="536"/>
      <point x="121" y="566"/>
      <point x="172" y="607"/>
      <point x="200" y="637" type="qcurve"/>
    </contour>
  </outline>
</glyph>
<glyph name="two" format="1">
  <advance width="492"/>
  <unicode hex="0032"/>
  <outline>
    <contour>
      <point x="39" y="586" type="line"/>
      <point x="59" y="595"/>
      <point x="110" y="615"/>
      <point x="167" y="631"/>
      <point x="227" y="642"/>
      <point x="257" y="642" type="qcurve"/>
      <point x="293" y="642"/>
      <point x="357" y="625"/>
      <point x="406" y="585"/>
      <point x="435" y="518"/>
      <point x="435" y="469" type="qcurve"/>
      <point x="435" y="436"/>
      <point x="412" y="373"/>
      <point x="370" y="307"/>
      <point x="310" y="234"/>
      <point x="273" y="192" type="qcurve"/>
      <point x="182" y="92" type="line"/>
      <point x="452" y="92" type="line"/>
      <point x="452" y="0" type="line"/>
      <point x="35" y="0" type="line"/>
      <point x="35" y="92" type="line"/>
      <point x="44" y="102"/>
      <point x="82" y="143"/>
      <point x="125" y="188"/>
      <point x="164" y="229"/>
      <point x="172" y="238" type="qcurve"/>
      <point x="211" y="283"/>
      <point x="264" y="348"/>
      <point x="296" y="400"/>
      <point x="309" y="445"/>
      <point x="309" y="470" type="qcurve"/>
      <point x="309" y="508"/>
      <point x="267" y="554"/>
      <point x="233" y="554" type="qcurve"/>
      <point x="194" y="554"/>
      <point x="125" y="526"/>
      <point x="78" y="506" type="qcurve"/>
    </contour>
  </outline>
</glyph>
<glyph name="three" format="1">
  <advance width="500"/>
  <unicode hex="0033"/>
  <outline>
    <contour>
      <point x="247" y="642" type="qcurve"/>
      <point x="335" y="642"/>
      <point x="426" y="565"/>
      <point x="426" y="503" type="qcurve"/>
      <point x="426" y="474"/>
      <point x="406" y="429"/>
      <point x="375" y="396"/>
      <point x="339" y="374"/>
      <point x="324" y="367" type="qcurve"/>
      <point x="387" y="348"/>
      <point x="455" y="253"/>
      <point x="455" y="198" type="qcurve"/>
      <point x="455" y="160"/>
      <point x="432" y="87"/>
      <point x="378" y="29"/>
      <point x="289" y="-6"/>
      <point x="223" y="-6" type="qcurve"/>
      <point x="178" y="-6"/>
      <point x="81" y="25"/>
      <point x="35" y="46" type="qcurve"/>
      <point x="69" y="130" type="line"/>
      <point x="115" y="110"/>
      <point x="184" y="82"/>
      <point x="219" y="82" type="qcurve"/>
      <point x="242" y="82"/>
      <point x="284" y="96"/>
      <point x="317" y="124"/>
      <point x="337" y="167"/>
      <point x="337" y="196" type="qcurve"/>
      <point x="337" y="219"/>
      <point x="322" y="256"/>
      <point x="298" y="283"/>
      <point x="266" y="298"/>
      <point x="248" y="298" type="qcurve"/>
      <point x="231" y="298"/>
      <point x="198" y="295"/>
      <point x="171" y="290"/>
      <point x="153" y="286"/>
      <point x="151" y="286" type="qcurve"/>
      <point x="119" y="365" type="line"/>
      <point x="156" y="377"/>
      <point x="224" y="399"/>
      <point x="275" y="427"/>
      <point x="305" y="464"/>
      <point x="305" y="491" type="qcurve"/>
      <point x="305" y="522"/>
      <point x="266" y="554"/>
      <point x="231" y="554" type="qcurve"/>
      <point x="212" y="554"/>
      <point x="180" y="549"/>
      <point x="147" y="538"/>
      <point x="110" y="523"/>
      <point x="87" y="514" type="qcurve"/>
      <point x="48" y="593" type="line"/>
      <point x="73" y="604"/>
      <point x="118" y="622"/>
      <point x="165" y="635"/>
      <point x="217" y="642"/>
    </contour>
    <contour>
      <point x="126" y="364" type="line"/>
      <point x="124" y="364"/>
      <point x="121" y="365"/>
      <point x="119" y="365" type="qcurve"/>
    </contour>
  </outline>
</glyph>
<glyph name="five" format="1">
  <advance width="509"/>
  <unicode hex="0035"/>
  <outline>
    <contour>
      <point x="279" y="404" type="qcurve"/>
      <point x="321" y="404"/>
      <point x="388" y="373"/>
      <point x="436" y="319"/>
      <point x="461" y="247"/>
      <point x="461" y="206" type="qcurve"/>
      <point x="461" y="165"/>
      <point x="437" y="86"/>
      <point x="383" y="25"/>
      <point x="296" y="-9"/>
      <point x="233" y="-6" type="qcurve"/>
      <point x="181" y="-3"/>
      <point x="91" y="25"/>
      <point x="45" y="46" type="qcurve"/>
      <point x="79" y="130" type="line"/>
      <point x="125" y="110"/>
      <point x="194" y="82"/>
      <point x="230" y="82" type="qcurve"/>
      <point x="287" y="82"/>
      <point x="336" y="144"/>
      <point x="336" y="207" type="qcurve"/>
      <point x="336" y="259"/>
      <point x="282" y="314"/>
      <point x="237" y="314" type="qcurve"/>
      <point x="208" y="314"/>
      <point x="164" y="306"/>
      <point x="133" y="296"/>
      <point x="116" y="287"/>
      <point x="113" y="286" type="qcurve"/>
      <point x="65" y="322" type="line"/>
      <point x="99" y="637" type="line"/>
      <point x="428" y="637" type="line"/>
      <point x="412" y="545" type="line"/>
      <point x="200" y="545" type="line"/>
      <point x="179" y="386" type="line"/>
      <point x="187" y="391"/>
      <point x="233" y="404"/>
    </contour>
  </outline>
</glyph>
<glyph name="six" format="1">
  <advance width="525"/>
  <unicode hex="0036"/>
  <outline>
    <contour>
      <point x="413" y="533" type="line"/>
      <point x="390" y="541"/>
      <point x="338" y="551"/>
      <point x="312" y="551" type="qcurve"/>
      <point x="269" y="551"/>
      <point x="215" y="519"/>
      <point x="183" y="464"/>
      <point x="169" y="391"/>
      <point x="168" y="350" type="qcurve"/>
      <point x="177" y="360"/>
      <point x="202" y="382"/>
      <point x="235" y="401"/>
      <point x="276" y="413"/>
      <point x="302" y="413" type="qcurve"/>
      <point x="390" y="413"/>
      <point x="490" y="304"/>
      <point x="490" y="205" type="qcurve"/>
      <point x="490" y="160"/>
      <point x="461" y="83"/>
      <point x="405" y="26"/>
      <point x="322" y="-6"/>
      <point x="268" y="-6" type="qcurve"/>
      <point x="205" y="-6"/>
      <point x="120" y="42"/>
      <point x="68" y="128"/>
      <point x="45" y="247"/>
      <point x="45" y="318" type="qcurve"/>
      <point x="45" y="382"/>
      <point x="75" y="499"/>
      <point x="140" y="587"/>
      <point x="243" y="640"/>
      <point x="316" y="640" type="qcurve"/>
      <point x="353" y="640"/>
      <point x="418" y="624"/>
      <point x="444" y="613" type="qcurve"/>
    </contour>
    <contour>
      <point x="279" y="326" type="qcurve"/>
      <point x="259" y="326"/>
      <point x="222" y="314"/>
      <point x="192" y="298"/>
      <point x="171" y="283"/>
      <point x="168" y="280" type="qcurve"/>
      <point x="172" y="177"/>
      <point x="221" y="80"/>
      <point x="277" y="80" type="qcurve"/>
      <point x="328" y="80"/>
      <point x="373" y="149"/>
      <point x="373" y="204" type="qcurve"/>
      <point x="373" y="256"/>
      <point x="331" y="326"/>
    </contour>
  </outline>
</glyph>
<glyph name="seven" format="1">
  <advance width="458"/>
  <unicode hex="0037"/>
  <outline>
    <contour>
      <point x="423" y="637" type="line"/>
      <point x="423" y="564" type="line"/>
      <point x="222" y="0" type="line"/>
      <point x="97" y="0" type="line"/>
      <point x="291" y="545" type="line"/>
      <point x="21" y="545" type="line"/>
      <point x="5" y="637" type="line"/>
    </contour>
  </outline>
</glyph>
<glyph name="eight" format="1">
  <advance width="525"/>
  <unicode hex="0038"/>
  <outline>
    <contour>
      <point x="262" y="-6" type="qcurve"/>
      <point x="219" y="-6"/>
      <point x="142" y="14"/>
      <point x="84" y="55"/>
      <point x="50" y="117"/>
      <point x="50" y="159" type="qcurve"/>
      <point x="50" y="189"/>
      <point x="71" y="239"/>
      <point x="105" y="280"/>
      <point x="150" y="314"/>
      <point x="173" y="328" type="qcurve"/>
      <point x="128" y="354"/>
      <point x="67" y="434"/>
      <point x="67" y="488" type="qcurve"/>
      <point x="67" y="520"/>
      <point x="98" y="576"/>
      <point x="152" y="618"/>
      <point x="225" y="642"/>
      <point x="267" y="642" type="qcurve"/>
      <point x="306" y="642"/>
      <point x="374" y="619"/>
      <point x="425" y="579"/>
      <point x="454" y="524"/>
      <point x="454" y="492" type="qcurve"/>
      <point x="454" y="466"/>
      <point x="437" y="421"/>
      <point x="409" y="382"/>
      <point x="372" y="349"/>
      <point x="351" y="335" type="qcurve"/>
      <point x="375" y="322"/>
      <point x="420" y="286"/>
      <point x="454" y="242"/>
      <point x="475" y="192"/>
      <point x="475" y="165" type="qcurve"/>
      <point x="475" y="126"/>
      <point x="442" y="63"/>
      <point x="385" y="18"/>
      <point x="307" y="-6"/>
    </contour>
    <contour>
      <point x="170" y="163" type="qcurve"/>
      <point x="170" y="126"/>
      <point x="221" y="74"/>
      <point x="269" y="74" type="qcurve"/>
      <point x="307" y="74"/>
      <point x="352" y="126"/>
      <point x="352" y="161" type="qcurve"/>
      <point x="352" y="180"/>
      <point x="335" y="215"/>
      <point x="310" y="247"/>
      <point x="279" y="275"/>
      <point x="264" y="286" type="qcurve"/>
      <point x="226" y="264"/>
      <point x="170" y="206"/>
    </contour>
    <contour>
      <point x="334" y="491" type="qcurve"/>
      <point x="334" y="522"/>
      <point x="296" y="562"/>
      <point x="262" y="562" type="qcurve"/>
      <point x="228" y="562"/>
      <point x="186" y="527"/>
      <point x="186" y="493" type="qcurve"/>
      <point x="186" y="451"/>
      <point x="235" y="396"/>
      <point x="263" y="380" type="qcurve"/>
      <point x="292" y="397"/>
      <point x="334" y="446"/>
    </contour>
  </outline>
</glyph>
<glyph name="nine" format="1">
  <advance width="524"/>
  <unicode hex="0039"/>
  <outline>
    <contour>
      <point x="112" y="101" type="line"/>
      <point x="135" y="93"/>
      <point x="187" y="83"/>
      <point x="213" y="83" type="qcurve"/>
      <point x="256" y="83"/>
      <point x="310" y="115"/>
      <point x="342" y="169"/>
      <point x="355" y="242"/>
      <point x="356" y="283" type="qcurve"/>
      <point x="348" y="273"/>
      <point x="323" y="251"/>
      <point x="290" y="233"/>
      <point x="248" y="221"/>
      <point x="223" y="221" type="qcurve"/>
      <point x="135" y="221"/>
      <point x="35" y="330"/>
      <point x="35" y="429" type="qcurve"/>
      <point x="35" y="474"/>
      <point x="64" y="551"/>
      <point x="120" y="608"/>
      <point x="203" y="640"/>
      <point x="257" y="640" type="qcurve"/>
      <point x="320" y="640"/>
      <point x="405" y="592"/>
      <point x="457" y="506"/>
      <point x="480" y="387"/>
      <point x="480" y="316" type="qcurve"/>
      <point x="480" y="252"/>
      <point x="450" y="135"/>
      <point x="385" y="47"/>
      <point x="282" y="-6"/>
      <point x="209" y="-6" type="qcurve"/>
      <point x="172" y="-6"/>
      <point x="107" y="10"/>
      <point x="81" y="21" type="qcurve"/>
    </contour>
    <contour>
      <point x="246" y="308" type="qcurve"/>
      <point x="266" y="308"/>
      <point x="303" y="320"/>
      <point x="332" y="336"/>
      <point x="353" y="350"/>
      <point x="356" y="353" type="qcurve"/>
      <point x="353" y="456"/>
      <point x="304" y="554"/>
      <point x="248" y="554" type="qcurve"/>
      <point x="197" y="554"/>
      <point x="152" y="485"/>
      <point x="152" y="430" type="qcurve"/>
      <point x="152" y="404"/>
      <point x="162" y="360"/>
      <point x="184" y="327"/>
      <point x="220" y="308"/>
    </contour>
  </outline>
</glyph>
<glyph name="colon" format="1">
  <advance width="289"/>
  <unicode hex="003A"/>
  <outline>
    <contour>
      <point x="166" y="141" type="qcurve"/>
      <point x="201" y="141"/>
      <point x="239" y="99"/>
      <point x="239" y="66" type="qcurve"/>
      <point x="239" y="34"/>
      <point x="201" y="-11"/>
      <point x="163" y="-11" type="qcurve"/>
      <point x="128" y="-11"/>
      <point x="90" y="33"/>
      <point x="90" y="63" type="qcurve"/>
      <point x="90" y="96"/>
      <point x="128" y="141"/>
    </contour>
    <contour>
      <point x="166" y="510" type="qcurve"/>
      <point x="201" y="510"/>
      <point x="239" y="468"/>
      <point x="239" y="435" type="qcurve"/>
      <point x="239" y="403"/>
      <point x="201" y="358"/>
      <point x="163" y="358" type="qcurve"/>
      <point x="128" y="358"/>
      <point x="90" y="402"/>
      <point x="90" y="432" type="qcurve"/>
      <point x="90" y="465"/>
      <point x="128" y="510"/>
    </contour>
  </outline>
</glyph>
<glyph name="semicolon" format="1">
  <advance width="290"/>
  <unicode hex="003B"/>
  <outline>
    <contour>
      <point x="165" y="510" type="qcurve"/>
      <point x="200" y="510"/>
      <point x="238" y="468"/>
      <point x="238" y="435" type="qcurve"/>
      <point x="238" y="403"/>
      <point x="200" y="358"/>
      <point x="162" y="358" type="qcurve"/>
      <point x="127" y="358"/>
      <point x="89" y="402"/>
      <point x="89" y="432" type="qcurve"/>
      <point x="89" y="465"/>
      <point x="127" y="510"/>
    </contour>
    <contour>
      <point x="106" y="123" type="qcurve"/>
      <point x="111" y="128"/>
      <point x="121" y="132" type="qcurve"/>
      <point x="129" y="135"/>
      <point x="154" y="141"/>
      <point x="172" y="141" type="qcurve"/>
      <point x="207" y="141"/>
      <point x="240" y="99"/>
      <point x="240" y="66" type="qcurve"/>
      <point x="240" y="26"/>
      <point x="217" y="-41"/>
      <point x="179" y="-94"/>
      <point x="129" y="-134"/>
      <point x="102" y="-148" type="qcurve"/>
      <point x="59" y="-89" type="line"/>
      <point x="99" y="-59"/>
      <point x="126" y="1"/>
      <point x="124" y="56"/>
      <point x="108" y="105"/>
    </contour>
  </outline>
</glyph>
<glyph name="less" format="1">
  <advance width="455"/>
  <unicode hex="003C"/>
  <outline>
    <contour>
      <point x="375" y="90" type="line"/>
      <point x="30" y="258" type="line"/>
      <point x="30" y="342" type="line"/>
      <point x="369" y="507" type="line"/>
      <point x="409" y="413" type="line"/>
      <point x="217" y="326" type="line"/>
      <point x="201" y="318"/>
      <point x="168" y="305"/>
      <point x="155" y="300" type="qcurve"/>
      <point x="218" y="274" type="line"/>
      <point x="415" y="183" type="line"/>
    </contour>
  </outline>
</glyph>
<glyph name="greater" format="1">
  <advance width="455"/>
  <unicode hex="003E"/>
  <outline>
    <contour>
      <point x="40" y="183" type="line"/>
      <point x="237" y="274" type="line"/>
      <point x="252" y="281"/>
      <point x="286" y="295"/>
      <point x="300" y="300" type="qcurve"/>
      <point x="286" y="305"/>
      <point x="254" y="318"/>
      <point x="238" y="326" type="qcurve"/>
      <point x="46" y="413" type="line"/>
      <point x="86" y="507" type="line"/>
      <point x="425" y="342" type="line"/>
      <point x="425" y="258" type="line"/>
      <point x="80" y="90" type="line"/>
    </contour>
  </outline>
</glyph>
<glyph name="question" format="1">
  <advance width="434"/>
  <unicode hex="003F"/>
  <outline>
    <contour>
      <point x="219" y="687" type="qcurve"/>
      <point x="307" y="687"/>
      <point x="409" y="617"/>
      <point x="409" y="537" type="qcurve"/>
      <point x="409" y="508"/>
      <point x="391" y="455"/>
      <point x="362" y="406"/>
      <point x="325" y="359"/>
      <point x="307" y="337" type="qcurve"/>
      <point x="279" y="302"/>
      <point x="234" y="234"/>
      <point x="223" y="197" type="qcurve"/>
      <point x="138" y="220" type="line"/>
      <point x="138" y="272"/>
      <point x="182" y="358"/>
      <point x="236" y="430"/>
      <point x="280" y="493"/>
      <point x="280" y="523" type="qcurve"/>
      <point x="280" y="559"/>
      <point x="238" y="599"/>
      <point x="204" y="599" type="qcurve"/>
      <point x="188" y="599"/>
      <point x="161" y="593"/>
      <point x="133" y="583"/>
      <point x="101" y="567"/>
      <point x="79" y="557" type="qcurve"/>
      <point x="40" y="637" type="line"/>
      <point x="81" y="656"/>
      <point x="168" y="687"/>
    </contour>
    <contour>
      <point x="187" y="141" type="qcurve"/>
      <point x="222" y="141"/>
      <point x="260" y="99"/>
      <point x="260" y="66" type="qcurve"/>
      <point x="260" y="34"/>
      <point x="222" y="-11"/>
      <point x="184" y="-11" type="qcurve"/>
      <point x="149" y="-11"/>
      <point x="111" y="33"/>
      <point x="111" y="63" type="qcurve"/>
      <point x="111" y="96"/>
      <point x="149" y="141"/>
    </contour>
  </outline>
</glyph>
<glyph name="at" format="1">
  <advance width="896"/>
  <unicode hex="0040"/>
  <outline>
    <contour>
      <point x="627" y="217" type="line"/>
      <point x="627" y="188"/>
      <point x="630" y="137"/>
      <point x="641" y="97"/>
      <point x="661" y="74"/>
      <point x="678" y="74" type="qcurve"/>
      <point x="694" y="74"/>
      <point x="723" y="103"/>
      <point x="744" y="151"/>
      <point x="758" y="212"/>
      <point x="760" y="244" type="qcurve"/>
      <point x="764" y="319"/>
      <point x="722" y="430"/>
      <point x="645" y="503"/>
      <point x="539" y="538"/>
      <point x="481" y="538" type="qcurve"/>
      <point x="418" y="538"/>
      <point x="296" y="495"/>
      <point x="200" y="411"/>
      <point x="141" y="285"/>
      <point x="141" y="203" type="qcurve"/>
      <point x="141" y="149"/>
      <point x="165" y="46"/>
      <point x="225" y="-35"/>
      <point x="330" y="-84"/>
      <point x="411" y="-84" type="qcurve"/>
      <point x="440" y="-84"/>
      <point x="502" y="-73"/>
      <point x="527" y="-65" type="qcurve"/>
      <point x="556" y="-57"/>
      <point x="583" y="-46" type="qcurve"/>
      <point x="611" y="-116" type="line"/>
      <point x="582" y="-129"/>
      <point x="549" y="-140" type="qcurve"/>
      <point x="521" y="-149"/>
      <point x="449" y="-163"/>
      <point x="411" y="-163" type="qcurve"/>
      <point x="344" y="-163"/>
      <point x="216" y="-129"/>
      <point x="116" y="-45"/>
      <point x="55" y="94"/>
      <point x="55" y="199" type="qcurve"/>
      <point x="55" y="301"/>
      <point x="131" y="457"/>
      <point x="255" y="563"/>
      <point x="411" y="617"/>
      <point x="492" y="617" type="qcurve"/>
      <point x="564" y="617"/>
      <point x="696" y="572"/>
      <point x="795" y="481"/>
      <point x="850" y="343"/>
      <point x="845" y="249" type="qcurve"/>
      <point x="842" y="191"/>
      <point x="810" y="97"/>
      <point x="762" y="30"/>
      <point x="701" y="-6"/>
      <point x="670" y="-6" type="qcurve"/>
      <point x="615" y="-6"/>
      <point x="555" y="58"/>
      <point x="542" y="109" type="qcurve"/>
      <point x="528" y="52"/>
      <point x="460" y="-6"/>
      <point x="400" y="-6" type="qcurve"/>
      <point x="315" y="-6"/>
      <point x="234" y="116"/>
      <point x="234" y="218" type="qcurve"/>
      <point x="234" y="269"/>
      <point x="265" y="357"/>
      <point x="322" y="420"/>
      <point x="402" y="456"/>
      <point x="450" y="456" type="qcurve"/>
      <point x="477" y="456"/>
      <point x="539" y="448"/>
      <point x="565" y="443" type="qcurve"/>
      <point x="596" y="437"/>
      <point x="627" y="430" type="qcurve"/>
    </contour>
    <contour>
      <point x="417" y="70" type="qcurve"/>
      <point x="438" y="70"/>
      <point x="475" y="98"/>
      <point x="503" y="144"/>
      <point x="519" y="205"/>
      <point x="520" y="237" type="qcurve"/>
      <point x="520" y="371" type="line"/>
      <point x="512" y="373"/>
      <point x="475" y="381"/>
      <point x="461" y="381" type="qcurve"/>
      <point x="431" y="381"/>
      <point x="389" y="358"/>
      <point x="361" y="317"/>
      <point x="348" y="261"/>
      <point x="348" y="227" type="qcurve"/>
      <point x="348" y="196"/>
      <point x="353" y="139"/>
      <point x="368" y="96"/>
      <point x="395" y="70"/>
    </contour>
  </outline>
</glyph>
<glyph name="A" format="1">
  <advance width="606"/>
  <unicode hex="0041"/>
  <outline>
    <contour>
      <point x="301" y="677" type="move" name="topUC"/>
    </contour>
    <contour>
      <point x="255" y="677" type="line"/>
      <point x="351" y="677" type="line"/>
      <point x="611" y="0" type="line"/>
      <point x="483" y="0" type="line"/>
      <point x="421" y="177" type="line"/>
      <point x="178" y="177" type="line"/>
      <point x="115" y="0" type="line"/>
      <point x="-5" y="0" type="line"/>
    </contour>
    <contour>
      <point x="390" y="266" type="line"/>
      <point x="359" y="354"/>
      <point x="313" y="501"/>
      <point x="301" y="543" type="qcurve"/>
      <point x="287" y="498"/>
      <point x="241" y="352"/>
      <point x="210" y="266" type="qcurve"/>
    </contour>
  </outline>
</glyph>
<glyph name="B" format="1">
  <advance width="565"/>
  <unicode hex="0042"/>
  <outline>
    <contour>
      <point x="70" y="677" type="line"/>
      <point x="90" y="677" type="line"/>
      <point x="127" y="677"/>
      <point x="161" y="678" type="qcurve"/>
      <point x="190" y="678"/>
      <point x="251" y="679"/>
      <point x="271" y="679" type="qcurve"/>
      <point x="387" y="679"/>
      <point x="509" y="587"/>
      <point x="509" y="503" type="qcurve"/>
      <point x="509" y="454"/>
      <point x="454" y="376"/>
      <point x="406" y="352" type="qcurve"/>
      <point x="466" y="329"/>
      <point x="530" y="245"/>
      <point x="530" y="190" type="qcurve"/>
      <point x="530" y="104"/>
      <point x="399" y="-1"/>
      <point x="267" y="-1" type="qcurve"/>
      <point x="153" y="-1" type="line"/>
      <point x="122" y="-1"/>
      <point x="93" y="0" type="qcurve"/>
      <point x="70" y="0" type="line"/>
    </contour>
    <contour>
      <point x="264" y="304" type="qcurve"/>
      <point x="241" y="304"/>
      <point x="204" y="304"/>
      <point x="190" y="303" type="qcurve"/>
      <point x="190" y="86" type="line"/>
      <point x="275" y="86" type="line"/>
      <point x="343" y="86"/>
      <point x="401" y="146"/>
      <point x="401" y="192" type="qcurve"/>
      <point x="401" y="213"/>
      <point x="388" y="253"/>
      <point x="356" y="285"/>
      <point x="304" y="304"/>
    </contour>
    <contour>
      <point x="256" y="593" type="qcurve"/>
      <point x="235" y="593"/>
      <point x="202" y="593"/>
      <point x="190" y="592" type="qcurve"/>
      <point x="190" y="389" type="line"/>
      <point x="266" y="389" type="line"/>
      <point x="328" y="389"/>
      <point x="382" y="446"/>
      <point x="382" y="489" type="qcurve"/>
      <point x="382" y="508"/>
      <point x="370" y="546"/>
      <point x="341" y="575"/>
      <point x="292" y="593"/>
    </contour>
  </outline>
</glyph>
<glyph name="C" format="1">
  <advance width="524"/>
  <unicode hex="0043"/>
  <outline>
    <contour>
      <point x="316" y="0" type="move" name="bottom"/>
    </contour>
    <contour>
      <point x="442" y="540" type="line"/>
      <point x="418" y="566"/>
      <point x="365" y="593"/>
      <point x="330" y="593" type="qcurve"/>
      <point x="288" y="593"/>
      <point x="229" y="554"/>
      <point x="193" y="486"/>
      <point x="177" y="394"/>
      <point x="177" y="341" type="qcurve"/>
      <point x="177" y="288"/>
      <point x="192" y="196"/>
      <point x="229" y="127"/>
      <point x="292" y="87"/>
      <point x="340" y="87" type="qcurve"/>
      <point x="362" y="87"/>
      <point x="405" y="94"/>
      <point x="439" y="103"/>
      <point x="462" y="112"/>
      <point x="466" y="113" type="qcurve"/>
      <point x="494" y="28" type="line"/>
      <point x="471" y="18"/>
      <point x="444" y="11" type="qcurve"/>
      <point x="420" y="4"/>
      <point x="355" y="-6"/>
      <point x="317" y="-6" type="qcurve"/>
      <point x="182" y="-6"/>
      <point x="47" y="165"/>
      <point x="47" y="330" type="qcurve"/>
      <point x="47" y="409"/>
      <point x="83" y="540"/>
      <point x="156" y="634"/>
      <point x="267" y="686"/>
      <point x="342" y="686" type="qcurve"/>
      <point x="403" y="686"/>
      <point x="480" y="642"/>
      <point x="504" y="614" type="qcurve"/>
    </contour>
  </outline>
</glyph>
<glyph name="D" format="1">
  <advance width="643"/>
  <unicode hex="0044"/>
  <outline>
    <contour>
      <point x="70" y="677" type="line"/>
      <point x="90" y="677" type="line"/>
      <point x="123" y="677"/>
      <point x="155" y="678" type="qcurve"/>
      <point x="182" y="678"/>
      <point x="243" y="679"/>
      <point x="267" y="679" type="qcurve"/>
      <point x="437" y="679"/>
      <point x="600" y="509"/>
      <point x="600" y="343" type="qcurve"/>
      <point x="600" y="176"/>
      <point x="433" y="-2"/>
      <point x="254" y="-2" type="qcurve"/>
      <point x="223" y="-2"/>
      <point x="166" y="-2"/>
      <point x="143" y="-1" type="qcurve"/>
      <point x="117" y="-1"/>
      <point x="93" y="0" type="qcurve"/>
      <point x="70" y="0" type="line"/>
    </contour>
    <contour>
      <point x="253" y="589" type="qcurve"/>
      <point x="230" y="589"/>
      <point x="200" y="588"/>
      <point x="190" y="588" type="qcurve"/>
      <point x="190" y="89" type="line"/>
      <point x="201" y="88"/>
      <point x="236" y="88"/>
      <point x="268" y="88" type="qcurve"/>
      <point x="373" y="88"/>
      <point x="470" y="211"/>
      <point x="470" y="332" type="qcurve"/>
      <point x="470" y="390"/>
      <point x="447" y="485"/>
      <point x="395" y="552"/>
      <point x="312" y="589"/>
    </contour>
  </outline>
</glyph>
<glyph name="F" format="1">
  <advance width="488"/>
  <unicode hex="0046"/>
  <outline>
    <contour>
      <point x="70" y="677" type="line"/>
      <point x="473" y="677" type="line"/>
      <point x="473" y="586" type="line"/>
      <point x="190" y="586" type="line"/>
      <point x="190" y="392" type="line"/>
      <point x="423" y="392" type="line"/>
      <point x="408" y="301" type="line"/>
      <point x="190" y="301" type="line"/>
      <point x="190" y="0" type="line"/>
      <point x="70" y="0" type="line"/>
    </contour>
  </outline>
</glyph>
<glyph name="G" format="1">
  <advance width="605"/>
  <unicode hex="0047"/>
  <outline>
    <contour>
      <point x="447" y="15" type="qcurve"/>
      <point x="450" y="43"/>
      <point x="450" y="65" type="qcurve"/>
      <point x="450" y="75"/>
      <point x="449" y="79" type="qcurve"/>
      <point x="426" y="37"/>
      <point x="339" y="-8"/>
      <point x="281" y="-8" type="qcurve"/>
      <point x="218" y="-8"/>
      <point x="128" y="40"/>
      <point x="70" y="129"/>
      <point x="43" y="253"/>
      <point x="43" y="329" type="qcurve"/>
      <point x="43" y="407"/>
      <point x="79" y="538"/>
      <point x="152" y="633"/>
      <point x="263" y="686"/>
      <point x="339" y="686" type="qcurve"/>
      <point x="406" y="686"/>
      <point x="498" y="642"/>
      <point x="524" y="614" type="qcurve"/>
      <point x="465" y="538" type="line"/>
      <point x="439" y="564"/>
      <point x="364" y="593"/>
      <point x="326" y="593" type="qcurve"/>
      <point x="283" y="593"/>
      <point x="225" y="553"/>
      <point x="189" y="484"/>
      <point x="173" y="392"/>
      <point x="173" y="339" type="qcurve"/>
      <point x="173" y="282"/>
      <point x="187" y="189"/>
      <point x="219" y="123"/>
      <point x="269" y="86"/>
      <point x="304" y="86" type="qcurve"/>
      <point x="327" y="86"/>
      <point x="375" y="107"/>
      <point x="413" y="146"/>
      <point x="437" y="203"/>
      <point x="437" y="238" type="qcurve"/>
      <point x="437" y="329" type="line"/>
      <point x="555" y="329" type="line"/>
      <point x="555" y="27" type="line"/>
      <point x="555" y="-34"/>
      <point x="522" y="-116"/>
      <point x="471" y="-171"/>
      <point x="408" y="-208"/>
      <point x="377" y="-223" type="qcurve"/>
      <point x="330" y="-143" type="line"/>
      <point x="371" y="-124"/>
      <point x="417" y="-81"/>
      <point x="439" y="-40"/>
      <point x="445" y="-1"/>
    </contour>
  </outline>
</glyph>
<glyph name="H" format="1">
  <advance width="658"/>
  <unicode hex="0048"/>
  <outline>
    <contour>
      <point x="468" y="307" type="line"/>
      <point x="190" y="307" type="line"/>
      <point x="190" y="0" type="line"/>
      <point x="70" y="0" type="line"/>
      <point x="70" y="677" type="line"/>
      <point x="190" y="677" type="line"/>
      <point x="190" y="396" type="line"/>
      <point x="468" y="396" type="line"/>
      <point x="468" y="677" type="line"/>
      <point x="588" y="677" type="line"/>
      <point x="588" y="0" type="line"/>
      <point x="468" y="0" type="line"/>
    </contour>
  </outline>
</glyph>
<glyph name="I" format="1">
  <advance width="260"/>
  <unicode hex="0049"/>
  <outline>
    <contour>
      <point x="131" y="677" type="move" name="topUC"/>
    </contour>
    <contour>
      <point x="70" y="677" type="line"/>
      <point x="190" y="677" type="line"/>
      <point x="190" y="0" type="line"/>
      <point x="70" y="0" type="line"/>
    </contour>
  </outline>
</glyph>
<glyph name="J" format="1">
  <advance width="260"/>
  <unicode hex="004A"/>
  <outline>
    <contour>
      <point x="190" y="26" type="line"/>
      <point x="190" y="-34"/>
      <point x="157" y="-116"/>
      <point x="106" y="-171"/>
      <point x="43" y="-208"/>
      <point x="12" y="-223" type="qcurve"/>
      <point x="-35" y="-143" type="line"/>
      <point x="5" y="-123"/>
      <point x="48" y="-81"/>
      <point x="68" y="-40"/>
      <point x="70" y="-2"/>
      <point x="70" y="14" type="qcurve"/>
      <point x="70" y="677" type="line"/>
      <point x="190" y="677" type="line"/>
    </contour>
  </outline>
</glyph>
<glyph name="K" format="1">
  <advance width="593"/>
  <unicode hex="004B"/>
  <outline>
    <contour>
      <point x="70" y="677" type="line"/>
      <point x="190" y="677" type="line"/>
      <point x="190" y="0" type="line"/>
      <point x="70" y="0" type="line"/>
    </contour>
    <contour>
      <point x="541" y="677" type="line"/>
      <point x="525" y="602"/>
      <point x="486" y="497"/>
      <point x="440" y="424"/>
      <point x="385" y="373"/>
      <point x="354" y="352" type="qcurve"/>
      <point x="600" y="0" type="line"/>
      <point x="460" y="0" type="line"/>
      <point x="203" y="366" type="line"/>
      <point x="203" y="373" type="line"/>
      <point x="295" y="407"/>
      <point x="395" y="562"/>
      <point x="422" y="677" type="qcurve"/>
    </contour>
  </outline>
</glyph>
<glyph name="M" format="1">
  <advance width="813"/>
  <unicode hex="004D"/>
  <outline>
    <contour>
      <point x="630" y="255" type="line"/>
      <point x="628" y="281"/>
      <point x="626" y="375"/>
      <point x="625" y="424" type="qcurve"/>
      <point x="616" y="399"/>
      <point x="597" y="349"/>
      <point x="581" y="304"/>
      <point x="566" y="268"/>
      <point x="562" y="258" type="qcurve"/>
      <point x="451" y="0" type="line"/>
      <point x="366" y="0" type="line"/>
      <point x="254" y="255" type="line"/>
      <point x="249" y="266"/>
      <point x="234" y="304"/>
      <point x="216" y="350"/>
      <point x="196" y="402"/>
      <point x="187" y="427" type="qcurve"/>
      <point x="187" y="401"/>
      <point x="186" y="349"/>
      <point x="184" y="304"/>
      <point x="183" y="268"/>
      <point x="183" y="258" type="qcurve"/>
      <point x="173" y="0" type="line"/>
      <point x="60" y="0" type="line"/>
      <point x="100" y="679" type="line"/>
      <point x="194" y="679" type="line"/>
      <point x="365" y="256" type="line"/>
      <point x="375" y="233"/>
      <point x="396" y="179"/>
      <point x="407" y="152" type="qcurve"/>
      <point x="417" y="178"/>
      <point x="438" y="232"/>
      <point x="449" y="256" type="qcurve"/>
      <point x="619" y="676" type="line"/>
      <point x="619" y="679" type="line"/>
      <point x="713" y="679" type="line"/>
      <point x="753" y="0" type="line"/>
      <point x="640" y="0" type="line"/>
    </contour>
  </outline>
</glyph>
<glyph name="N" format="1">
  <advance width="660"/>
  <unicode hex="004E"/>
  <outline>
    <contour>
      <point x="470" y="677" type="line"/>
      <point x="590" y="677" type="line"/>
      <point x="590" y="-1" type="line"/>
      <point x="490" y="-1" type="line"/>
      <point x="263" y="353" type="line"/>
      <point x="244" y="382"/>
      <point x="199" y="455"/>
      <point x="179" y="486" type="qcurve"/>
      <point x="182" y="454"/>
      <point x="187" y="383"/>
      <point x="187" y="351" type="qcurve"/>
      <point x="190" y="0" type="line"/>
      <point x="70" y="0" type="line"/>
      <point x="70" y="679" type="line"/>
      <point x="164" y="679" type="line"/>
      <point x="398" y="329" type="line"/>
      <point x="418" y="300"/>
      <point x="460" y="234"/>
      <point x="479" y="205" type="qcurve"/>
      <point x="477" y="237"/>
      <point x="473" y="303"/>
      <point x="473" y="326" type="qcurve"/>
    </contour>
  </outline>
</glyph>
<glyph name="P" format="1">
  <advance width="535"/>
  <unicode hex="0050"/>
  <outline>
    <contour>
      <point x="70" y="677" type="line"/>
      <point x="90" y="677" type="line"/>
      <point x="127" y="677"/>
      <point x="161" y="678" type="qcurve"/>
      <point x="190" y="678"/>
      <point x="251" y="679"/>
      <point x="271" y="679" type="qcurve"/>
      <point x="393" y="679"/>
      <point x="510" y="570"/>
      <point x="510" y="475" type="qcurve"/>
      <point x="510" y="428"/>
      <point x="478" y="351"/>
      <point x="415" y="296"/>
      <point x="321" y="265"/>
      <point x="259" y="265" type="qcurve"/>
      <point x="190" y="265" type="line"/>
      <point x="190" y="0" type="line"/>
      <point x="70" y="0" type="line"/>
    </contour>
    <contour>
      <point x="256" y="593" type="qcurve"/>
      <point x="235" y="593"/>
      <point x="202" y="593"/>
      <point x="190" y="592" type="qcurve"/>
      <point x="190" y="354" type="line"/>
      <point x="266" y="354" type="line"/>
      <point x="328" y="354"/>
      <point x="382" y="421"/>
      <point x="382" y="471" type="qcurve"/>
      <point x="382" y="494"/>
      <point x="370" y="538"/>
      <point x="341" y="572"/>
      <point x="292" y="593"/>
    </contour>
  </outline>
</glyph>
<glyph name="Q" format="1">
  <advance width="673"/>
  <unicode hex="0051"/>
  <outline>
    <contour>
      <point x="657" y="-148" type="line"/>
      <point x="613" y="-178"/>
      <point x="506" y="-216"/>
      <point x="387" y="-210"/>
      <point x="257" y="-148"/>
      <point x="189" y="-76" type="qcurve"/>
      <point x="190" y="-75" type="line"/>
      <point x="189" y="-76"/>
      <point x="189" y="-76" type="qcurve"/>
      <point x="211" y="-9" type="line"/>
      <point x="268" y="-21"/>
      <point x="372" y="13"/>
      <point x="451" y="101"/>
      <point x="497" y="240"/>
      <point x="497" y="332" type="qcurve"/>
      <point x="497" y="383"/>
      <point x="483" y="477"/>
      <point x="446" y="549"/>
      <point x="381" y="593"/>
      <point x="330" y="593" type="qcurve"/>
      <point x="287" y="593"/>
      <point x="226" y="553"/>
      <point x="187" y="484"/>
      <point x="169" y="394"/>
      <point x="169" y="344" type="qcurve"/>
      <point x="169" y="298"/>
      <point x="179" y="226"/>
      <point x="204" y="174"/>
      <point x="247" y="140"/>
      <point x="279" y="133" type="qcurve"/>
      <point x="266" y="47" type="line"/>
      <point x="205" y="51"/>
      <point x="120" y="105"/>
      <point x="67" y="186"/>
      <point x="43" y="286"/>
      <point x="43" y="335" type="qcurve"/>
      <point x="43" y="411"/>
      <point x="80" y="539"/>
      <point x="155" y="633"/>
      <point x="268" y="686"/>
      <point x="344" y="686" type="qcurve"/>
      <point x="419" y="686"/>
      <point x="526" y="638"/>
      <point x="595" y="549"/>
      <point x="627" y="422"/>
      <point x="627" y="343" type="qcurve"/>
      <point x="627" y="250"/>
      <point x="582" y="102"/>
      <point x="505" y="-6"/>
      <point x="403" y="-73"/>
      <point x="347" y="-83" type="qcurve"/>
      <point x="374" y="-102"/>
      <point x="432" y="-117"/>
      <point x="497" y="-110"/>
      <point x="572" y="-84"/>
      <point x="616" y="-63" type="qcurve"/>
    </contour>
  </outline>
</glyph>
<glyph name="R" format="1">
  <advance width="575"/>
  <unicode hex="0052"/>
  <outline>
    <contour>
      <point x="271" y="679" type="qcurve"/>
      <point x="395" y="679"/>
      <point x="510" y="582"/>
      <point x="510" y="494" type="qcurve"/>
      <point x="510" y="435"/>
      <point x="452" y="346"/>
      <point x="386" y="326" type="qcurve"/>
      <point x="414" y="310"/>
      <point x="458" y="254"/>
      <point x="500" y="173"/>
      <point x="544" y="66"/>
      <point x="573" y="0" type="qcurve"/>
      <point x="442" y="0" type="line"/>
      <point x="408" y="79"/>
      <point x="357" y="190"/>
      <point x="309" y="261"/>
      <point x="256" y="293"/>
      <point x="219" y="293" type="qcurve"/>
      <point x="190" y="293" type="line"/>
      <point x="190" y="0" type="line"/>
      <point x="70" y="0" type="line"/>
      <point x="70" y="677" type="line"/>
      <point x="90" y="677" type="line"/>
      <point x="127" y="677"/>
      <point x="161" y="678" type="qcurve"/>
      <point x="190" y="678"/>
      <point x="251" y="679"/>
    </contour>
    <contour>
      <point x="190" y="593" type="line"/>
      <point x="190" y="380" type="line"/>
      <point x="266" y="380" type="line"/>
      <point x="321" y="380"/>
      <point x="382" y="430"/>
      <point x="382" y="479" type="qcurve"/>
      <point x="382" y="501"/>
      <point x="370" y="542"/>
      <point x="341" y="574"/>
      <point x="292" y="593"/>
      <point x="256" y="593" type="qcurve"/>
    </contour>
  </outline>
</glyph>
<glyph name="S" format="1">
  <advance width="508"/>
  <unicode hex="0053"/>
  <outline>
    <contour>
      <point x="265" y="686" type="qcurve"/>
      <point x="300" y="686"/>
      <point x="365" y="673"/>
      <point x="417" y="656"/>
      <point x="454" y="638"/>
      <point x="462" y="633" type="qcurve"/>
      <point x="413" y="546" type="line"/>
      <point x="390" y="558"/>
      <point x="365" y="569" type="qcurve"/>
      <point x="344" y="577"/>
      <point x="295" y="592"/>
      <point x="272" y="592" type="qcurve"/>
      <point x="236" y="592"/>
      <point x="183" y="558"/>
      <point x="183" y="523" type="qcurve"/>
      <point x="183" y="478"/>
      <point x="241" y="421"/>
      <point x="303" y="397" type="qcurve"/>
      <point x="343" y="381"/>
      <point x="406" y="346"/>
      <point x="450" y="300"/>
      <point x="473" y="240"/>
      <point x="473" y="199" type="qcurve"/>
      <point x="473" y="160"/>
      <point x="443" y="87"/>
      <point x="386" y="29"/>
      <point x="302" y="-6"/>
      <point x="247" y="-6" type="qcurve"/>
      <point x="208" y="-6"/>
      <point x="138" y="10"/>
      <point x="81" y="32"/>
      <point x="40" y="53"/>
      <point x="30" y="59" type="qcurve"/>
      <point x="72" y="152" type="line"/>
      <point x="103" y="134"/>
      <point x="134" y="120" type="qcurve"/>
      <point x="160" y="108"/>
      <point x="217" y="88"/>
      <point x="239" y="88" type="qcurve"/>
      <point x="292" y="88"/>
      <point x="343" y="140"/>
      <point x="343" y="186" type="qcurve"/>
      <point x="343" y="208"/>
      <point x="329" y="241"/>
      <point x="303" y="265"/>
      <point x="266" y="284"/>
      <point x="243" y="293" type="qcurve"/>
      <point x="198" y="312"/>
      <point x="128" y="350"/>
      <point x="78" y="399"/>
      <point x="52" y="462"/>
      <point x="52" y="506" type="qcurve"/>
      <point x="52" y="543"/>
      <point x="84" y="608"/>
      <point x="140" y="657"/>
      <point x="218" y="686"/>
    </contour>
  </outline>
</glyph>
<glyph name="T" format="1">
  <advance width="493"/>
  <unicode hex="0054"/>
  <outline>
    <contour>
      <point x="10" y="677" type="line"/>
      <point x="483" y="677" type="line"/>
      <point x="468" y="586" type="line"/>
      <point x="300" y="586" type="line"/>
      <point x="300" y="0" type="line"/>
      <point x="180" y="0" type="line"/>
      <point x="180" y="586" type="line"/>
      <point x="10" y="586" type="line"/>
    </contour>
  </outline>
</glyph>
<glyph name="U" format="1">
  <advance width="636"/>
  <unicode hex="0055"/>
  <outline>
    <contour>
      <point x="319" y="677" type="move" name="topUC"/>
    </contour>
    <contour>
      <point x="179" y="677" type="line"/>
      <point x="179" y="259" type="line"/>
      <point x="179" y="166"/>
      <point x="257" y="87"/>
      <point x="324" y="87" type="qcurve"/>
      <point x="391" y="87"/>
      <point x="456" y="178"/>
      <point x="456" y="259" type="qcurve"/>
      <point x="456" y="677" type="line"/>
      <point x="576" y="677" type="line"/>
      <point x="576" y="250" type="line"/>
      <point x="576" y="198"/>
      <point x="549" y="105"/>
      <point x="487" y="35"/>
      <point x="385" y="-6"/>
      <point x="311" y="-6" type="qcurve"/>
      <point x="240" y="-6"/>
      <point x="144" y="35"/>
      <point x="85" y="105"/>
      <point x="60" y="198"/>
      <point x="60" y="250" type="qcurve"/>
      <point x="60" y="677" type="line"/>
    </contour>
  </outline>
</glyph>
<glyph name="V" format="1">
  <advance width="581"/>
  <unicode hex="0056"/>
  <outline>
    <contour>
      <point x="338" y="0" type="line"/>
      <point x="243" y="0" type="line"/>
      <point x="-10" y="677" type="line"/>
      <point x="119" y="677" type="line"/>
      <point x="203" y="434" type="line"/>
      <point x="235" y="341"/>
      <point x="280" y="199"/>
      <point x="292" y="161" type="qcurve"/>
      <point x="303" y="199"/>
      <point x="348" y="338"/>
      <point x="381" y="432" type="qcurve"/>
      <point x="468" y="677" type="line"/>
      <point x="591" y="677" type="line"/>
    </contour>
  </outline>
</glyph>
<glyph name="W" format="1">
  <advance width="870"/>
  <unicode hex="0057"/>
  <outline>
    <contour>
      <point x="462" y="408" type="line"/>
      <point x="454" y="430"/>
      <point x="443" y="471"/>
      <point x="438" y="490" type="qcurve"/>
      <point x="433" y="471"/>
      <point x="423" y="431"/>
      <point x="416" y="408" type="qcurve"/>
      <point x="287" y="0" type="line"/>
      <point x="198" y="0" type="line"/>
      <point x="10" y="677" type="line"/>
      <point x="130" y="677" type="line"/>
      <point x="218" y="341" type="line"/>
      <point x="230" y="297"/>
      <point x="246" y="226"/>
      <point x="251" y="197" type="qcurve"/>
      <point x="264" y="252"/>
      <point x="291" y="339" type="qcurve"/>
      <point x="396" y="677" type="line"/>
      <point x="486" y="677" type="line"/>
      <point x="591" y="339" type="line"/>
      <point x="605" y="294"/>
      <point x="625" y="219"/>
      <point x="632" y="190" type="qcurve"/>
      <point x="636" y="219"/>
      <point x="650" y="293"/>
      <point x="663" y="339" type="qcurve"/>
      <point x="750" y="677" type="line"/>
      <point x="872" y="677" type="line"/>
      <point x="684" y="0" type="line"/>
      <point x="595" y="0" type="line"/>
    </contour>
  </outline>
</glyph>
<glyph name="X" format="1">
  <advance width="584"/>
  <unicode hex="0058"/>
  <outline>
    <contour>
      <point x="0" y="0" type="line"/>
      <point x="210" y="355" type="line"/>
      <point x="20" y="677" type="line"/>
      <point x="156" y="677" type="line"/>
      <point x="251" y="506" type="line"/>
      <point x="259" y="492"/>
      <point x="281" y="450"/>
      <point x="292" y="427" type="qcurve"/>
      <point x="303" y="450"/>
      <point x="325" y="491"/>
      <point x="333" y="505" type="qcurve"/>
      <point x="429" y="677" type="line"/>
      <point x="565" y="677" type="line"/>
      <point x="374" y="354" type="line"/>
      <point x="584" y="0" type="line"/>
      <point x="446" y="0" type="line"/>
      <point x="334" y="200" type="line"/>
      <point x="326" y="214"/>
      <point x="303" y="258"/>
      <point x="292" y="281" type="qcurve"/>
      <point x="280" y="257"/>
      <point x="258" y="214"/>
      <point x="250" y="200" type="qcurve"/>
      <point x="138" y="0" type="line"/>
    </contour>
  </outline>
</glyph>
<glyph name="Z" format="1">
  <advance width="529"/>
  <unicode hex="005A"/>
  <outline>
    <contour>
      <point x="40" y="0" type="line"/>
      <point x="40" y="72" type="line"/>
      <point x="333" y="586" type="line"/>
      <point x="313" y="584"/>
      <point x="271" y="583"/>
      <point x="247" y="583" type="qcurve"/>
      <point x="57" y="583" type="line"/>
      <point x="41" y="677" type="line"/>
      <point x="482" y="677" type="line"/>
      <point x="482" y="605" type="line"/>
      <point x="194" y="92" type="line"/>
      <point x="211" y="93"/>
      <point x="247" y="94"/>
      <point x="268" y="94" type="qcurve"/>
      <point x="494" y="94" type="line"/>
      <point x="494" y="0" type="line"/>
    </contour>
  </outline>
</glyph>
<glyph name="bracketright" format="1">
  <advance width="370"/>
  <unicode hex="005D"/>
  <outline>
    <contour>
      <point x="290" y="-186" type="line"/>
      <point x="60" y="-186" type="line"/>
      <point x="60" y="-97" type="line"/>
      <point x="180" y="-97" type="line"/>
      <point x="180" y="631" type="line"/>
      <point x="60" y="631" type="line"/>
      <point x="60" y="720" type="line"/>
      <point x="290" y="720" type="line"/>
    </contour>
  </outline>
</glyph>
<glyph name="asciicircum" format="1">
  <advance width="542"/>
  <unicode hex="005E"/>
  <outline>
    <contour>
      <point x="50" y="315" type="line"/>
      <point x="229" y="677" type="line"/>
      <point x="313" y="677" type="line"/>
      <point x="492" y="315" type="line"/>
      <point x="384" y="302" type="line"/>
      <point x="297" y="494" type="line"/>
      <point x="289" y="509"/>
      <point x="276" y="542"/>
      <point x="271" y="556" type="qcurve"/>
      <point x="245" y="493" type="line"/>
      <point x="154" y="296" type="line"/>
    </contour>
  </outline>
</glyph>
<glyph name="underscore" format="1">
  <advance width="500"/>
  <unicode hex="005F"/>
  <outline>
    <contour>
      <point x="0" y="-79" type="line"/>
      <point x="500" y="-79" type="line"/>
      <point x="500" y="-163" type="line"/>
      <point x="0" y="-163" type="line"/>
    </contour>
  </outline>
</glyph>
<glyph name="grave" format="1">
  <advance width="500"/>
  <unicode hex="0060"/>
  <outline>
    <contour>
      <point x="264" y="506" type="move" name="_top"/>
    </contour>
    <contour>
      <point x="324" y="539" type="line"/>
      <point x="290" y="561"/>
      <point x="255" y="587" type="qcurve"/>
      <point x="225" y="610"/>
      <point x="155" y="672"/>
      <point x="126" y="709" type="qcurve"/>
      <point x="203" y="781" type="line"/>
      <point x="373" y="591" type="line"/>
    </contour>
  </outline>
</glyph>
<glyph name="b" format="1">
  <advance width="532"/>
  <unicode hex="0062"/>
  <outline>
    <contour>
      <point x="65" y="705" type="line"/>
      <point x="180" y="725" type="line"/>
      <point x="180" y="421" type="line"/>
      <point x="198" y="462"/>
      <point x="262" y="506"/>
      <point x="313" y="506" type="qcurve"/>
      <point x="360" y="506"/>
      <point x="429" y="471"/>
      <point x="475" y="406"/>
      <point x="497" y="314"/>
      <point x="497" y="258" type="qcurve"/>
      <point x="497" y="201"/>
      <point x="462" y="104"/>
      <point x="399" y="34"/>
      <point x="311" y="-6"/>
      <point x="258" y="-6" type="qcurve"/>
      <point x="228" y="-6"/>
      <point x="160" y="3"/>
      <point x="131" y="8" type="qcurve"/>
      <point x="98" y="14"/>
      <point x="65" y="23" type="qcurve"/>
    </contour>
    <contour>
      <point x="294" y="425" type="qcurve"/>
      <point x="270" y="425"/>
      <point x="228" y="391"/>
      <point x="197" y="336"/>
      <point x="180" y="266"/>
      <point x="180" y="229" type="qcurve"/>
      <point x="180" y="85" type="line"/>
      <point x="189" y="83"/>
      <point x="229" y="75"/>
      <point x="245" y="75" type="qcurve"/>
      <point x="282" y="75"/>
      <point x="331" y="101"/>
      <point x="361" y="147"/>
      <point x="373" y="210"/>
      <point x="373" y="248" type="qcurve"/>
      <point x="373" y="282"/>
      <point x="369" y="346"/>
      <point x="352" y="396"/>
      <point x="321" y="425"/>
    </contour>
  </outline>
</glyph>
<glyph name="c" format="1">
  <advance width="410"/>
  <unicode hex="0063"/>
  <outline>
    <contour>
      <point x="250" y="0" type="move" name="bottom"/>
    </contour>
    <contour>
      <point x="335" y="380" type="line"/>
      <point x="320" y="397"/>
      <point x="289" y="421"/>
      <point x="264" y="421" type="qcurve"/>
      <point x="249" y="421"/>
      <point x="212" y="412"/>
      <point x="180" y="377"/>
      <point x="159" y="310"/>
      <point x="159" y="252" type="qcurve"/>
      <point x="159" y="194"/>
      <point x="180" y="124"/>
      <point x="213" y="87"/>
      <point x="251" y="76"/>
      <point x="269" y="76" type="qcurve"/>
      <point x="283" y="76"/>
      <point x="316" y="82"/>
      <point x="331" y="86" type="qcurve"/>
      <point x="349" y="90"/>
      <point x="366" y="96" type="qcurve"/>
      <point x="394" y="23" type="line"/>
      <point x="377" y="14"/>
      <point x="355" y="8" type="qcurve"/>
      <point x="336" y="2"/>
      <point x="285" y="-7"/>
      <point x="253" y="-7" type="qcurve"/>
      <point x="195" y="-7"/>
      <point x="113" y="28"/>
      <point x="60" y="92"/>
      <point x="35" y="182"/>
      <point x="35" y="237" type="qcurve"/>
      <point x="35" y="303"/>
      <point x="70" y="405"/>
      <point x="132" y="474"/>
      <point x="216" y="510"/>
      <point x="264" y="510" type="qcurve"/>
      <point x="311" y="510"/>
      <point x="377" y="474"/>
      <point x="400" y="442" type="qcurve"/>
    </contour>
  </outline>
</glyph>
<glyph name="d" format="1">
  <advance width="536"/>
  <unicode hex="0064"/>
  <outline>
    <contour>
      <point x="425" y="-8" type="line"/>
      <point x="413" y="5"/>
      <point x="402" y="23" type="qcurve"/>
      <point x="393" y="38"/>
      <point x="376" y="84"/>
      <point x="374" y="114" type="qcurve"/>
      <point x="357" y="54"/>
      <point x="283" y="-6"/>
      <point x="219" y="-6" type="qcurve"/>
      <point x="172" y="-6"/>
      <point x="103" y="29"/>
      <point x="57" y="94"/>
      <point x="35" y="186"/>
      <point x="35" y="242" type="qcurve"/>
      <point x="35" y="299"/>
      <point x="70" y="396"/>
      <point x="133" y="466"/>
      <point x="221" y="506"/>
      <point x="274" y="506" type="qcurve"/>
      <point x="292" y="506"/>
      <point x="332" y="502"/>
      <point x="352" y="499" type="qcurve"/>
      <point x="352" y="725" type="line"/>
      <point x="467" y="705" type="line"/>
      <point x="467" y="241" type="line"/>
      <point x="467" y="181"/>
      <point x="482" y="100"/>
      <point x="491" y="75" type="qcurve"/>
      <point x="502" y="46"/>
      <point x="516" y="28" type="qcurve"/>
    </contour>
    <contour>
      <point x="238" y="76" type="qcurve"/>
      <point x="262" y="76"/>
      <point x="304" y="109"/>
      <point x="335" y="164"/>
      <point x="352" y="234"/>
      <point x="352" y="271" type="qcurve"/>
      <point x="352" y="414" type="line"/>
      <point x="342" y="416"/>
      <point x="302" y="425"/>
      <point x="287" y="425" type="qcurve"/>
      <point x="250" y="425"/>
      <point x="201" y="399"/>
      <point x="171" y="353"/>
      <point x="159" y="289"/>
      <point x="159" y="252" type="qcurve"/>
      <point x="159" y="217"/>
      <point x="163" y="154"/>
      <point x="180" y="105"/>
      <point x="211" y="76"/>
    </contour>
  </outline>
</glyph>
<glyph name="e" format="1">
  <advance width="473"/>
  <unicode hex="0065"/>
  <outline>
    <contour>
      <point x="257" y="506" type="move" name="top"/>
    </contour>
    <contour>
      <point x="35" y="237" type="qcurve"/>
      <point x="35" y="304"/>
      <point x="72" y="406"/>
      <point x="137" y="475"/>
      <point x="225" y="510"/>
      <point x="276" y="510" type="qcurve"/>
      <point x="321" y="510"/>
      <point x="384" y="488"/>
      <point x="424" y="450"/>
      <point x="443" y="398"/>
      <point x="443" y="368" type="qcurve"/>
      <point x="443" y="332"/>
      <point x="403" y="267"/>
      <point x="329" y="218"/>
      <point x="223" y="189"/>
      <point x="157" y="188" type="qcurve"/>
      <point x="160" y="165"/>
      <point x="173" y="124"/>
      <point x="198" y="94"/>
      <point x="238" y="76"/>
      <point x="267" y="76" type="qcurve"/>
      <point x="289" y="76"/>
      <point x="339" y="86"/>
      <point x="360" y="93" type="qcurve"/>
      <point x="385" y="101"/>
      <point x="409" y="111" type="qcurve"/>
      <point x="439" y="39" type="line"/>
      <point x="413" y="26"/>
      <point x="383" y="16" type="qcurve"/>
      <point x="357" y="7"/>
      <point x="289" y="-7"/>
      <point x="251" y="-7" type="qcurve"/>
      <point x="193" y="-7"/>
      <point x="111" y="28"/>
      <point x="59" y="92"/>
      <point x="35" y="182"/>
    </contour>
    <contour>
      <point x="267" y="431" type="qcurve"/>
      <point x="234" y="431"/>
      <point x="191" y="401"/>
      <point x="166" y="352"/>
      <point x="155" y="291"/>
      <point x="154" y="261" type="qcurve"/>
      <point x="201" y="262"/>
      <point x="267" y="283"/>
      <point x="309" y="314"/>
      <point x="328" y="350"/>
      <point x="328" y="368" type="qcurve"/>
      <point x="328" y="397"/>
      <point x="294" y="431"/>
    </contour>
  </outline>
</glyph>
<glyph name="f" format="1">
  <advance width="353"/>
  <unicode hex="0066"/>
  <outline>
    <contour>
      <point x="328" y="614" type="line"/>
      <point x="325" y="617"/>
      <point x="294" y="633"/>
      <point x="280" y="633" type="qcurve"/>
      <point x="268" y="633"/>
      <point x="236" y="625"/>
      <point x="210" y="597"/>
      <point x="201" y="544"/>
      <point x="213" y="499" type="qcurve"/>
      <point x="213" y="498" type="line"/>
      <point x="337" y="498" type="line"/>
      <point x="323" y="416" type="line"/>
      <point x="219" y="416" type="line"/>
      <point x="219" y="25" type="line"/>
      <point x="219" y="-35"/>
      <point x="188" y="-116"/>
      <point x="138" y="-171"/>
      <point x="77" y="-208"/>
      <point x="47" y="-223" type="qcurve"/>
      <point x="0" y="-146" type="line"/>
      <point x="37" y="-127"/>
      <point x="79" y="-84"/>
      <point x="99" y="-41"/>
      <point x="104" y="-2"/>
      <point x="104" y="14" type="qcurve"/>
      <point x="104" y="416" type="line"/>
      <point x="14" y="416" type="line"/>
      <point x="14" y="498" type="line"/>
      <point x="101" y="498" type="line"/>
      <point x="100" y="501"/>
      <point x="99" y="506"/>
      <point x="99" y="509" type="qcurve"/>
      <point x="88" y="562"/>
      <point x="109" y="642"/>
      <point x="159" y="695"/>
      <point x="231" y="722"/>
      <point x="272" y="722" type="qcurve"/>
      <point x="311" y="722"/>
      <point x="361" y="697"/>
      <point x="378" y="679" type="qcurve"/>
    </contour>
  </outline>
</glyph>
<glyph name="g" format="1">
  <advance width="531"/>
  <unicode hex="0067"/>
  <outline>
    <contour>
      <point x="374" y="84" type="qcurve"/>
      <point x="372" y="87"/>
      <point x="371" y="94"/>
      <point x="369" y="98" type="qcurve"/>
      <point x="352" y="47"/>
      <point x="279" y="-6"/>
      <point x="219" y="-6" type="qcurve"/>
      <point x="172" y="-6"/>
      <point x="103" y="29"/>
      <point x="57" y="94"/>
      <point x="35" y="186"/>
      <point x="35" y="242" type="qcurve"/>
      <point x="35" y="299"/>
      <point x="70" y="396"/>
      <point x="133" y="466"/>
      <point x="221" y="506"/>
      <point x="274" y="506" type="qcurve"/>
      <point x="299" y="506"/>
      <point x="353" y="500"/>
      <point x="403" y="491"/>
      <point x="443" y="482"/>
      <point x="454" y="479" type="qcurve"/>
      <point x="470" y="477" type="line"/>
      <point x="465" y="203" type="line"/>
      <point x="464" y="173"/>
      <point x="474" y="123"/>
      <point x="486" y="74"/>
      <point x="496" y="23"/>
      <point x="496" y="-7" type="qcurve"/>
      <point x="496" y="-63"/>
      <point x="464" y="-145"/>
      <point x="404" y="-197"/>
      <point x="321" y="-220"/>
      <point x="270" y="-216" type="qcurve"/>
      <point x="238" y="-214"/>
      <point x="182" y="-201"/>
      <point x="160" y="-193" type="qcurve"/>
      <point x="134" y="-185"/>
      <point x="112" y="-175" type="qcurve"/>
      <point x="140" y="-87" type="line"/>
      <point x="181" y="-103"/>
      <point x="238" y="-122"/>
      <point x="270" y="-125" type="qcurve"/>
      <point x="313" y="-129"/>
      <point x="367" y="-97"/>
      <point x="391" y="-38"/>
      <point x="388" y="41"/>
    </contour>
    <contour>
      <point x="238" y="75" type="qcurve"/>
      <point x="262" y="75"/>
      <point x="302" y="107"/>
      <point x="333" y="160"/>
      <point x="351" y="227"/>
      <point x="352" y="263" type="qcurve"/>
      <point x="352" y="414" type="line"/>
      <point x="342" y="416"/>
      <point x="302" y="425"/>
      <point x="287" y="425" type="qcurve"/>
      <point x="250" y="425"/>
      <point x="201" y="399"/>
      <point x="171" y="353"/>
      <point x="159" y="289"/>
      <point x="159" y="252" type="qcurve"/>
      <point x="159" y="217"/>
      <point x="163" y="154"/>
      <point x="180" y="104"/>
      <point x="211" y="75"/>
    </contour>
  </outline>
</glyph>
<glyph name="h" format="1">
  <advance width="540"/>
  <unicode hex="0068"/>
  <outline>
    <contour>
      <point x="180" y="435" type="line"/>
      <point x="209" y="473"/>
      <point x="290" y="506"/>
      <point x="334" y="506" type="qcurve"/>
      <point x="401" y="506"/>
      <point x="438" y="469" type="qcurve"/>
      <point x="480" y="427"/>
      <point x="480" y="334" type="qcurve"/>
      <point x="480" y="0" type="line"/>
      <point x="365" y="0" type="line"/>
      <point x="365" y="326" type="line"/>
      <point x="365" y="368"/>
      <point x="335" y="416"/>
      <point x="300" y="416" type="qcurve"/>
      <point x="279" y="416"/>
      <point x="238" y="395"/>
      <point x="204" y="356"/>
      <point x="182" y="301"/>
      <point x="180" y="267" type="qcurve"/>
      <point x="180" y="0" type="line"/>
      <point x="65" y="0" type="line"/>
      <point x="65" y="705" type="line"/>
      <point x="180" y="725" type="line"/>
    </contour>
  </outline>
</glyph>
<glyph name="i" format="1">
  <advance width="257"/>
  <unicode hex="0069"/>
  <outline>
    <contour>
      <point x="170" y="-4" type="qcurve"/>
      <point x="117" y="-4"/>
      <point x="61" y="59"/>
      <point x="61" y="109" type="qcurve"/>
      <point x="61" y="498" type="line"/>
      <point x="176" y="498" type="line"/>
      <point x="176" y="120" type="line"/>
      <point x="176" y="97"/>
      <point x="190" y="81"/>
      <point x="204" y="81" type="qcurve"/>
      <point x="208" y="81"/>
      <point x="217" y="81"/>
      <point x="221" y="82" type="qcurve"/>
      <point x="225" y="82"/>
      <point x="230" y="83" type="qcurve"/>
      <point x="242" y="10" type="line"/>
      <point x="235" y="6"/>
      <point x="224" y="3" type="qcurve"/>
      <point x="215" y="0"/>
      <point x="188" y="-4"/>
    </contour>
    <contour>
      <point x="120" y="721" type="qcurve"/>
      <point x="152" y="721"/>
      <point x="187" y="682"/>
      <point x="187" y="652" type="qcurve"/>
      <point x="187" y="622"/>
      <point x="152" y="581"/>
      <point x="117" y="581" type="qcurve"/>
      <point x="85" y="581"/>
      <point x="50" y="621"/>
      <point x="50" y="649" type="qcurve"/>
      <point x="50" y="680"/>
      <point x="85" y="721"/>
    </contour>
  </outline>
</glyph>
<glyph name="j" format="1">
  <advance width="245"/>
  <unicode hex="006A"/>
  <outline>
    <contour>
      <point x="65" y="498" type="line"/>
      <point x="180" y="498" type="line"/>
      <point x="180" y="25" type="line"/>
      <point x="180" y="-35"/>
      <point x="149" y="-116"/>
      <point x="99" y="-171"/>
      <point x="38" y="-208"/>
      <point x="8" y="-223" type="qcurve"/>
      <point x="-39" y="-146" type="line"/>
      <point x="-2" y="-127"/>
      <point x="40" y="-84"/>
      <point x="60" y="-41"/>
      <point x="65" y="-2"/>
      <point x="65" y="14" type="qcurve"/>
    </contour>
    <contour>
      <point x="124" y="721" type="qcurve"/>
      <point x="156" y="721"/>
      <point x="191" y="682"/>
      <point x="191" y="652" type="qcurve"/>
      <point x="191" y="622"/>
      <point x="156" y="581"/>
      <point x="121" y="581" type="qcurve"/>
      <point x="89" y="581"/>
      <point x="54" y="621"/>
      <point x="54" y="649" type="qcurve"/>
      <point x="54" y="680"/>
      <point x="89" y="721"/>
    </contour>
  </outline>
</glyph>
<glyph name="k" format="1">
  <advance width="521"/>
  <unicode hex="006B"/>
  <outline>
    <contour>
      <point x="226" y="259" type="line"/>
      <point x="234" y="261"/>
      <point x="279" y="275"/>
      <point x="326" y="301"/>
      <point x="363" y="339"/>
      <point x="363" y="366" type="qcurve"/>
      <point x="363" y="395"/>
      <point x="329" y="425"/>
      <point x="302" y="425" type="qcurve"/>
      <point x="264" y="425"/>
      <point x="218" y="395"/>
      <point x="191" y="358"/>
      <point x="181" y="324"/>
      <point x="180" y="321" type="qcurve"/>
      <point x="180" y="0" type="line"/>
      <point x="65" y="0" type="line"/>
      <point x="65" y="705" type="line"/>
      <point x="180" y="725" type="line"/>
      <point x="180" y="441" type="line"/>
      <point x="188" y="451"/>
      <point x="213" y="474"/>
      <point x="250" y="494"/>
      <point x="300" y="507"/>
      <point x="333" y="507" type="qcurve"/>
      <point x="364" y="507"/>
      <point x="418" y="489"/>
      <point x="457" y="455"/>
      <point x="480" y="406"/>
      <point x="480" y="375" type="qcurve"/>
      <point x="480" y="330"/>
      <point x="443" y="272"/>
      <point x="420" y="255" type="qcurve"/>
      <point x="394" y="235"/>
      <point x="361" y="223" type="qcurve"/>
      <point x="501" y="0" type="line"/>
      <point x="370" y="0" type="line"/>
      <point x="227" y="249" type="line"/>
    </contour>
  </outline>
</glyph>
<glyph name="l" format="1">
  <advance width="292"/>
  <unicode hex="006C"/>
  <outline>
    <contour>
      <point x="171" y="-4" type="qcurve"/>
      <point x="114" y="-4"/>
      <point x="60" y="59"/>
      <point x="60" y="109" type="qcurve"/>
      <point x="60" y="705" type="line"/>
      <point x="175" y="726" type="line"/>
      <point x="175" y="120" type="line"/>
      <point x="175" y="97"/>
      <point x="193" y="79"/>
      <point x="210" y="79" type="qcurve"/>
      <point x="220" y="79"/>
      <point x="239" y="81"/>
      <point x="247" y="83" type="qcurve"/>
      <point x="256" y="85"/>
      <point x="263" y="87" type="qcurve"/>
      <point x="277" y="14" type="line"/>
      <point x="264" y="9"/>
      <point x="248" y="5" type="qcurve"/>
      <point x="234" y="1"/>
      <point x="195" y="-4"/>
    </contour>
  </outline>
</glyph>
<glyph name="m" format="1">
  <advance width="809"/>
  <unicode hex="006D"/>
  <outline>
    <contour>
      <point x="189" y="0" type="line"/>
      <point x="74" y="0" type="line"/>
      <point x="74" y="252" type="line"/>
      <point x="74" y="312"/>
      <point x="58" y="393"/>
      <point x="49" y="418" type="qcurve"/>
      <point x="38" y="447"/>
      <point x="25" y="465" type="qcurve"/>
      <point x="116" y="501" type="line"/>
      <point x="126" y="490"/>
      <point x="136" y="474" type="qcurve"/>
      <point x="144" y="460"/>
      <point x="160" y="420"/>
      <point x="165" y="394" type="qcurve"/>
      <point x="190" y="453"/>
      <point x="282" y="506"/>
      <point x="332" y="506" type="qcurve"/>
      <point x="383" y="506"/>
      <point x="439" y="455"/>
      <point x="453" y="414" type="qcurve"/>
      <point x="480" y="463"/>
      <point x="565" y="506"/>
      <point x="612" y="506" type="qcurve"/>
      <point x="676" y="506"/>
      <point x="710" y="469" type="qcurve"/>
      <point x="749" y="429"/>
      <point x="749" y="334" type="qcurve"/>
      <point x="749" y="0" type="line"/>
      <point x="634" y="0" type="line"/>
      <point x="634" y="326" type="line"/>
      <point x="634" y="368"/>
      <point x="609" y="416"/>
      <point x="577" y="416" type="qcurve"/>
      <point x="559" y="416"/>
      <point x="521" y="396"/>
      <point x="491" y="358"/>
      <point x="470" y="303"/>
      <point x="469" y="269" type="qcurve"/>
      <point x="469" y="0" type="line"/>
      <point x="354" y="0" type="line"/>
      <point x="354" y="326" type="line"/>
      <point x="354" y="368"/>
      <point x="329" y="416"/>
      <point x="297" y="416" type="qcurve"/>
      <point x="277" y="416"/>
      <point x="237" y="392"/>
      <point x="206" y="347"/>
      <point x="187" y="283"/>
      <point x="189" y="244" type="qcurve"/>
    </contour>
  </outline>
</glyph>
<glyph name="n" format="1">
  <advance width="549"/>
  <unicode hex="006E"/>
  <outline>
    <contour>
      <point x="319" y="506" type="move" name="top"/>
    </contour>
    <contour>
      <point x="189" y="0" type="line"/>
      <point x="74" y="0" type="line"/>
      <point x="74" y="252" type="line"/>
      <point x="74" y="312"/>
      <point x="58" y="393"/>
      <point x="49" y="418" type="qcurve"/>
      <point x="38" y="447"/>
      <point x="25" y="465" type="qcurve"/>
      <point x="116" y="501" type="line"/>
      <point x="126" y="490"/>
      <point x="136" y="474" type="qcurve"/>
      <point x="144" y="460"/>
      <point x="160" y="420"/>
      <point x="165" y="394" type="qcurve"/>
      <point x="191" y="453"/>
      <point x="289" y="506"/>
      <point x="343" y="506" type="qcurve"/>
      <point x="410" y="506"/>
      <point x="447" y="469" type="qcurve"/>
      <point x="489" y="427"/>
      <point x="489" y="334" type="qcurve"/>
      <point x="489" y="0" type="line"/>
      <point x="374" y="0" type="line"/>
      <point x="374" y="323" type="line"/>
      <point x="374" y="365"/>
      <point x="344" y="415"/>
      <point x="309" y="415" type="qcurve"/>
      <point x="287" y="415"/>
      <point x="242" y="391"/>
      <point x="208" y="347"/>
      <point x="187" y="283"/>
      <point x="189" y="244" type="qcurve"/>
    </contour>
  </outline>
</glyph>
<glyph name="p" format="1">
  <advance width="541"/>
  <unicode hex="0070"/>
  <outline>
    <contour>
      <point x="116" y="501" type="line"/>
      <point x="128" y="489"/>
      <point x="138" y="471" type="qcurve"/>
      <point x="146" y="456"/>
      <point x="162" y="413"/>
      <point x="166" y="384" type="qcurve"/>
      <point x="183" y="444"/>
      <point x="257" y="506"/>
      <point x="322" y="506" type="qcurve"/>
      <point x="369" y="506"/>
      <point x="438" y="471"/>
      <point x="484" y="406"/>
      <point x="506" y="314"/>
      <point x="506" y="258" type="qcurve"/>
      <point x="506" y="201"/>
      <point x="471" y="104"/>
      <point x="408" y="34"/>
      <point x="320" y="-6"/>
      <point x="267" y="-6" type="qcurve"/>
      <point x="248" y="-6"/>
      <point x="209" y="-2"/>
      <point x="189" y="0" type="qcurve"/>
      <point x="189" y="-201" type="line"/>
      <point x="74" y="-221" type="line"/>
      <point x="74" y="252" type="line"/>
      <point x="74" y="312"/>
      <point x="58" y="393"/>
      <point x="49" y="418" type="qcurve"/>
      <point x="38" y="447"/>
      <point x="25" y="465" type="qcurve"/>
    </contour>
    <contour>
      <point x="303" y="424" type="qcurve"/>
      <point x="279" y="424"/>
      <point x="238" y="392"/>
      <point x="208" y="340"/>
      <point x="190" y="272"/>
      <point x="189" y="236" type="qcurve"/>
      <point x="189" y="85" type="line"/>
      <point x="198" y="83"/>
      <point x="238" y="75"/>
      <point x="254" y="75" type="qcurve"/>
      <point x="291" y="75"/>
      <point x="340" y="101"/>
      <point x="370" y="147"/>
      <point x="382" y="210"/>
      <point x="382" y="248" type="qcurve"/>
      <point x="382" y="282"/>
      <point x="378" y="346"/>
      <point x="361" y="395"/>
      <point x="330" y="424"/>
    </contour>
  </outline>
</glyph>
<glyph name="q" format="1">
  <advance width="532"/>
  <unicode hex="0071"/>
  <outline>
    <contour>
      <point x="467" y="-222" type="line"/>
      <point x="352" y="-201" type="line"/>
      <point x="352" y="61" type="line"/>
      <point x="311" y="-6"/>
      <point x="219" y="-6" type="qcurve"/>
      <point x="172" y="-6"/>
      <point x="103" y="29"/>
      <point x="57" y="94"/>
      <point x="35" y="186"/>
      <point x="35" y="242" type="qcurve"/>
      <point x="35" y="299"/>
      <point x="70" y="396"/>
      <point x="133" y="466"/>
      <point x="221" y="506"/>
      <point x="274" y="506" type="qcurve"/>
      <point x="304" y="506"/>
      <point x="371" y="496"/>
      <point x="400" y="491" type="qcurve"/>
      <point x="433" y="485"/>
      <point x="467" y="477" type="qcurve"/>
    </contour>
    <contour>
      <point x="238" y="76" type="qcurve"/>
      <point x="262" y="76"/>
      <point x="304" y="109"/>
      <point x="335" y="164"/>
      <point x="352" y="234"/>
      <point x="352" y="271" type="qcurve"/>
      <point x="352" y="414" type="line"/>
      <point x="342" y="416"/>
      <point x="302" y="425"/>
      <point x="287" y="425" type="qcurve"/>
      <point x="250" y="425"/>
      <point x="201" y="399"/>
      <point x="171" y="353"/>
      <point x="159" y="289"/>
      <point x="159" y="252" type="qcurve"/>
      <point x="159" y="217"/>
      <point x="163" y="154"/>
      <point x="180" y="105"/>
      <point x="211" y="76"/>
    </contour>
  </outline>
</glyph>
<glyph name="r" format="1">
  <advance width="370"/>
  <unicode hex="0072"/>
  <outline>
    <contour>
      <point x="289" y="393" type="qcurve"/>
      <point x="253" y="393"/>
      <point x="194" y="330"/>
      <point x="189" y="276" type="qcurve"/>
      <point x="189" y="0" type="line"/>
      <point x="74" y="0" type="line"/>
      <point x="74" y="252" type="line"/>
      <point x="74" y="312"/>
      <point x="58" y="393"/>
      <point x="49" y="418" type="qcurve"/>
      <point x="38" y="447"/>
      <point x="25" y="465" type="qcurve"/>
      <point x="116" y="501" type="line"/>
      <point x="125" y="489"/>
      <point x="135" y="474" type="qcurve"/>
      <point x="143" y="460"/>
      <point x="159" y="423"/>
      <point x="164" y="397" type="qcurve"/>
      <point x="184" y="454"/>
      <point x="260" y="505"/>
      <point x="308" y="505" type="qcurve"/>
      <point x="319" y="505"/>
      <point x="342" y="501"/>
      <point x="351" y="499" type="qcurve"/>
      <point x="362" y="496"/>
      <point x="370" y="494" type="qcurve"/>
      <point x="338" y="382" type="line"/>
      <point x="332" y="384"/>
      <point x="325" y="387" type="qcurve"/>
      <point x="319" y="389"/>
      <point x="301" y="393"/>
    </contour>
  </outline>
</glyph>
<glyph name="s" format="1">
  <advance width="412"/>
  <unicode hex="0073"/>
  <outline>
    <contour>
      <point x="212" y="510" type="qcurve"/>
      <point x="242" y="510"/>
      <point x="298" y="498"/>
      <point x="320" y="490" type="qcurve"/>
      <point x="346" y="481"/>
      <point x="368" y="471" type="qcurve"/>
      <point x="333" y="392" type="line"/>
      <point x="314" y="401"/>
      <point x="294" y="408" type="qcurve"/>
      <point x="277" y="414"/>
      <point x="235" y="425"/>
      <point x="216" y="425" type="qcurve"/>
      <point x="193" y="425"/>
      <point x="160" y="403"/>
      <point x="160" y="381" type="qcurve"/>
      <point x="160" y="325"/>
      <point x="243" y="293" type="qcurve"/>
      <point x="274" y="281"/>
      <point x="324" y="254"/>
      <point x="359" y="218"/>
      <point x="377" y="171"/>
      <point x="377" y="139" type="qcurve"/>
      <point x="377" y="111"/>
      <point x="354" y="57"/>
      <point x="309" y="15"/>
      <point x="244" y="-10"/>
      <point x="202" y="-10" type="qcurve"/>
      <point x="169" y="-10"/>
      <point x="105" y="5"/>
      <point x="80" y="14" type="qcurve"/>
      <point x="50" y="25"/>
      <point x="24" y="38" type="qcurve"/>
      <point x="61" y="123" type="line"/>
      <point x="84" y="110"/>
      <point x="107" y="99" type="qcurve"/>
      <point x="127" y="90"/>
      <point x="172" y="75"/>
      <point x="192" y="75" type="qcurve"/>
      <point x="227" y="75"/>
      <point x="260" y="103"/>
      <point x="260" y="126" type="qcurve"/>
      <point x="260" y="152"/>
      <point x="223" y="194"/>
      <point x="187" y="208" type="qcurve"/>
      <point x="110" y="237"/>
      <point x="43" y="311"/>
      <point x="43" y="370" type="qcurve"/>
      <point x="43" y="398"/>
      <point x="69" y="449"/>
      <point x="114" y="488"/>
      <point x="176" y="510"/>
    </contour>
  </outline>
</glyph>
<glyph name="t" format="1">
  <advance width="362"/>
  <unicode hex="0074"/>
  <outline>
    <contour>
      <point x="10" y="498" type="line"/>
      <point x="100" y="498" type="line"/>
      <point x="120" y="615" type="line"/>
      <point x="215" y="636" type="line"/>
      <point x="215" y="498" type="line"/>
      <point x="338" y="498" type="line"/>
      <point x="324" y="416" type="line"/>
      <point x="215" y="416" type="line"/>
      <point x="215" y="122" type="line"/>
      <point x="215" y="96"/>
      <point x="243" y="81"/>
      <point x="260" y="81" type="qcurve"/>
      <point x="274" y="81"/>
      <point x="302" y="85"/>
      <point x="313" y="88" type="qcurve"/>
      <point x="326" y="91"/>
      <point x="338" y="95" type="qcurve"/>
      <point x="357" y="19" type="line"/>
      <point x="341" y="12"/>
      <point x="321" y="7" type="qcurve"/>
      <point x="304" y="2"/>
      <point x="257" y="-4"/>
      <point x="229" y="-4" type="qcurve"/>
      <point x="201" y="-4"/>
      <point x="154" y="8"/>
      <point x="119" y="35"/>
      <point x="100" y="78"/>
      <point x="100" y="109" type="qcurve"/>
      <point x="100" y="416" type="line"/>
      <point x="10" y="416" type="line"/>
    </contour>
  </outline>
</glyph>
<glyph name="u" format="1">
  <advance width="549"/>
  <unicode hex="0075"/>
  <outline>
    <contour>
      <point x="271" y="506" type="move" name="top"/>
    </contour>
    <contour>
      <point x="360" y="498" type="line"/>
      <point x="475" y="498" type="line"/>
      <point x="475" y="241" type="line"/>
      <point x="475" y="181"/>
      <point x="490" y="100"/>
      <point x="499" y="75" type="qcurve"/>
      <point x="510" y="45"/>
      <point x="524" y="28" type="qcurve"/>
      <point x="433" y="-8" type="line"/>
      <point x="422" y="3"/>
      <point x="412" y="20" type="qcurve"/>
      <point x="404" y="34"/>
      <point x="387" y="75"/>
      <point x="383" y="102" type="qcurve"/>
      <point x="356" y="44"/>
      <point x="260" y="-6"/>
      <point x="206" y="-6" type="qcurve"/>
      <point x="139" y="-6"/>
      <point x="102" y="31" type="qcurve"/>
      <point x="60" y="73"/>
      <point x="60" y="166" type="qcurve"/>
      <point x="60" y="498" type="line"/>
      <point x="175" y="498" type="line"/>
      <point x="175" y="169" type="line"/>
      <point x="175" y="127"/>
      <point x="205" y="79"/>
      <point x="240" y="79" type="qcurve"/>
      <point x="262" y="79"/>
      <point x="307" y="104"/>
      <point x="341" y="150"/>
      <point x="362" y="215"/>
      <point x="360" y="254" type="qcurve"/>
    </contour>
  </outline>
</glyph>
<glyph name="v" format="1">
  <advance width="524"/>
  <unicode hex="0076"/>
  <outline>
    <contour>
      <point x="469" y="498" type="line"/>
      <point x="471" y="483"/>
      <point x="474" y="466" type="qcurve"/>
      <point x="476" y="452"/>
      <point x="479" y="414"/>
      <point x="479" y="395" type="qcurve"/>
      <point x="479" y="284"/>
      <point x="446" y="132"/>
      <point x="379" y="37"/>
      <point x="276" y="-5"/>
      <point x="206" y="-5" type="qcurve"/>
      <point x="139" y="-5"/>
      <point x="102" y="32" type="qcurve"/>
      <point x="60" y="74"/>
      <point x="60" y="166" type="qcurve"/>
      <point x="60" y="498" type="line"/>
      <point x="175" y="498" type="line"/>
      <point x="175" y="169" type="line"/>
      <point x="175" y="127"/>
      <point x="205" y="76"/>
      <point x="240" y="76" type="qcurve"/>
      <point x="276" y="76"/>
      <point x="323" y="129"/>
      <point x="351" y="216"/>
      <point x="363" y="326"/>
      <point x="363" y="383" type="qcurve"/>
      <point x="363" y="404"/>
      <point x="359" y="444"/>
      <point x="357" y="461" type="qcurve"/>
      <point x="354" y="480"/>
      <point x="352" y="498" type="qcurve"/>
    </contour>
  </outline>
</glyph>
<glyph name="w" format="1">
  <advance width="771"/>
  <unicode hex="0077"/>
  <outline>
    <contour>
      <point x="716" y="498" type="line"/>
      <point x="718" y="483"/>
      <point x="721" y="466" type="qcurve"/>
      <point x="723" y="452"/>
      <point x="726" y="415"/>
      <point x="726" y="395" type="qcurve"/>
      <point x="726" y="284"/>
      <point x="701" y="131"/>
      <point x="644" y="36"/>
      <point x="550" y="-7"/>
      <point x="481" y="-7" type="qcurve"/>
      <point x="414" y="-7"/>
      <point x="377" y="30" type="qcurve"/>
      <point x="358" y="49"/>
      <point x="348" y="73" type="qcurve"/>
      <point x="330" y="31"/>
      <point x="267" y="-7"/>
      <point x="206" y="-7" type="qcurve"/>
      <point x="139" y="-7"/>
      <point x="102" y="30" type="qcurve"/>
      <point x="60" y="72"/>
      <point x="60" y="163" type="qcurve"/>
      <point x="60" y="498" type="line"/>
      <point x="175" y="498" type="line"/>
      <point x="175" y="172" type="line"/>
      <point x="175" y="130"/>
      <point x="205" y="76"/>
      <point x="240" y="76" type="qcurve"/>
      <point x="286" y="76"/>
      <point x="335" y="166"/>
      <point x="335" y="270" type="qcurve"/>
      <point x="335" y="498" type="line"/>
      <point x="450" y="498" type="line"/>
      <point x="449" y="423"/>
      <point x="449" y="359" type="qcurve"/>
      <point x="449" y="331"/>
      <point x="448" y="275"/>
      <point x="448" y="225"/>
      <point x="448" y="184"/>
      <point x="448" y="172" type="qcurve"/>
      <point x="448" y="130"/>
      <point x="480" y="76"/>
      <point x="515" y="76" type="qcurve"/>
      <point x="549" y="76"/>
      <point x="588" y="129"/>
      <point x="606" y="216"/>
      <point x="610" y="326"/>
      <point x="610" y="383" type="qcurve"/>
      <point x="610" y="406"/>
      <point x="606" y="448"/>
      <point x="604" y="464" type="qcurve"/>
      <point x="601" y="482"/>
      <point x="599" y="498" type="qcurve"/>
    </contour>
  </outline>
</glyph>
<glyph name="x" format="1">
  <advance width="481"/>
  <unicode hex="0078"/>
  <outline>
    <contour>
      <point x="-5" y="0" type="line"/>
      <point x="162" y="264" type="line"/>
      <point x="16" y="498" type="line"/>
      <point x="149" y="498" type="line"/>
      <point x="212" y="395" type="line"/>
      <point x="218" y="385"/>
      <point x="238" y="344"/>
      <point x="248" y="323" type="qcurve"/>
      <point x="259" y="341"/>
      <point x="282" y="377"/>
      <point x="291" y="394" type="qcurve"/>
      <point x="303" y="416"/>
      <point x="320" y="454"/>
      <point x="325" y="468" type="qcurve"/>
      <point x="331" y="485"/>
      <point x="336" y="498" type="qcurve"/>
      <point x="455" y="498" type="line"/>
      <point x="450" y="483"/>
      <point x="443" y="464" type="qcurve"/>
      <point x="436" y="447"/>
      <point x="416" y="402"/>
      <point x="401" y="375" type="qcurve"/>
      <point x="384" y="345"/>
      <point x="340" y="286"/>
      <point x="319" y="263" type="qcurve"/>
      <point x="481" y="0" type="line"/>
      <point x="350" y="0" type="line"/>
      <point x="276" y="129" type="line"/>
      <point x="268" y="143"/>
      <point x="248" y="181"/>
      <point x="238" y="201" type="qcurve"/>
      <point x="227" y="181"/>
      <point x="207" y="142"/>
      <point x="199" y="128" type="qcurve"/>
      <point x="124" y="0" type="line"/>
    </contour>
  </outline>
</glyph>
<glyph name="z" format="1">
  <advance width="418"/>
  <unicode hex="007A"/>
  <outline>
    <contour>
      <point x="30" y="0" type="line"/>
      <point x="30" y="69" type="line"/>
      <point x="250" y="417" type="line"/>
      <point x="199" y="414"/>
      <point x="150" y="414" type="qcurve"/>
      <point x="52" y="414" type="line"/>
      <point x="38" y="498" type="line"/>
      <point x="384" y="498" type="line"/>
      <point x="384" y="429" type="line"/>
      <point x="168" y="81" type="line"/>
      <point x="211" y="84"/>
      <point x="256" y="84" type="qcurve"/>
      <point x="393" y="84" type="line"/>
      <point x="393" y="0" type="line"/>
    </contour>
  </outline>
</glyph>
<glyph name="braceleft" format="1">
  <advance width="365"/>
  <unicode hex="007B"/>
  <outline>
    <contour>
      <point x="116" y="-77" type="qcurve"/>
      <point x="116" y="-23"/>
      <point x="130" y="80"/>
      <point x="130" y="125" type="qcurve"/>
      <point x="130" y="164"/>
      <point x="95" y="216"/>
      <point x="60" y="224" type="qcurve"/>
      <point x="60" y="307" type="line"/>
      <point x="95" y="315"/>
      <point x="130" y="367"/>
      <point x="130" y="406" type="qcurve"/>
      <point x="130" y="451"/>
      <point x="116" y="554"/>
      <point x="116" y="608" type="qcurve"/>
      <point x="116" y="641"/>
      <point x="146" y="692"/>
      <point x="205" y="721"/>
      <point x="290" y="725"/>
      <point x="345" y="712" type="qcurve"/>
      <point x="322" y="627" type="line"/>
      <point x="294" y="637"/>
      <point x="258" y="635"/>
      <point x="238" y="621"/>
      <point x="231" y="601"/>
      <point x="231" y="592" type="qcurve"/>
      <point x="231" y="547"/>
      <point x="244" y="459"/>
      <point x="244" y="420" type="qcurve"/>
      <point x="244" y="398"/>
      <point x="238" y="356"/>
      <point x="221" y="317"/>
      <point x="188" y="281"/>
      <point x="161" y="265" type="qcurve"/>
      <point x="188" y="249"/>
      <point x="221" y="213"/>
      <point x="238" y="174"/>
      <point x="244" y="133"/>
      <point x="244" y="111" type="qcurve"/>
      <point x="244" y="72"/>
      <point x="231" y="-16"/>
      <point x="231" y="-61" type="qcurve"/>
      <point x="231" y="-70"/>
      <point x="238" y="-90"/>
      <point x="258" y="-104"/>
      <point x="294" y="-106"/>
      <point x="322" y="-96" type="qcurve"/>
      <point x="345" y="-181" type="line"/>
      <point x="290" y="-195"/>
      <point x="205" y="-190"/>
      <point x="146" y="-161"/>
      <point x="116" y="-110"/>
    </contour>
  </outline>
</glyph>
<glyph name="braceright" format="1">
  <advance width="365"/>
  <unicode hex="007D"/>
  <outline>
    <contour>
      <point x="249" y="-77" type="qcurve"/>
      <point x="249" y="-110"/>
      <point x="218" y="-161"/>
      <point x="160" y="-190"/>
      <point x="75" y="-195"/>
      <point x="20" y="-181" type="qcurve"/>
      <point x="43" y="-96" type="line"/>
      <point x="71" y="-106"/>
      <point x="107" y="-104"/>
      <point x="127" y="-90"/>
      <point x="134" y="-70"/>
      <point x="134" y="-61" type="qcurve"/>
      <point x="134" y="-16"/>
      <point x="121" y="72"/>
      <point x="121" y="111" type="qcurve"/>
      <point x="121" y="133"/>
      <point x="127" y="174"/>
      <point x="144" y="213"/>
      <point x="176" y="249"/>
      <point x="203" y="265" type="qcurve"/>
      <point x="176" y="281"/>
      <point x="144" y="317"/>
      <point x="127" y="356"/>
      <point x="121" y="398"/>
      <point x="121" y="420" type="qcurve"/>
      <point x="121" y="459"/>
      <point x="134" y="547"/>
      <point x="134" y="592" type="qcurve"/>
      <point x="134" y="601"/>
      <point x="127" y="621"/>
      <point x="107" y="635"/>
      <point x="71" y="637"/>
      <point x="43" y="627" type="qcurve"/>
      <point x="20" y="712" type="line"/>
      <point x="75" y="725"/>
      <point x="160" y="721"/>
      <point x="218" y="692"/>
      <point x="249" y="641"/>
      <point x="249" y="608" type="qcurve"/>
      <point x="249" y="554"/>
      <point x="235" y="451"/>
      <point x="235" y="406" type="qcurve"/>
      <point x="235" y="367"/>
      <point x="270" y="315"/>
      <point x="305" y="307" type="qcurve"/>
      <point x="305" y="224" type="line"/>
      <point x="270" y="216"/>
      <point x="235" y="164"/>
      <point x="235" y="125" type="qcurve"/>
      <point x="235" y="80"/>
      <point x="249" y="-23"/>
    </contour>
  </outline>
</glyph>
<glyph name="asciitilde" format="1">
  <advance width="517"/>
  <unicode hex="007E"/>
  <outline>
    <contour>
      <point x="50" y="308" type="line"/>
      <point x="62" y="331"/>
      <point x="80" y="349" type="qcurve"/>
      <point x="95" y="365"/>
      <point x="142" y="391"/>
      <point x="174" y="391" type="qcurve"/>
      <point x="203" y="391"/>
      <point x="246" y="372"/>
      <point x="283" y="350"/>
      <point x="319" y="331"/>
      <point x="342" y="331" type="qcurve"/>
      <point x="357" y="331"/>
      <point x="379" y="336"/>
      <point x="397" y="348"/>
      <point x="414" y="365"/>
      <point x="425" y="377" type="qcurve"/>
      <point x="467" y="330" type="line"/>
      <point x="454" y="306"/>
      <point x="436" y="288" type="qcurve"/>
      <point x="420" y="272"/>
      <point x="374" y="247"/>
      <point x="342" y="247" type="qcurve"/>
      <point x="313" y="247"/>
      <point x="271" y="266"/>
      <point x="234" y="288"/>
      <point x="197" y="307"/>
      <point x="174" y="307" type="qcurve"/>
      <point x="159" y="307"/>
      <point x="138" y="302"/>
      <point x="120" y="290"/>
      <point x="103" y="273"/>
      <point x="92" y="261" type="qcurve"/>
    </contour>
  </outline>
</glyph>
<glyph name="exclamdown" format="1">
  <advance width="319"/>
  <unicode hex="00A1"/>
  <outline>
    <contour>
      <point x="140" y="354" type="qcurve"/>
      <point x="175" y="354"/>
      <point x="213" y="396"/>
      <point x="213" y="429" type="qcurve"/>
      <point x="213" y="461"/>
      <point x="175" y="506"/>
      <point x="137" y="506" type="qcurve"/>
      <point x="102" y="506"/>
      <point x="64" y="462"/>
      <point x="64" y="432" type="qcurve"/>
      <point x="64" y="399"/>
      <point x="102" y="354"/>
    </contour>
    <contour>
      <point x="90" y="-182" type="line"/>
      <point x="219" y="-182" type="line"/>
      <point x="190" y="275" type="line"/>
      <point x="90" y="275" type="line"/>
    </contour>
  </outline>
</glyph>
<glyph name="cent" format="1">
  <advance width="460"/>
  <unicode hex="00A2"/>
  <outline>
    <contour>
      <point x="321" y="581" type="line"/>
      <point x="321" y="494" type="line"/>
      <point x="354" y="488"/>
      <point x="407" y="455"/>
      <point x="425" y="430" type="qcurve"/>
      <point x="360" y="368" type="line"/>
      <point x="351" y="377"/>
      <point x="332" y="394"/>
      <point x="321" y="400" type="qcurve"/>
      <point x="321" y="86" type="line"/>
      <point x="333" y="88"/>
      <point x="358" y="93"/>
      <point x="368" y="96" type="qcurve"/>
      <point x="379" y="100"/>
      <point x="391" y="103" type="qcurve"/>
      <point x="419" y="30" type="line"/>
      <point x="407" y="24"/>
      <point x="392" y="19" type="qcurve"/>
      <point x="379" y="14"/>
      <point x="343" y="5"/>
      <point x="321" y="3" type="qcurve"/>
      <point x="321" y="-115" type="line"/>
      <point x="242" y="-115" type="line"/>
      <point x="242" y="1" type="line"/>
      <point x="143" y="10"/>
      <point x="55" y="135"/>
      <point x="55" y="237" type="qcurve"/>
      <point x="55" y="295"/>
      <point x="83" y="386"/>
      <point x="133" y="450"/>
      <point x="201" y="489"/>
      <point x="242" y="495" type="qcurve"/>
      <point x="242" y="581" type="line"/>
    </contour>
    <contour>
      <point x="176" y="252" type="qcurve"/>
      <point x="176" y="212"/>
      <point x="187" y="155"/>
      <point x="205" y="118"/>
      <point x="229" y="96"/>
      <point x="242" y="91" type="qcurve"/>
      <point x="242" y="404" type="line"/>
      <point x="229" y="400"/>
      <point x="205" y="382"/>
      <point x="187" y="347"/>
      <point x="176" y="292"/>
    </contour>
  </outline>
</glyph>
<glyph name="sterling" format="1">
  <advance width="563"/>
  <unicode hex="00A3"/>
  <outline>
    <contour>
      <point x="60" y="342" type="line"/>
      <point x="134" y="342" type="line"/>
      <point x="141" y="429" type="line"/>
      <point x="144" y="476"/>
      <point x="177" y="552"/>
      <point x="233" y="606"/>
      <point x="308" y="636"/>
      <point x="355" y="636" type="qcurve"/>
      <point x="390" y="636"/>
      <point x="442" y="626"/>
      <point x="480" y="611"/>
      <point x="505" y="596"/>
      <point x="513" y="591" type="qcurve"/>
      <point x="464" y="503" type="line"/>
      <point x="452" y="513"/>
      <point x="436" y="522" type="qcurve"/>
      <point x="422" y="530"/>
      <point x="385" y="542"/>
      <point x="362" y="542" type="qcurve"/>
      <point x="344" y="542"/>
      <point x="310" y="532"/>
      <point x="283" y="508"/>
      <point x="264" y="467"/>
      <point x="261" y="436" type="qcurve"/>
      <point x="251" y="342" type="line"/>
      <point x="433" y="342" type="line"/>
      <point x="418" y="251" type="line"/>
      <point x="241" y="251" type="line"/>
      <point x="237" y="212" type="line"/>
      <point x="232" y="167"/>
      <point x="209" y="109"/>
      <point x="196" y="89" type="qcurve"/>
      <point x="232" y="95"/>
      <point x="268" y="95" type="qcurve"/>
      <point x="297" y="95"/>
      <point x="352" y="89"/>
      <point x="381" y="89" type="qcurve"/>
      <point x="396" y="89"/>
      <point x="429" y="95"/>
      <point x="443" y="100" type="qcurve"/>
      <point x="459" y="105"/>
      <point x="475" y="112" type="qcurve"/>
      <point x="510" y="27" type="line"/>
      <point x="491" y="17"/>
      <point x="470" y="10" type="qcurve"/>
      <point x="452" y="4"/>
      <point x="406" y="-6"/>
      <point x="382" y="-6" type="qcurve"/>
      <point x="337" y="-6"/>
      <point x="267" y="6"/>
      <point x="233" y="6" type="qcurve"/>
      <point x="204" y="6"/>
      <point x="154" y="4"/>
      <point x="135" y="2" type="qcurve"/>
      <point x="113" y="0"/>
      <point x="95" y="-2" type="qcurve"/>
      <point x="67" y="66" type="line"/>
      <point x="81" y="75"/>
      <point x="92" y="91" type="qcurve"/>
      <point x="102" y="105"/>
      <point x="119" y="147"/>
      <point x="121" y="179" type="qcurve"/>
      <point x="121" y="176" type="line"/>
      <point x="127" y="251" type="line"/>
      <point x="60" y="251" type="line"/>
    </contour>
  </outline>
</glyph>
<glyph name="currency" format="1">
  <advance width="589"/>
  <unicode hex="00A4"/>
  <outline>
    <contour>
      <point x="30" y="63" type="line"/>
      <point x="116" y="140" type="line"/>
      <point x="71" y="199"/>
      <point x="71" y="283" type="qcurve"/>
      <point x="71" y="325"/>
      <point x="95" y="397"/>
      <point x="118" y="426" type="qcurve"/>
      <point x="32" y="504" type="line"/>
      <point x="101" y="573" type="line"/>
      <point x="184" y="480" type="line"/>
      <point x="208" y="493"/>
      <point x="263" y="507"/>
      <point x="295" y="507" type="qcurve"/>
      <point x="357" y="507"/>
      <point x="406" y="481" type="qcurve"/>
      <point x="489" y="573" type="line"/>
      <point x="558" y="504" type="line"/>
      <point x="471" y="426" type="line"/>
      <point x="494" y="397"/>
      <point x="518" y="325"/>
      <point x="518" y="283" type="qcurve"/>
      <point x="518" y="241"/>
      <point x="494" y="170"/>
      <point x="471" y="141" type="qcurve"/>
      <point x="559" y="63" type="line"/>
      <point x="490" y="-6" type="line"/>
      <point x="406" y="87" type="line"/>
      <point x="381" y="74"/>
      <point x="325" y="60"/>
      <point x="293" y="60" type="qcurve"/>
      <point x="231" y="60"/>
      <point x="182" y="86" type="qcurve"/>
      <point x="99" y="-6" type="line"/>
    </contour>
    <contour>
      <point x="157" y="288" type="qcurve"/>
      <point x="157" y="256"/>
      <point x="177" y="201"/>
      <point x="213" y="160"/>
      <point x="263" y="136"/>
      <point x="293" y="136" type="qcurve"/>
      <point x="324" y="136"/>
      <point x="375" y="158"/>
      <point x="412" y="196"/>
      <point x="432" y="249"/>
      <point x="432" y="280" type="qcurve"/>
      <point x="432" y="312"/>
      <point x="412" y="367"/>
      <point x="375" y="408"/>
      <point x="324" y="432"/>
      <point x="293" y="432" type="qcurve"/>
      <point x="263" y="432"/>
      <point x="213" y="411"/>
      <point x="177" y="372"/>
      <point x="157" y="319"/>
    </contour>
  </outline>
</glyph>
<glyph name="yen" format="1">
  <advance width="593"/>
  <unicode hex="00A5"/>
  <outline>
    <contour>
      <point x="114" y="341" type="line"/>
      <point x="196" y="341" type="line"/>
      <point x="30" y="637" type="line"/>
      <point x="160" y="637" type="line"/>
      <point x="296" y="363" type="line"/>
      <point x="435" y="637" type="line"/>
      <point x="563" y="637" type="line"/>
      <point x="395" y="341" type="line"/>
      <point x="477" y="341" type="line"/>
      <point x="477" y="252" type="line"/>
      <point x="354" y="252" type="line"/>
      <point x="354" y="191" type="line"/>
      <point x="477" y="191" type="line"/>
      <point x="477" y="102" type="line"/>
      <point x="354" y="102" type="line"/>
      <point x="354" y="0" type="line"/>
      <point x="234" y="0" type="line"/>
      <point x="234" y="102" type="line"/>
      <point x="114" y="102" type="line"/>
      <point x="114" y="191" type="line"/>
      <point x="234" y="191" type="line"/>
      <point x="234" y="252" type="line"/>
      <point x="114" y="252" type="line"/>
    </contour>
  </outline>
</glyph>
<glyph name="section" format="1">
  <advance width="559"/>
  <unicode hex="00A7"/>
  <outline>
    <contour>
      <point x="255" y="-216" type="qcurve"/>
      <point x="230" y="-216"/>
      <point x="184" y="-207"/>
      <point x="167" y="-202" type="qcurve"/>
      <point x="146" y="-196"/>
      <point x="128" y="-188" type="qcurve"/>
      <point x="163" y="-109" type="line"/>
      <point x="176" y="-116"/>
      <point x="191" y="-120" type="qcurve"/>
      <point x="204" y="-125"/>
      <point x="235" y="-131"/>
      <point x="251" y="-131" type="qcurve"/>
      <point x="307" y="-131"/>
      <point x="307" y="-79" type="qcurve"/>
      <point x="307" y="-52"/>
      <point x="269" y="-6"/>
      <point x="212" y="37"/>
      <point x="145" y="82"/>
      <point x="88" y="136"/>
      <point x="50" y="202"/>
      <point x="50" y="245" type="qcurve"/>
      <point x="50" y="278"/>
      <point x="72" y="327"/>
      <point x="104" y="362"/>
      <point x="142" y="386"/>
      <point x="159" y="393" type="qcurve"/>
      <point x="141" y="416"/>
      <point x="120" y="466"/>
      <point x="120" y="495" type="qcurve"/>
      <point x="120" y="526"/>
      <point x="144" y="580"/>
      <point x="188" y="620"/>
      <point x="250" y="643"/>
      <point x="289" y="643" type="qcurve"/>
      <point x="314" y="643"/>
      <point x="359" y="634"/>
      <point x="377" y="629" type="qcurve"/>
      <point x="397" y="623"/>
      <point x="416" y="615" type="qcurve"/>
      <point x="381" y="536" type="line"/>
      <point x="368" y="542"/>
      <point x="353" y="547" type="qcurve"/>
      <point x="340" y="551"/>
      <point x="309" y="558"/>
      <point x="293" y="558" type="qcurve"/>
      <point x="237" y="558"/>
      <point x="237" y="506" type="qcurve"/>
      <point x="237" y="479"/>
      <point x="275" y="433"/>
      <point x="332" y="390"/>
      <point x="399" y="345"/>
      <point x="456" y="291"/>
      <point x="494" y="225"/>
      <point x="494" y="182" type="qcurve"/>
      <point x="494" y="149"/>
      <point x="472" y="100"/>
      <point x="439" y="64"/>
      <point x="401" y="40"/>
      <point x="385" y="33" type="qcurve"/>
      <point x="402" y="11"/>
      <point x="424" y="-39"/>
      <point x="424" y="-68" type="qcurve"/>
      <point x="424" y="-99"/>
      <point x="400" y="-153"/>
      <point x="356" y="-193"/>
      <point x="294" y="-216"/>
    </contour>
    <contour>
      <point x="377" y="169" type="qcurve"/>
      <point x="377" y="191"/>
      <point x="349" y="232"/>
      <point x="304" y="271"/>
      <point x="249" y="311"/>
      <point x="222" y="332" type="qcurve"/>
      <point x="204" y="325"/>
      <point x="167" y="292"/>
      <point x="167" y="258" type="qcurve"/>
      <point x="167" y="235"/>
      <point x="195" y="195"/>
      <point x="240" y="156"/>
      <point x="294" y="116"/>
      <point x="321" y="94" type="qcurve"/>
      <point x="340" y="101"/>
      <point x="377" y="135"/>
    </contour>
  </outline>
</glyph>
<glyph name="dieresis" format="1">
  <advance width="500"/>
  <unicode hex="00A8"/>
  <outline>
    <contour>
      <point x="250" y="487" type="move" name="_top"/>
    </contour>
    <contour>
      <point x="151" y="696" type="qcurve"/>
      <point x="180" y="696"/>
      <point x="212" y="660"/>
      <point x="212" y="633" type="qcurve"/>
      <point x="212" y="605"/>
      <point x="180" y="568"/>
      <point x="148" y="568" type="qcurve"/>
      <point x="119" y="568"/>
      <point x="87" y="604"/>
      <point x="87" y="630" type="qcurve"/>
      <point x="87" y="659"/>
      <point x="119" y="696"/>
    </contour>
    <contour>
      <point x="351" y="696" type="qcurve"/>
      <point x="380" y="696"/>
      <point x="412" y="660"/>
      <point x="412" y="633" type="qcurve"/>
      <point x="412" y="605"/>
      <point x="380" y="568"/>
      <point x="348" y="568" type="qcurve"/>
      <point x="319" y="568"/>
      <point x="287" y="604"/>
      <point x="287" y="630" type="qcurve"/>
      <point x="287" y="659"/>
      <point x="319" y="696"/>
    </contour>
  </outline>
</glyph>
<glyph name="copyright" format="1">
  <advance width="782"/>
  <unicode hex="00A9"/>
  <outline>
    <contour>
      <point x="45" y="340" type="qcurve"/>
      <point x="45" y="416"/>
      <point x="97" y="543"/>
      <point x="190" y="635"/>
      <point x="318" y="686"/>
      <point x="394" y="686" type="qcurve"/>
      <point x="470" y="686"/>
      <point x="596" y="635"/>
      <point x="687" y="543"/>
      <point x="737" y="416"/>
      <point x="737" y="340" type="qcurve"/>
      <point x="737" y="264"/>
      <point x="685" y="137"/>
      <point x="592" y="45"/>
      <point x="463" y="-6"/>
      <point x="387" y="-6" type="qcurve"/>
      <point x="311" y="-6"/>
      <point x="185" y="45"/>
      <point x="95" y="137"/>
      <point x="45" y="264"/>
    </contour>
    <contour>
      <point x="131" y="346" type="qcurve"/>
      <point x="131" y="288"/>
      <point x="169" y="186"/>
      <point x="238" y="111"/>
      <point x="333" y="68"/>
      <point x="390" y="68" type="qcurve"/>
      <point x="448" y="68"/>
      <point x="544" y="107"/>
      <point x="613" y="178"/>
      <point x="651" y="275"/>
      <point x="651" y="333" type="qcurve"/>
      <point x="651" y="391"/>
      <point x="613" y="493"/>
      <point x="544" y="569"/>
      <point x="449" y="612"/>
      <point x="391" y="612" type="qcurve"/>
      <point x="334" y="612"/>
      <point x="238" y="573"/>
      <point x="169" y="502"/>
      <point x="131" y="404"/>
    </contour>
    <contour>
      <point x="464" y="452" type="line"/>
      <point x="458" y="457"/>
      <point x="449" y="461" type="qcurve"/>
      <point x="441" y="465"/>
      <point x="421" y="471"/>
      <point x="410" y="471" type="qcurve"/>
      <point x="390" y="471"/>
      <point x="364" y="451"/>
      <point x="349" y="416"/>
      <point x="342" y="370"/>
      <point x="342" y="344" type="qcurve"/>
      <point x="342" y="290"/>
      <point x="377" y="217"/>
      <point x="416" y="217" type="qcurve"/>
      <point x="442" y="217"/>
      <point x="479" y="228"/>
      <point x="483" y="230" type="qcurve"/>
      <point x="505" y="163" type="line"/>
      <point x="492" y="157"/>
      <point x="476" y="153" type="qcurve"/>
      <point x="462" y="149"/>
      <point x="425" y="143"/>
      <point x="403" y="143" type="qcurve"/>
      <point x="325" y="143"/>
      <point x="246" y="242"/>
      <point x="246" y="338" type="qcurve"/>
      <point x="246" y="384"/>
      <point x="267" y="460"/>
      <point x="309" y="515"/>
      <point x="374" y="545"/>
      <point x="418" y="545" type="qcurve"/>
      <point x="455" y="545"/>
      <point x="500" y="520"/>
      <point x="513" y="506" type="qcurve"/>
    </contour>
  </outline>
</glyph>
<glyph name="ordfeminine" format="1">
  <advance width="401"/>
  <unicode hex="00AA"/>
  <outline>
    <contour>
      <point x="338" y="505" type="line"/>
      <point x="338" y="466"/>
      <point x="348" y="410"/>
      <point x="354" y="393" type="qcurve"/>
      <point x="361" y="373"/>
      <point x="371" y="360" type="qcurve"/>
      <point x="304" y="334" type="line"/>
      <point x="296" y="340"/>
      <point x="289" y="350" type="qcurve"/>
      <point x="283" y="358"/>
      <point x="270" y="381"/>
      <point x="265" y="396" type="qcurve"/>
      <point x="239" y="335"/>
      <point x="167" y="335" type="qcurve"/>
      <point x="99" y="335"/>
      <point x="35" y="429"/>
      <point x="35" y="507" type="qcurve"/>
      <point x="35" y="546"/>
      <point x="59" y="612"/>
      <point x="103" y="659"/>
      <point x="165" y="686"/>
      <point x="202" y="686" type="qcurve"/>
      <point x="222" y="686"/>
      <point x="270" y="680"/>
      <point x="290" y="676" type="qcurve"/>
      <point x="314" y="672"/>
      <point x="338" y="667" type="qcurve"/>
    </contour>
    <contour>
      <point x="178" y="400" type="qcurve"/>
      <point x="193" y="400"/>
      <point x="218" y="423"/>
      <point x="236" y="462"/>
      <point x="247" y="512"/>
      <point x="247" y="539" type="qcurve"/>
      <point x="247" y="617" type="line"/>
      <point x="239" y="619"/>
      <point x="218" y="623"/>
      <point x="210" y="623" type="qcurve"/>
      <point x="165" y="623"/>
      <point x="133" y="561"/>
      <point x="133" y="513" type="qcurve"/>
      <point x="133" y="492"/>
      <point x="136" y="451"/>
      <point x="145" y="419"/>
      <point x="163" y="400"/>
    </contour>
  </outline>
</glyph>
<glyph name="guillemotleft" format="1">
  <advance width="568"/>
  <unicode hex="00AB"/>
  <outline>
    <contour>
      <point x="265" y="27" type="line"/>
      <point x="225" y="62"/>
      <point x="186" y="99" type="qcurve"/>
      <point x="153" y="131"/>
      <point x="79" y="208"/>
      <point x="50" y="245" type="qcurve"/>
      <point x="79" y="282"/>
      <point x="153" y="359"/>
      <point x="186" y="391" type="qcurve"/>
      <point x="225" y="428"/>
      <point x="265" y="463" type="qcurve"/>
      <point x="313" y="408" type="line"/>
      <point x="183" y="245" type="line"/>
      <point x="313" y="82" type="line"/>
    </contour>
    <contour>
      <point x="485" y="27" type="line"/>
      <point x="445" y="62"/>
      <point x="406" y="99" type="qcurve"/>
      <point x="373" y="131"/>
      <point x="299" y="208"/>
      <point x="270" y="245" type="qcurve"/>
      <point x="299" y="282"/>
      <point x="373" y="359"/>
      <point x="406" y="391" type="qcurve"/>
      <point x="445" y="428"/>
      <point x="485" y="463" type="qcurve"/>
      <point x="533" y="408" type="line"/>
      <point x="403" y="245" type="line"/>
      <point x="533" y="82" type="line"/>
    </contour>
  </outline>
</glyph>
<glyph name="uni00AD" format="1">
  <advance width="383"/>
  <unicode hex="00AD"/>
  <outline>
    <contour>
      <point x="50" y="361" type="line"/>
      <point x="333" y="361" type="line"/>
      <point x="333" y="277" type="line"/>
      <point x="50" y="277" type="line"/>
    </contour>
  </outline>
</glyph>
<glyph name="registered" format="1">
  <advance width="584"/>
  <unicode hex="00AE"/>
  <outline>
    <contour>
      <point x="60" y="454" type="qcurve"/>
      <point x="60" y="505"/>
      <point x="95" y="590"/>
      <point x="157" y="652"/>
      <point x="243" y="686"/>
      <point x="294" y="686" type="qcurve"/>
      <point x="345" y="686"/>
      <point x="430" y="652"/>
      <point x="490" y="590"/>
      <point x="524" y="505"/>
      <point x="524" y="454" type="qcurve"/>
      <point x="524" y="403"/>
      <point x="489" y="318"/>
      <point x="426" y="256"/>
      <point x="341" y="222"/>
      <point x="290" y="222" type="qcurve"/>
      <point x="239" y="222"/>
      <point x="154" y="256"/>
      <point x="94" y="318"/>
      <point x="60" y="403"/>
    </contour>
    <contour>
      <point x="125" y="457" type="qcurve"/>
      <point x="125" y="420"/>
      <point x="150" y="355"/>
      <point x="193" y="307"/>
      <point x="254" y="279"/>
      <point x="290" y="279" type="qcurve"/>
      <point x="327" y="279"/>
      <point x="388" y="304"/>
      <point x="432" y="349"/>
      <point x="457" y="411"/>
      <point x="457" y="449" type="qcurve"/>
      <point x="457" y="486"/>
      <point x="433" y="551"/>
      <point x="389" y="599"/>
      <point x="327" y="627"/>
      <point x="290" y="627" type="qcurve"/>
      <point x="254" y="627"/>
      <point x="193" y="602"/>
      <point x="150" y="557"/>
      <point x="125" y="494"/>
    </contour>
    <contour>
      <point x="284" y="581" type="qcurve"/>
      <point x="332" y="581"/>
      <point x="376" y="544"/>
      <point x="376" y="510" type="qcurve"/>
      <point x="376" y="491"/>
      <point x="355" y="462"/>
      <point x="337" y="451" type="qcurve"/>
      <point x="353" y="446"/>
      <point x="374" y="400"/>
      <point x="395" y="345" type="qcurve"/>
      <point x="345" y="327" type="line"/>
      <point x="333" y="357"/>
      <point x="317" y="398"/>
      <point x="301" y="422"/>
      <point x="282" y="432"/>
      <point x="267" y="433" type="qcurve"/>
      <point x="262" y="433" type="line"/>
      <point x="262" y="325" type="line"/>
      <point x="209" y="325" type="line"/>
      <point x="209" y="580" type="line"/>
      <point x="216" y="580" type="line"/>
      <point x="243" y="580" type="line"/>
      <point x="254" y="580"/>
      <point x="276" y="581"/>
    </contour>
    <contour>
      <point x="262" y="549" type="line"/>
      <point x="262" y="464" type="line"/>
      <point x="264" y="464"/>
      <point x="280" y="465"/>
      <point x="285" y="466" type="qcurve"/>
      <point x="308" y="471"/>
      <point x="321" y="487"/>
      <point x="321" y="506" type="qcurve"/>
      <point x="321" y="522"/>
      <point x="303" y="549"/>
      <point x="277" y="549" type="qcurve"/>
    </contour>
  </outline>
</glyph>
<glyph name="macron" format="1">
  <advance width="500"/>
  <unicode hex="00AF"/>
  <outline>
    <contour>
      <point x="251" y="506" type="move" name="_top"/>
    </contour>
    <contour>
      <point x="89" y="683" type="line"/>
      <point x="412" y="683" type="line"/>
      <point x="412" y="599" type="line"/>
      <point x="89" y="599" type="line"/>
    </contour>
  </outline>
</glyph>
<glyph name="degree" format="1">
  <advance width="310"/>
  <unicode hex="00B0"/>
  <outline>
    <contour>
      <point x="40" y="604" type="qcurve"/>
      <point x="40" y="655"/>
      <point x="105" y="721"/>
      <point x="156" y="721" type="qcurve"/>
      <point x="207" y="721"/>
      <point x="270" y="655"/>
      <point x="270" y="604" type="qcurve"/>
      <point x="270" y="553"/>
      <point x="205" y="487"/>
      <point x="154" y="487" type="qcurve"/>
      <point x="103" y="487"/>
      <point x="40" y="553"/>
    </contour>
    <contour>
      <point x="104" y="605" type="qcurve"/>
      <point x="104" y="579"/>
      <point x="131" y="545"/>
      <point x="155" y="545" type="qcurve"/>
      <point x="180" y="545"/>
      <point x="207" y="576"/>
      <point x="207" y="604" type="qcurve"/>
      <point x="207" y="630"/>
      <point x="180" y="663"/>
      <point x="155" y="663" type="qcurve"/>
      <point x="131" y="663"/>
      <point x="104" y="633"/>
    </contour>
  </outline>
</glyph>
<glyph name="plusminus" format="1">
  <advance width="513"/>
  <unicode hex="00B1"/>
  <outline>
    <contour>
      <point x="61" y="346" type="line"/>
      <point x="209" y="346" type="line"/>
      <point x="209" y="498" type="line"/>
      <point x="304" y="498" type="line"/>
      <point x="304" y="346" type="line"/>
      <point x="453" y="346" type="line"/>
      <point x="453" y="257" type="line"/>
      <point x="304" y="257" type="line"/>
      <point x="304" y="121" type="line"/>
      <point x="452" y="121" type="line"/>
      <point x="452" y="32" type="line"/>
      <point x="60" y="32" type="line"/>
      <point x="60" y="121" type="line"/>
      <point x="209" y="121" type="line"/>
      <point x="209" y="257" type="line"/>
      <point x="61" y="257" type="line"/>
    </contour>
  </outline>
</glyph>
<glyph name="uni00B2" format="1">
  <advance width="317"/>
  <unicode hex="00B2"/>
  <outline>
    <contour>
      <point x="159" y="686" type="qcurve"/>
      <point x="210" y="686"/>
      <point x="270" y="641"/>
      <point x="270" y="592" type="qcurve"/>
      <point x="270" y="553"/>
      <point x="222" y="481"/>
      <point x="182" y="440" type="qcurve"/>
      <point x="175" y="433"/>
      <point x="155" y="416"/>
      <point x="142" y="407" type="qcurve"/>
      <point x="277" y="407" type="line"/>
      <point x="277" y="336" type="line"/>
      <point x="36" y="336" type="line"/>
      <point x="36" y="407" type="line"/>
      <point x="48" y="416"/>
      <point x="60" y="427" type="qcurve"/>
      <point x="71" y="436"/>
      <point x="96" y="460"/>
      <point x="110" y="474" type="qcurve"/>
      <point x="146" y="514"/>
      <point x="178" y="560"/>
      <point x="178" y="583" type="qcurve"/>
      <point x="178" y="617"/>
      <point x="151" y="617" type="qcurve"/>
      <point x="137" y="617"/>
      <point x="107" y="606"/>
      <point x="95" y="600" type="qcurve"/>
      <point x="81" y="593"/>
      <point x="67" y="584" type="qcurve"/>
      <point x="35" y="647" type="line"/>
      <point x="64" y="663"/>
      <point x="124" y="686"/>
    </contour>
  </outline>
</glyph>
<glyph name="uni00B3" format="1">
  <advance width="328"/>
  <unicode hex="00B3"/>
  <outline>
    <contour>
      <point x="163" y="686" type="qcurve"/>
      <point x="214" y="686"/>
      <point x="268" y="640"/>
      <point x="268" y="603" type="qcurve"/>
      <point x="268" y="574"/>
      <point x="239" y="540"/>
      <point x="223" y="530" type="qcurve"/>
      <point x="252" y="518"/>
      <point x="283" y="474"/>
      <point x="283" y="446" type="qcurve"/>
      <point x="283" y="424"/>
      <point x="270" y="382"/>
      <point x="238" y="349"/>
      <point x="187" y="329"/>
      <point x="150" y="329" type="qcurve"/>
      <point x="124" y="329"/>
      <point x="63" y="348"/>
      <point x="35" y="363" type="qcurve"/>
      <point x="61" y="425" type="line"/>
      <point x="75" y="417"/>
      <point x="89" y="411" type="qcurve"/>
      <point x="101" y="406"/>
      <point x="131" y="398"/>
      <point x="147" y="398" type="qcurve"/>
      <point x="165" y="398"/>
      <point x="195" y="420"/>
      <point x="195" y="445" type="qcurve"/>
      <point x="195" y="463"/>
      <point x="177" y="488"/>
      <point x="159" y="488" type="qcurve"/>
      <point x="146" y="488"/>
      <point x="127" y="486"/>
      <point x="120" y="485" type="qcurve"/>
      <point x="112" y="483"/>
      <point x="105" y="482" type="qcurve"/>
      <point x="84" y="534" type="line"/>
      <point x="98" y="538"/>
      <point x="131" y="545"/>
      <point x="159" y="557"/>
      <point x="178" y="575"/>
      <point x="178" y="591" type="qcurve"/>
      <point x="178" y="602"/>
      <point x="165" y="617"/>
      <point x="154" y="617" type="qcurve"/>
      <point x="140" y="617"/>
      <point x="104" y="606"/>
      <point x="73" y="592" type="qcurve"/>
      <point x="43" y="656" type="line"/>
      <point x="74" y="670"/>
      <point x="129" y="686"/>
    </contour>
  </outline>
</glyph>
<glyph name="acute" format="1">
  <advance width="500"/>
  <unicode hex="00B4"/>
  <outline>
    <contour>
      <point x="234" y="506" type="move" name="_top"/>
    </contour>
    <contour>
      <point x="127" y="591" type="line"/>
      <point x="297" y="781" type="line"/>
      <point x="374" y="709" type="line"/>
      <point x="344" y="672"/>
      <point x="275" y="610"/>
      <point x="245" y="587" type="qcurve"/>
      <point x="210" y="561"/>
      <point x="176" y="539" type="qcurve"/>
    </contour>
  </outline>
</glyph>
<glyph name="uni00B5" format="1">
  <advance width="554"/>
  <unicode hex="00B5"/>
  <outline>
    <contour>
      <point x="65" y="498" type="line"/>
      <point x="180" y="498" type="line"/>
      <point x="180" y="161" type="line"/>
      <point x="182" y="123"/>
      <point x="226" y="79"/>
      <point x="260" y="79" type="qcurve"/>
      <point x="300" y="79"/>
      <point x="361" y="157"/>
      <point x="365" y="223" type="qcurve"/>
      <point x="365" y="498" type="line"/>
      <point x="480" y="498" type="line"/>
      <point x="480" y="241" type="line"/>
      <point x="480" y="181"/>
      <point x="495" y="100"/>
      <point x="504" y="75" type="qcurve"/>
      <point x="515" y="45"/>
      <point x="529" y="28" type="qcurve"/>
      <point x="438" y="-8" type="line"/>
      <point x="428" y="2"/>
      <point x="419" y="16" type="qcurve"/>
      <point x="411" y="28"/>
      <point x="395" y="63"/>
      <point x="390" y="86" type="qcurve"/>
      <point x="353" y="-6"/>
      <point x="260" y="-6" type="qcurve"/>
      <point x="215" y="-6"/>
      <point x="180" y="18" type="qcurve"/>
      <point x="180" y="-201" type="line"/>
      <point x="65" y="-222" type="line"/>
    </contour>
  </outline>
</glyph>
<glyph name="paragraph" format="1">
  <advance width="578"/>
  <unicode hex="00B6"/>
  <outline>
    <contour>
      <point x="508" y="26" type="line"/>
      <point x="508" y="-34"/>
      <point x="475" y="-116"/>
      <point x="424" y="-171"/>
      <point x="361" y="-208"/>
      <point x="330" y="-223" type="qcurve"/>
      <point x="283" y="-143" type="line"/>
      <point x="323" y="-123"/>
      <point x="366" y="-81"/>
      <point x="386" y="-40"/>
      <point x="388" y="-2"/>
      <point x="388" y="14" type="qcurve"/>
      <point x="388" y="677" type="line"/>
      <point x="508" y="677" type="line"/>
    </contour>
    <contour>
      <point x="290" y="265" type="line"/>
      <point x="175" y="265"/>
      <point x="60" y="377"/>
      <point x="60" y="473" type="qcurve"/>
      <point x="60" y="570"/>
      <point x="177" y="679"/>
      <point x="290" y="679" type="qcurve"/>
    </contour>
  </outline>
</glyph>
<glyph name="periodcentered" format="1">
  <advance width="249"/>
  <unicode hex="00B7"/>
  <outline>
    <contour>
      <point x="126" y="393" type="qcurve"/>
      <point x="161" y="393"/>
      <point x="199" y="351"/>
      <point x="199" y="318" type="qcurve"/>
      <point x="199" y="286"/>
      <point x="161" y="241"/>
      <point x="123" y="241" type="qcurve"/>
      <point x="88" y="241"/>
      <point x="50" y="285"/>
      <point x="50" y="315" type="qcurve"/>
      <point x="50" y="348"/>
      <point x="88" y="393"/>
    </contour>
  </outline>
</glyph>
<glyph name="cedilla" format="1">
  <advance width="500"/>
  <unicode hex="00B8"/>
  <outline>
    <contour>
      <point x="238" y="0" type="move" name="_bottom"/>
    </contour>
    <contour>
      <point x="274" y="3" type="line"/>
      <point x="263" y="-47" type="line"/>
      <point x="302" y="-50"/>
      <point x="353" y="-89"/>
      <point x="353" y="-126" type="qcurve"/>
      <point x="353" y="-153"/>
      <point x="332" y="-189"/>
      <point x="298" y="-210"/>
      <point x="256" y="-219"/>
      <point x="235" y="-219" type="qcurve"/>
      <point x="210" y="-219"/>
      <point x="165" y="-209"/>
      <point x="148" y="-201" type="qcurve"/>
      <point x="164" y="-147" type="line"/>
      <point x="175" y="-151"/>
      <point x="211" y="-160"/>
      <point x="228" y="-160" type="qcurve"/>
      <point x="255" y="-160"/>
      <point x="278" y="-144"/>
      <point x="278" y="-129" type="qcurve"/>
      <point x="278" y="-117"/>
      <point x="260" y="-101"/>
      <point x="233" y="-90"/>
      <point x="201" y="-85"/>
      <point x="186" y="-85" type="qcurve"/>
      <point x="208" y="3" type="line"/>
    </contour>
  </outline>
</glyph>
<glyph name="uni00B9" format="1">
  <advance width="267"/>
  <unicode hex="00B9"/>
  <outline>
    <contour>
      <point x="197" y="677" type="line"/>
      <point x="197" y="336" type="line"/>
      <point x="113" y="336" type="line"/>
      <point x="113" y="587" type="line"/>
      <point x="81" y="556"/>
      <point x="45" y="540" type="qcurve"/>
      <point x="10" y="604" type="line"/>
      <point x="33" y="612"/>
      <point x="55" y="623" type="qcurve"/>
      <point x="74" y="632"/>
      <point x="117" y="660"/>
      <point x="136" y="677" type="qcurve"/>
    </contour>
  </outline>
</glyph>
<glyph name="ordmasculine" format="1">
  <advance width="410"/>
  <unicode hex="00BA"/>
  <outline>
    <contour>
      <point x="208" y="686" type="qcurve"/>
      <point x="291" y="686"/>
      <point x="365" y="593"/>
      <point x="365" y="512" type="qcurve"/>
      <point x="365" y="474"/>
      <point x="345" y="408"/>
      <point x="304" y="360"/>
      <point x="243" y="332"/>
      <point x="202" y="332" type="qcurve"/>
      <point x="119" y="332"/>
      <point x="45" y="424"/>
      <point x="45" y="504" type="qcurve"/>
      <point x="45" y="543"/>
      <point x="65" y="610"/>
      <point x="105" y="658"/>
      <point x="167" y="686"/>
    </contour>
    <contour>
      <point x="201" y="619" type="qcurve"/>
      <point x="166" y="619"/>
      <point x="143" y="558"/>
      <point x="143" y="511" type="qcurve"/>
      <point x="143" y="488"/>
      <point x="148" y="447"/>
      <point x="163" y="417"/>
      <point x="189" y="399"/>
      <point x="209" y="399" type="qcurve"/>
      <point x="244" y="399"/>
      <point x="267" y="460"/>
      <point x="267" y="507" type="qcurve"/>
      <point x="267" y="530"/>
      <point x="262" y="571"/>
      <point x="247" y="601"/>
      <point x="221" y="619"/>
    </contour>
  </outline>
</glyph>
<glyph name="guillemotright" format="1">
  <advance width="568"/>
  <unicode hex="00BB"/>
  <outline>
    <contour>
      <point x="303" y="463" type="line"/>
      <point x="343" y="428"/>
      <point x="382" y="391" type="qcurve"/>
      <point x="415" y="359"/>
      <point x="489" y="282"/>
      <point x="518" y="245" type="qcurve"/>
      <point x="489" y="208"/>
      <point x="415" y="131"/>
      <point x="382" y="99" type="qcurve"/>
      <point x="343" y="62"/>
      <point x="303" y="27" type="qcurve"/>
      <point x="255" y="82" type="line"/>
      <point x="385" y="245" type="line"/>
      <point x="255" y="408" type="line"/>
    </contour>
    <contour>
      <point x="83" y="463" type="line"/>
      <point x="123" y="428"/>
      <point x="162" y="391" type="qcurve"/>
      <point x="195" y="359"/>
      <point x="269" y="282"/>
      <point x="298" y="245" type="qcurve"/>
      <point x="269" y="208"/>
      <point x="195" y="131"/>
      <point x="162" y="99" type="qcurve"/>
      <point x="123" y="62"/>
      <point x="83" y="27" type="qcurve"/>
      <point x="35" y="82" type="line"/>
      <point x="165" y="245" type="line"/>
      <point x="35" y="408" type="line"/>
    </contour>
  </outline>
</glyph>
<glyph name="onequarter" format="1">
  <advance width="713"/>
  <unicode hex="00BC"/>
  <outline>
    <contour>
      <point x="413" y="587" type="line"/>
      <point x="508" y="587" type="line"/>
      <point x="234" y="0" type="line"/>
      <point x="139" y="0" type="line"/>
    </contour>
    <contour>
      <point x="649" y="155" type="line"/>
      <point x="698" y="155" type="line"/>
      <point x="688" y="92" type="line"/>
      <point x="649" y="92" type="line"/>
      <point x="649" y="0" type="line"/>
      <point x="565" y="0" type="line"/>
      <point x="565" y="92" type="line"/>
      <point x="408" y="92" type="line"/>
      <point x="408" y="132" type="line"/>
      <point x="498" y="350" type="line"/>
      <point x="581" y="350" type="line"/>
      <point x="498" y="155" type="line"/>
      <point x="565" y="155" type="line"/>
      <point x="565" y="247" type="line"/>
      <point x="649" y="267" type="line"/>
    </contour>
    <contour>
      <point x="192" y="586" type="line"/>
      <point x="192" y="235" type="line"/>
      <point x="108" y="235" type="line"/>
      <point x="108" y="496" type="line"/>
      <point x="76" y="465"/>
      <point x="40" y="449" type="qcurve"/>
      <point x="5" y="513" type="line"/>
      <point x="28" y="521"/>
      <point x="50" y="532" type="qcurve"/>
      <point x="69" y="541"/>
      <point x="112" y="569"/>
      <point x="131" y="586" type="qcurve"/>
    </contour>
  </outline>
</glyph>
<glyph name="onehalf" format="1">
  <advance width="727"/>
  <unicode hex="00BD"/>
  <outline>
    <contour>
      <point x="413" y="587" type="line"/>
      <point x="508" y="587" type="line"/>
      <point x="234" y="0" type="line"/>
      <point x="139" y="0" type="line"/>
    </contour>
    <contour>
      <point x="569" y="350" type="qcurve"/>
      <point x="620" y="350"/>
      <point x="680" y="305"/>
      <point x="680" y="256" type="qcurve"/>
      <point x="680" y="217"/>
      <point x="632" y="145"/>
      <point x="592" y="104" type="qcurve"/>
      <point x="585" y="97"/>
      <point x="565" y="80"/>
      <point x="552" y="71" type="qcurve"/>
      <point x="687" y="71" type="line"/>
      <point x="687" y="0" type="line"/>
      <point x="446" y="0" type="line"/>
      <point x="446" y="71" type="line"/>
      <point x="448" y="72"/>
      <point x="494" y="111"/>
      <point x="520" y="138" type="qcurve"/>
      <point x="556" y="178"/>
      <point x="588" y="224"/>
      <point x="588" y="247" type="qcurve"/>
      <point x="588" y="281"/>
      <point x="561" y="281" type="qcurve"/>
      <point x="547" y="281"/>
      <point x="517" y="270"/>
      <point x="505" y="264" type="qcurve"/>
      <point x="491" y="257"/>
      <point x="477" y="248" type="qcurve"/>
      <point x="445" y="311" type="line"/>
      <point x="474" y="327"/>
      <point x="534" y="350"/>
    </contour>
    <contour>
      <point x="192" y="586" type="line"/>
      <point x="192" y="240" type="line"/>
      <point x="108" y="240" type="line"/>
      <point x="108" y="496" type="line"/>
      <point x="76" y="465"/>
      <point x="40" y="449" type="qcurve"/>
      <point x="5" y="513" type="line"/>
      <point x="28" y="521"/>
      <point x="50" y="532" type="qcurve"/>
      <point x="69" y="541"/>
      <point x="112" y="569"/>
      <point x="131" y="586" type="qcurve"/>
    </contour>
  </outline>
</glyph>
<glyph name="threequarters" format="1">
  <advance width="788"/>
  <unicode hex="00BE"/>
  <outline>
    <contour>
      <point x="463" y="587" type="line"/>
      <point x="558" y="587" type="line"/>
      <point x="284" y="0" type="line"/>
      <point x="189" y="0" type="line"/>
    </contour>
    <contour>
      <point x="701" y="146" type="line"/>
      <point x="750" y="146" type="line"/>
      <point x="740" y="83" type="line"/>
      <point x="701" y="83" type="line"/>
      <point x="701" y="0" type="line"/>
      <point x="617" y="0" type="line"/>
      <point x="617" y="83" type="line"/>
      <point x="460" y="83" type="line"/>
      <point x="460" y="123" type="line"/>
      <point x="550" y="341" type="line"/>
      <point x="633" y="341" type="line"/>
      <point x="550" y="146" type="line"/>
      <point x="617" y="146" type="line"/>
      <point x="617" y="238" type="line"/>
      <point x="701" y="258" type="line"/>
    </contour>
    <contour>
      <point x="153" y="686" type="qcurve"/>
      <point x="204" y="686"/>
      <point x="258" y="640"/>
      <point x="258" y="603" type="qcurve"/>
      <point x="258" y="574"/>
      <point x="229" y="540"/>
      <point x="213" y="530" type="qcurve"/>
      <point x="242" y="518"/>
      <point x="273" y="474"/>
      <point x="273" y="446" type="qcurve"/>
      <point x="273" y="424"/>
      <point x="260" y="382"/>
      <point x="228" y="349"/>
      <point x="177" y="329"/>
      <point x="140" y="329" type="qcurve"/>
      <point x="114" y="329"/>
      <point x="53" y="348"/>
      <point x="25" y="363" type="qcurve"/>
      <point x="51" y="425" type="line"/>
      <point x="65" y="417"/>
      <point x="79" y="411" type="qcurve"/>
      <point x="91" y="406"/>
      <point x="121" y="398"/>
      <point x="137" y="398" type="qcurve"/>
      <point x="155" y="398"/>
      <point x="185" y="420"/>
      <point x="185" y="445" type="qcurve"/>
      <point x="185" y="463"/>
      <point x="167" y="488"/>
      <point x="149" y="488" type="qcurve"/>
      <point x="136" y="488"/>
      <point x="117" y="486"/>
      <point x="110" y="485" type="qcurve"/>
      <point x="102" y="483"/>
      <point x="95" y="482" type="qcurve"/>
      <point x="74" y="534" type="line"/>
      <point x="88" y="538"/>
      <point x="121" y="545"/>
      <point x="149" y="557"/>
      <point x="168" y="575"/>
      <point x="168" y="591" type="qcurve"/>
      <point x="168" y="602"/>
      <point x="155" y="617"/>
      <point x="144" y="617" type="qcurve"/>
      <point x="130" y="617"/>
      <point x="94" y="606"/>
      <point x="63" y="592" type="qcurve"/>
      <point x="33" y="656" type="line"/>
      <point x="64" y="670"/>
      <point x="119" y="686"/>
    </contour>
  </outline>
</glyph>
<glyph name="questiondown" format="1">
  <advance width="434"/>
  <unicode hex="00BF"/>
  <outline>
    <contour>
      <point x="215" y="-192" type="qcurve"/>
      <point x="127" y="-192"/>
      <point x="25" y="-122"/>
      <point x="25" y="-42" type="qcurve"/>
      <point x="25" y="-13"/>
      <point x="43" y="40"/>
      <point x="72" y="89"/>
      <point x="109" y="135"/>
      <point x="127" y="158" type="qcurve"/>
      <point x="155" y="193"/>
      <point x="200" y="261"/>
      <point x="211" y="298" type="qcurve"/>
      <point x="296" y="275" type="line"/>
      <point x="296" y="223"/>
      <point x="252" y="137"/>
      <point x="198" y="65"/>
      <point x="154" y="2"/>
      <point x="154" y="-28" type="qcurve"/>
      <point x="154" y="-64"/>
      <point x="196" y="-104"/>
      <point x="230" y="-104" type="qcurve"/>
      <point x="246" y="-104"/>
      <point x="273" y="-98"/>
      <point x="301" y="-88"/>
      <point x="333" y="-72"/>
      <point x="355" y="-62" type="qcurve"/>
      <point x="394" y="-142" type="line"/>
      <point x="353" y="-161"/>
      <point x="266" y="-192"/>
    </contour>
    <contour>
      <point x="247" y="354" type="qcurve"/>
      <point x="212" y="354"/>
      <point x="174" y="396"/>
      <point x="174" y="429" type="qcurve"/>
      <point x="174" y="461"/>
      <point x="212" y="506"/>
      <point x="250" y="506" type="qcurve"/>
      <point x="285" y="506"/>
      <point x="323" y="462"/>
      <point x="323" y="432" type="qcurve"/>
      <point x="323" y="399"/>
      <point x="285" y="354"/>
    </contour>
  </outline>
</glyph>
<glyph name="Agrave" format="1">
  <advance width="606"/>
  <unicode hex="00C0"/>
  <outline>
    <contour>
      <point x="255" y="677" type="line"/>
      <point x="351" y="677" type="line"/>
      <point x="611" y="0" type="line"/>
      <point x="483" y="0" type="line"/>
      <point x="421" y="177" type="line"/>
      <point x="178" y="177" type="line"/>
      <point x="115" y="0" type="line"/>
      <point x="-5" y="0" type="line"/>
    </contour>
    <contour>
      <point x="390" y="266" type="line"/>
      <point x="359" y="354"/>
      <point x="313" y="501"/>
      <point x="301" y="543" type="qcurve"/>
      <point x="287" y="498"/>
      <point x="241" y="352"/>
      <point x="210" y="266" type="qcurve"/>
    </contour>
    <contour>
      <point x="358" y="718" type="line"/>
      <point x="312" y="731"/>
      <point x="267" y="750" type="qcurve"/>
      <point x="229" y="766"/>
      <point x="142" y="815"/>
      <point x="107" y="847" type="qcurve"/>
      <point x="161" y="929" type="line"/>
      <point x="387" y="777" type="line"/>
    </contour>
  </outline>
</glyph>
<glyph name="Aacute" format="1">
  <advance width="606"/>
  <unicode hex="00C1"/>
  <outline>
    <contour>
      <point x="255" y="677" type="line"/>
      <point x="351" y="677" type="line"/>
      <point x="611" y="0" type="line"/>
      <point x="483" y="0" type="line"/>
      <point x="421" y="177" type="line"/>
      <point x="178" y="177" type="line"/>
      <point x="115" y="0" type="line"/>
      <point x="-5" y="0" type="line"/>
    </contour>
    <contour>
      <point x="390" y="266" type="line"/>
      <point x="359" y="354"/>
      <point x="313" y="501"/>
      <point x="301" y="543" type="qcurve"/>
      <point x="287" y="498"/>
      <point x="241" y="352"/>
      <point x="210" y="266" type="qcurve"/>
    </contour>
    <contour>
      <point x="212" y="777" type="line"/>
      <point x="438" y="929" type="line"/>
      <point x="492" y="847" type="line"/>
      <point x="457" y="815"/>
      <point x="370" y="766"/>
      <point x="332" y="750" type="qcurve"/>
      <point x="287" y="731"/>
      <point x="241" y="718" type="qcurve"/>
    </contour>
  </outline>
</glyph>
<glyph name="Acircumflex" format="1">
  <advance width="606"/>
  <unicode hex="00C2"/>
  <outline>
    <contour>
      <point x="255" y="677" type="line"/>
      <point x="351" y="677" type="line"/>
      <point x="611" y="0" type="line"/>
      <point x="483" y="0" type="line"/>
      <point x="421" y="177" type="line"/>
      <point x="178" y="177" type="line"/>
      <point x="115" y="0" type="line"/>
      <point x="-5" y="0" type="line"/>
    </contour>
    <contour>
      <point x="390" y="266" type="line"/>
      <point x="359" y="354"/>
      <point x="313" y="501"/>
      <point x="301" y="543" type="qcurve"/>
      <point x="287" y="498"/>
      <point x="241" y="352"/>
      <point x="210" y="266" type="qcurve"/>
    </contour>
    <contour>
      <point x="103" y="772" type="line"/>
      <point x="301" y="930" type="line"/>
      <point x="499" y="772" type="line"/>
      <point x="455" y="718" type="line"/>
      <point x="433" y="728"/>
      <point x="407" y="741" type="qcurve"/>
      <point x="385" y="752"/>
      <point x="330" y="786"/>
      <point x="301" y="808" type="qcurve"/>
      <point x="271" y="786"/>
      <point x="216" y="752"/>
      <point x="194" y="741" type="qcurve"/>
      <point x="168" y="728"/>
      <point x="147" y="718" type="qcurve"/>
    </contour>
  </outline>
</glyph>
<glyph name="Atilde" format="1">
  <advance width="606"/>
  <unicode hex="00C3"/>
  <outline>
    <contour>
      <point x="255" y="677" type="line"/>
      <point x="351" y="677" type="line"/>
      <point x="611" y="0" type="line"/>
      <point x="483" y="0" type="line"/>
      <point x="421" y="177" type="line"/>
      <point x="178" y="177" type="line"/>
      <point x="115" y="0" type="line"/>
      <point x="-5" y="0" type="line"/>
    </contour>
    <contour>
      <point x="390" y="266" type="line"/>
      <point x="359" y="354"/>
      <point x="313" y="501"/>
      <point x="301" y="543" type="qcurve"/>
      <point x="287" y="498"/>
      <point x="241" y="352"/>
      <point x="210" y="266" type="qcurve"/>
    </contour>
    <contour>
      <point x="137" y="835" type="line"/>
      <point x="148" y="841"/>
      <point x="160" y="846" type="qcurve"/>
      <point x="171" y="851"/>
      <point x="200" y="858"/>
      <point x="217" y="858" type="qcurve"/>
      <point x="254" y="858"/>
      <point x="333" y="838"/>
      <point x="370" y="838" type="qcurve"/>
      <point x="387" y="838"/>
      <point x="416" y="842"/>
      <point x="427" y="845" type="qcurve"/>
      <point x="439" y="848"/>
      <point x="450" y="852" type="qcurve"/>
      <point x="450" y="777" type="line"/>
      <point x="439" y="770"/>
      <point x="427" y="765" type="qcurve"/>
      <point x="416" y="760"/>
      <point x="387" y="754"/>
      <point x="370" y="754" type="qcurve"/>
      <point x="333" y="754"/>
      <point x="254" y="774"/>
      <point x="217" y="774" type="qcurve"/>
      <point x="200" y="774"/>
      <point x="171" y="769"/>
      <point x="160" y="767" type="qcurve"/>
      <point x="148" y="763"/>
      <point x="137" y="760" type="qcurve"/>
    </contour>
  </outline>
</glyph>
<glyph name="Adieresis" format="1">
  <advance width="606"/>
  <unicode hex="00C4"/>
  <outline>
    <contour>
      <point x="255" y="677" type="line"/>
      <point x="351" y="677" type="line"/>
      <point x="611" y="0" type="line"/>
      <point x="483" y="0" type="line"/>
      <point x="421" y="177" type="line"/>
      <point x="178" y="177" type="line"/>
      <point x="115" y="0" type="line"/>
      <point x="-5" y="0" type="line"/>
    </contour>
    <contour>
      <point x="390" y="266" type="line"/>
      <point x="359" y="354"/>
      <point x="313" y="501"/>
      <point x="301" y="543" type="qcurve"/>
      <point x="287" y="498"/>
      <point x="241" y="352"/>
      <point x="210" y="266" type="qcurve"/>
    </contour>
    <contour>
      <point x="204" y="875" type="qcurve"/>
      <point x="233" y="875"/>
      <point x="265" y="839"/>
      <point x="265" y="812" type="qcurve"/>
      <point x="265" y="784"/>
      <point x="233" y="747"/>
      <point x="201" y="747" type="qcurve"/>
      <point x="172" y="747"/>
      <point x="140" y="783"/>
      <point x="140" y="809" type="qcurve"/>
      <point x="140" y="838"/>
      <point x="172" y="875"/>
    </contour>
    <contour>
      <point x="404" y="875" type="qcurve"/>
      <point x="433" y="875"/>
      <point x="465" y="839"/>
      <point x="465" y="812" type="qcurve"/>
      <point x="465" y="784"/>
      <point x="433" y="747"/>
      <point x="401" y="747" type="qcurve"/>
      <point x="372" y="747"/>
      <point x="340" y="783"/>
      <point x="340" y="809" type="qcurve"/>
      <point x="340" y="838"/>
      <point x="372" y="875"/>
    </contour>
  </outline>
</glyph>
<glyph name="Aring" format="1">
  <advance width="606"/>
  <unicode hex="00C5"/>
  <outline>
    <contour>
      <point x="255" y="677" type="line"/>
      <point x="351" y="677" type="line"/>
      <point x="611" y="0" type="line"/>
      <point x="483" y="0" type="line"/>
      <point x="421" y="177" type="line"/>
      <point x="178" y="177" type="line"/>
      <point x="115" y="0" type="line"/>
      <point x="-5" y="0" type="line"/>
    </contour>
    <contour>
      <point x="390" y="266" type="line"/>
      <point x="359" y="354"/>
      <point x="313" y="501"/>
      <point x="301" y="543" type="qcurve"/>
      <point x="287" y="498"/>
      <point x="241" y="352"/>
      <point x="210" y="266" type="qcurve"/>
    </contour>
    <contour>
      <point x="203" y="727" type="qcurve"/>
      <point x="203" y="771"/>
      <point x="260" y="828"/>
      <point x="304" y="828" type="qcurve"/>
      <point x="347" y="828"/>
      <point x="402" y="771"/>
      <point x="402" y="727" type="qcurve"/>
      <point x="402" y="684"/>
      <point x="345" y="626"/>
      <point x="301" y="626" type="qcurve"/>
      <point x="258" y="626"/>
      <point x="203" y="684"/>
    </contour>
    <contour>
      <point x="259" y="728" type="qcurve"/>
      <point x="259" y="705"/>
      <point x="282" y="676"/>
      <point x="302" y="676" type="qcurve"/>
      <point x="323" y="676"/>
      <point x="346" y="703"/>
      <point x="346" y="727" type="qcurve"/>
      <point x="346" y="750"/>
      <point x="323" y="777"/>
      <point x="302" y="777" type="qcurve"/>
      <point x="259" y="777"/>
    </contour>
  </outline>
</glyph>
<glyph name="Ccedilla" format="1">
  <advance width="524"/>
  <unicode hex="00C7"/>
  <outline>
    <contour>
      <point x="442" y="540" type="line"/>
      <point x="418" y="566"/>
      <point x="365" y="593"/>
      <point x="330" y="593" type="qcurve"/>
      <point x="288" y="593"/>
      <point x="229" y="554"/>
      <point x="193" y="486"/>
      <point x="177" y="394"/>
      <point x="177" y="341" type="qcurve"/>
      <point x="177" y="288"/>
      <point x="192" y="196"/>
      <point x="229" y="127"/>
      <point x="292" y="87"/>
      <point x="340" y="87" type="qcurve"/>
      <point x="362" y="87"/>
      <point x="405" y="94"/>
      <point x="439" y="103"/>
      <point x="462" y="112"/>
      <point x="466" y="113" type="qcurve"/>
      <point x="494" y="28" type="line"/>
      <point x="475" y="20"/>
      <point x="453" y="14" type="qcurve"/>
      <point x="433" y="8"/>
      <point x="382" y="-3"/>
      <point x="350" y="-5" type="qcurve"/>
      <point x="341" y="-47" type="line"/>
      <point x="380" y="-50"/>
      <point x="431" y="-89"/>
      <point x="431" y="-126" type="qcurve"/>
      <point x="431" y="-153"/>
      <point x="410" y="-189"/>
      <point x="376" y="-210"/>
      <point x="334" y="-219"/>
      <point x="313" y="-219" type="qcurve"/>
      <point x="288" y="-219"/>
      <point x="243" y="-209"/>
      <point x="226" y="-201" type="qcurve"/>
      <point x="242" y="-147" type="line"/>
      <point x="253" y="-151"/>
      <point x="289" y="-160"/>
      <point x="306" y="-160" type="qcurve"/>
      <point x="333" y="-160"/>
      <point x="356" y="-144"/>
      <point x="356" y="-129" type="qcurve"/>
      <point x="356" y="-117"/>
      <point x="338" y="-101"/>
      <point x="311" y="-90"/>
      <point x="279" y="-85"/>
      <point x="264" y="-85" type="qcurve"/>
      <point x="284" y="-4" type="line"/>
      <point x="166" y="6"/>
      <point x="47" y="176"/>
      <point x="47" y="330" type="qcurve"/>
      <point x="47" y="409"/>
      <point x="83" y="540"/>
      <point x="156" y="634"/>
      <point x="267" y="686"/>
      <point x="342" y="686" type="qcurve"/>
      <point x="403" y="686"/>
      <point x="480" y="642"/>
      <point x="504" y="614" type="qcurve"/>
    </contour>
  </outline>
</glyph>
<glyph name="Egrave" format="1">
  <advance width="513"/>
  <unicode hex="00C8"/>
  <outline>
    <contour>
      <point x="70" y="677" type="line"/>
      <point x="473" y="677" type="line"/>
      <point x="473" y="586" type="line"/>
      <point x="190" y="586" type="line"/>
      <point x="190" y="398" type="line"/>
      <point x="423" y="398" type="line"/>
      <point x="408" y="307" type="line"/>
      <point x="190" y="307" type="line"/>
      <point x="190" y="91" type="line"/>
      <point x="488" y="91" type="line"/>
      <point x="488" y="0" type="line"/>
      <point x="70" y="0" type="line"/>
    </contour>
    <contour>
      <point x="341" y="718" type="line"/>
      <point x="295" y="731"/>
      <point x="250" y="750" type="qcurve"/>
      <point x="212" y="766"/>
      <point x="125" y="815"/>
      <point x="90" y="847" type="qcurve"/>
      <point x="144" y="929" type="line"/>
      <point x="370" y="777" type="line"/>
    </contour>
  </outline>
</glyph>
<glyph name="Eacute" format="1">
  <advance width="513"/>
  <unicode hex="00C9"/>
  <outline>
    <contour>
      <point x="70" y="677" type="line"/>
      <point x="473" y="677" type="line"/>
      <point x="473" y="586" type="line"/>
      <point x="190" y="586" type="line"/>
      <point x="190" y="398" type="line"/>
      <point x="423" y="398" type="line"/>
      <point x="408" y="307" type="line"/>
      <point x="190" y="307" type="line"/>
      <point x="190" y="91" type="line"/>
      <point x="488" y="91" type="line"/>
      <point x="488" y="0" type="line"/>
      <point x="70" y="0" type="line"/>
    </contour>
    <contour>
      <point x="195" y="777" type="line"/>
      <point x="421" y="929" type="line"/>
      <point x="475" y="847" type="line"/>
      <point x="440" y="815"/>
      <point x="353" y="766"/>
      <point x="315" y="750" type="qcurve"/>
      <point x="270" y="731"/>
      <point x="224" y="718" type="qcurve"/>
    </contour>
  </outline>
</glyph>
<glyph name="Ecircumflex" format="1">
  <advance width="513"/>
  <unicode hex="00CA"/>
  <outline>
    <contour>
      <point x="70" y="677" type="line"/>
      <point x="473" y="677" type="line"/>
      <point x="473" y="586" type="line"/>
      <point x="190" y="586" type="line"/>
      <point x="190" y="398" type="line"/>
      <point x="423" y="398" type="line"/>
      <point x="408" y="307" type="line"/>
      <point x="190" y="307" type="line"/>
      <point x="190" y="91" type="line"/>
      <point x="488" y="91" type="line"/>
      <point x="488" y="0" type="line"/>
      <point x="70" y="0" type="line"/>
    </contour>
    <contour>
      <point x="86" y="772" type="line"/>
      <point x="284" y="930" type="line"/>
      <point x="482" y="772" type="line"/>
      <point x="438" y="718" type="line"/>
      <point x="416" y="728"/>
      <point x="390" y="741" type="qcurve"/>
      <point x="368" y="752"/>
      <point x="313" y="786"/>
      <point x="284" y="808" type="qcurve"/>
      <point x="254" y="786"/>
      <point x="199" y="752"/>
      <point x="177" y="741" type="qcurve"/>
      <point x="151" y="728"/>
      <point x="130" y="718" type="qcurve"/>
    </contour>
  </outline>
</glyph>
<glyph name="Edieresis" format="1">
  <advance width="513"/>
  <unicode hex="00CB"/>
  <outline>
    <contour>
      <point x="70" y="677" type="line"/>
      <point x="473" y="677" type="line"/>
      <point x="473" y="586" type="line"/>
      <point x="190" y="586" type="line"/>
      <point x="190" y="398" type="line"/>
      <point x="423" y="398" type="line"/>
      <point x="408" y="307" type="line"/>
      <point x="190" y="307" type="line"/>
      <point x="190" y="91" type="line"/>
      <point x="488" y="91" type="line"/>
      <point x="488" y="0" type="line"/>
      <point x="70" y="0" type="line"/>
    </contour>
    <contour>
      <point x="158" y="875" type="qcurve"/>
      <point x="187" y="875"/>
      <point x="219" y="839"/>
      <point x="219" y="812" type="qcurve"/>
      <point x="219" y="784"/>
      <point x="187" y="747"/>
      <point x="155" y="747" type="qcurve"/>
      <point x="126" y="747"/>
      <point x="94" y="783"/>
      <point x="94" y="809" type="qcurve"/>
      <point x="94" y="838"/>
      <point x="126" y="875"/>
    </contour>
    <contour>
      <point x="358" y="875" type="qcurve"/>
      <point x="387" y="875"/>
      <point x="419" y="839"/>
      <point x="419" y="812" type="qcurve"/>
      <point x="419" y="784"/>
      <point x="387" y="747"/>
      <point x="355" y="747" type="qcurve"/>
      <point x="326" y="747"/>
      <point x="294" y="783"/>
      <point x="294" y="809" type="qcurve"/>
      <point x="294" y="838"/>
      <point x="326" y="875"/>
    </contour>
  </outline>
</glyph>
<glyph name="Igrave" format="1">
  <advance width="260"/>
  <unicode hex="00CC"/>
  <outline>
    <contour>
      <point x="70" y="677" type="line"/>
      <point x="190" y="677" type="line"/>
      <point x="190" y="0" type="line"/>
      <point x="70" y="0" type="line"/>
    </contour>
    <contour>
      <point x="188" y="718" type="line"/>
      <point x="142" y="731"/>
      <point x="97" y="750" type="qcurve"/>
      <point x="59" y="766"/>
      <point x="-28" y="815"/>
      <point x="-63" y="847" type="qcurve"/>
      <point x="-9" y="929" type="line"/>
      <point x="217" y="777" type="line"/>
    </contour>
  </outline>
</glyph>
<glyph name="Iacute" format="1">
  <advance width="260"/>
  <unicode hex="00CD"/>
  <outline>
    <contour>
      <point x="70" y="677" type="line"/>
      <point x="190" y="677" type="line"/>
      <point x="190" y="0" type="line"/>
      <point x="70" y="0" type="line"/>
    </contour>
    <contour>
      <point x="42" y="777" type="line"/>
      <point x="268" y="929" type="line"/>
      <point x="322" y="847" type="line"/>
      <point x="287" y="815"/>
      <point x="200" y="766"/>
      <point x="162" y="750" type="qcurve"/>
      <point x="117" y="731"/>
      <point x="71" y="718" type="qcurve"/>
    </contour>
  </outline>
</glyph>
<glyph name="Icircumflex" format="1">
  <advance width="260"/>
  <unicode hex="00CE"/>
  <outline>
    <contour>
      <point x="70" y="677" type="line"/>
      <point x="190" y="677" type="line"/>
      <point x="190" y="0" type="line"/>
      <point x="70" y="0" type="line"/>
    </contour>
    <contour>
      <point x="-67" y="772" type="line"/>
      <point x="131" y="930" type="line"/>
      <point x="329" y="772" type="line"/>
      <point x="285" y="718" type="line"/>
      <point x="263" y="728"/>
      <point x="237" y="741" type="qcurve"/>
      <point x="215" y="752"/>
      <point x="160" y="786"/>
      <point x="131" y="808" type="qcurve"/>
      <point x="101" y="786"/>
      <point x="46" y="752"/>
      <point x="24" y="741" type="qcurve"/>
      <point x="-2" y="728"/>
      <point x="-23" y="718" type="qcurve"/>
    </contour>
  </outline>
</glyph>
<glyph name="Idieresis" format="1">
  <advance width="260"/>
  <unicode hex="00CF"/>
  <outline>
    <contour>
      <point x="70" y="677" type="line"/>
      <point x="190" y="677" type="line"/>
      <point x="190" y="0" type="line"/>
      <point x="70" y="0" type="line"/>
    </contour>
    <contour>
      <point x="32" y="875" type="qcurve"/>
      <point x="61" y="875"/>
      <point x="93" y="839"/>
      <point x="93" y="812" type="qcurve"/>
      <point x="93" y="784"/>
      <point x="61" y="747"/>
      <point x="29" y="747" type="qcurve"/>
      <point x="0" y="747"/>
      <point x="-32" y="783"/>
      <point x="-32" y="809" type="qcurve"/>
      <point x="-32" y="838"/>
      <point x="0" y="875"/>
    </contour>
    <contour>
      <point x="232" y="875" type="qcurve"/>
      <point x="261" y="875"/>
      <point x="293" y="839"/>
      <point x="293" y="812" type="qcurve"/>
      <point x="293" y="784"/>
      <point x="261" y="747"/>
      <point x="229" y="747" type="qcurve"/>
      <point x="200" y="747"/>
      <point x="168" y="783"/>
      <point x="168" y="809" type="qcurve"/>
      <point x="168" y="838"/>
      <point x="200" y="875"/>
    </contour>
  </outline>
</glyph>
<glyph name="Ntilde" format="1">
  <advance width="660"/>
  <unicode hex="00D1"/>
  <outline>
    <contour>
      <point x="470" y="677" type="line"/>
      <point x="590" y="677" type="line"/>
      <point x="590" y="-1" type="line"/>
      <point x="490" y="-1" type="line"/>
      <point x="263" y="353" type="line"/>
      <point x="244" y="382"/>
      <point x="199" y="455"/>
      <point x="179" y="486" type="qcurve"/>
      <point x="182" y="454"/>
      <point x="187" y="383"/>
      <point x="187" y="351" type="qcurve"/>
      <point x="190" y="0" type="line"/>
      <point x="70" y="0" type="line"/>
      <point x="70" y="679" type="line"/>
      <point x="164" y="679" type="line"/>
      <point x="398" y="329" type="line"/>
      <point x="418" y="300"/>
      <point x="460" y="234"/>
      <point x="479" y="205" type="qcurve"/>
      <point x="477" y="237"/>
      <point x="473" y="303"/>
      <point x="473" y="326" type="qcurve"/>
    </contour>
    <contour>
      <point x="173" y="843" type="line"/>
      <point x="184" y="849"/>
      <point x="196" y="854" type="qcurve"/>
      <point x="207" y="859"/>
      <point x="236" y="866"/>
      <point x="253" y="866" type="qcurve"/>
      <point x="290" y="866"/>
      <point x="369" y="846"/>
      <point x="406" y="846" type="qcurve"/>
      <point x="423" y="846"/>
      <point x="452" y="850"/>
      <point x="463" y="853" type="qcurve"/>
      <point x="475" y="856"/>
      <point x="486" y="860" type="qcurve"/>
      <point x="486" y="785" type="line"/>
      <point x="475" y="778"/>
      <point x="463" y="773" type="qcurve"/>
      <point x="452" y="768"/>
      <point x="423" y="762"/>
      <point x="406" y="762" type="qcurve"/>
      <point x="369" y="762"/>
      <point x="290" y="782"/>
      <point x="253" y="782" type="qcurve"/>
      <point x="236" y="782"/>
      <point x="207" y="777"/>
      <point x="196" y="775" type="qcurve"/>
      <point x="184" y="771"/>
      <point x="173" y="768" type="qcurve"/>
    </contour>
  </outline>
</glyph>
<glyph name="Ograve" format="1">
  <advance width="669"/>
  <unicode hex="00D2"/>
  <outline>
    <contour>
      <point x="341" y="686" type="qcurve"/>
      <point x="416" y="686"/>
      <point x="523" y="638"/>
      <point x="592" y="550"/>
      <point x="624" y="423"/>
      <point x="624" y="344" type="qcurve"/>
      <point x="624" y="266"/>
      <point x="589" y="137"/>
      <point x="516" y="45"/>
      <point x="404" y="-6"/>
      <point x="328" y="-6" type="qcurve"/>
      <point x="253" y="-6"/>
      <point x="146" y="39"/>
      <point x="77" y="126"/>
      <point x="45" y="250"/>
      <point x="45" y="330" type="qcurve"/>
      <point x="45" y="408"/>
      <point x="80" y="539"/>
      <point x="153" y="634"/>
      <point x="265" y="686"/>
    </contour>
    <contour>
      <point x="327" y="593" type="qcurve"/>
      <point x="284" y="593"/>
      <point x="226" y="554"/>
      <point x="190" y="487"/>
      <point x="175" y="395"/>
      <point x="175" y="341" type="qcurve"/>
      <point x="175" y="290"/>
      <point x="189" y="198"/>
      <point x="226" y="128"/>
      <point x="291" y="87"/>
      <point x="342" y="87" type="qcurve"/>
      <point x="385" y="87"/>
      <point x="443" y="124"/>
      <point x="479" y="190"/>
      <point x="494" y="281"/>
      <point x="494" y="334" type="qcurve"/>
      <point x="494" y="385"/>
      <point x="480" y="478"/>
      <point x="443" y="550"/>
      <point x="378" y="593"/>
    </contour>
    <contour>
      <point x="390" y="718" type="line"/>
      <point x="344" y="731"/>
      <point x="299" y="750" type="qcurve"/>
      <point x="261" y="766"/>
      <point x="174" y="815"/>
      <point x="139" y="847" type="qcurve"/>
      <point x="193" y="929" type="line"/>
      <point x="419" y="777" type="line"/>
    </contour>
  </outline>
</glyph>
<glyph name="Ocircumflex" format="1">
  <advance width="669"/>
  <unicode hex="00D4"/>
  <outline>
    <contour>
      <point x="341" y="686" type="qcurve"/>
      <point x="416" y="686"/>
      <point x="523" y="638"/>
      <point x="592" y="550"/>
      <point x="624" y="423"/>
      <point x="624" y="344" type="qcurve"/>
      <point x="624" y="266"/>
      <point x="589" y="137"/>
      <point x="516" y="45"/>
      <point x="404" y="-6"/>
      <point x="328" y="-6" type="qcurve"/>
      <point x="253" y="-6"/>
      <point x="146" y="39"/>
      <point x="77" y="126"/>
      <point x="45" y="250"/>
      <point x="45" y="330" type="qcurve"/>
      <point x="45" y="408"/>
      <point x="80" y="539"/>
      <point x="153" y="634"/>
      <point x="265" y="686"/>
    </contour>
    <contour>
      <point x="327" y="593" type="qcurve"/>
      <point x="284" y="593"/>
      <point x="226" y="554"/>
      <point x="190" y="487"/>
      <point x="175" y="395"/>
      <point x="175" y="341" type="qcurve"/>
      <point x="175" y="290"/>
      <point x="189" y="198"/>
      <point x="226" y="128"/>
      <point x="291" y="87"/>
      <point x="342" y="87" type="qcurve"/>
      <point x="385" y="87"/>
      <point x="443" y="124"/>
      <point x="479" y="190"/>
      <point x="494" y="281"/>
      <point x="494" y="334" type="qcurve"/>
      <point x="494" y="385"/>
      <point x="480" y="478"/>
      <point x="443" y="550"/>
      <point x="378" y="593"/>
    </contour>
    <contour>
      <point x="135" y="772" type="line"/>
      <point x="333" y="930" type="line"/>
      <point x="531" y="772" type="line"/>
      <point x="487" y="718" type="line"/>
      <point x="465" y="728"/>
      <point x="439" y="741" type="qcurve"/>
      <point x="417" y="752"/>
      <point x="362" y="786"/>
      <point x="333" y="808" type="qcurve"/>
      <point x="303" y="786"/>
      <point x="248" y="752"/>
      <point x="226" y="741" type="qcurve"/>
      <point x="200" y="728"/>
      <point x="179" y="718" type="qcurve"/>
    </contour>
  </outline>
</glyph>
<glyph name="Otilde" format="1">
  <advance width="669"/>
  <unicode hex="00D5"/>
  <outline>
    <contour>
      <point x="341" y="686" type="qcurve"/>
      <point x="416" y="686"/>
      <point x="523" y="638"/>
      <point x="592" y="550"/>
      <point x="624" y="423"/>
      <point x="624" y="344" type="qcurve"/>
      <point x="624" y="266"/>
      <point x="589" y="137"/>
      <point x="516" y="45"/>
      <point x="404" y="-6"/>
      <point x="328" y="-6" type="qcurve"/>
      <point x="253" y="-6"/>
      <point x="146" y="39"/>
      <point x="77" y="126"/>
      <point x="45" y="250"/>
      <point x="45" y="330" type="qcurve"/>
      <point x="45" y="408"/>
      <point x="80" y="539"/>
      <point x="153" y="634"/>
      <point x="265" y="686"/>
    </contour>
    <contour>
      <point x="327" y="593" type="qcurve"/>
      <point x="284" y="593"/>
      <point x="226" y="554"/>
      <point x="190" y="487"/>
      <point x="175" y="395"/>
      <point x="175" y="341" type="qcurve"/>
      <point x="175" y="290"/>
      <point x="189" y="198"/>
      <point x="226" y="128"/>
      <point x="291" y="87"/>
      <point x="342" y="87" type="qcurve"/>
      <point x="385" y="87"/>
      <point x="443" y="124"/>
      <point x="479" y="190"/>
      <point x="494" y="281"/>
      <point x="494" y="334" type="qcurve"/>
      <point x="494" y="385"/>
      <point x="480" y="478"/>
      <point x="443" y="550"/>
      <point x="378" y="593"/>
    </contour>
    <contour>
      <point x="169" y="835" type="line"/>
      <point x="180" y="841"/>
      <point x="192" y="846" type="qcurve"/>
      <point x="203" y="851"/>
      <point x="232" y="858"/>
      <point x="249" y="858" type="qcurve"/>
      <point x="286" y="858"/>
      <point x="365" y="838"/>
      <point x="402" y="838" type="qcurve"/>
      <point x="419" y="838"/>
      <point x="448" y="842"/>
      <point x="459" y="845" type="qcurve"/>
      <point x="471" y="848"/>
      <point x="482" y="852" type="qcurve"/>
      <point x="482" y="777" type="line"/>
      <point x="471" y="770"/>
      <point x="459" y="765" type="qcurve"/>
      <point x="448" y="760"/>
      <point x="419" y="754"/>
      <point x="402" y="754" type="qcurve"/>
      <point x="365" y="754"/>
      <point x="286" y="774"/>
      <point x="249" y="774" type="qcurve"/>
      <point x="232" y="774"/>
      <point x="203" y="769"/>
      <point x="192" y="767" type="qcurve"/>
      <point x="180" y="763"/>
      <point x="169" y="760" type="qcurve"/>
    </contour>
  </outline>
</glyph>
<glyph name="Odieresis" format="1">
  <advance width="669"/>
  <unicode hex="00D6"/>
  <outline>
    <contour>
      <point x="341" y="686" type="qcurve"/>
      <point x="416" y="686"/>
      <point x="523" y="638"/>
      <point x="592" y="550"/>
      <point x="624" y="423"/>
      <point x="624" y="344" type="qcurve"/>
      <point x="624" y="266"/>
      <point x="589" y="137"/>
      <point x="516" y="45"/>
      <point x="404" y="-6"/>
      <point x="328" y="-6" type="qcurve"/>
      <point x="253" y="-6"/>
      <point x="146" y="39"/>
      <point x="77" y="126"/>
      <point x="45" y="250"/>
      <point x="45" y="330" type="qcurve"/>
      <point x="45" y="408"/>
      <point x="80" y="539"/>
      <point x="153" y="634"/>
      <point x="265" y="686"/>
    </contour>
    <contour>
      <point x="327" y="593" type="qcurve"/>
      <point x="284" y="593"/>
      <point x="226" y="554"/>
      <point x="190" y="487"/>
      <point x="175" y="395"/>
      <point x="175" y="341" type="qcurve"/>
      <point x="175" y="290"/>
      <point x="189" y="198"/>
      <point x="226" y="128"/>
      <point x="291" y="87"/>
      <point x="342" y="87" type="qcurve"/>
      <point x="385" y="87"/>
      <point x="443" y="124"/>
      <point x="479" y="190"/>
      <point x="494" y="281"/>
      <point x="494" y="334" type="qcurve"/>
      <point x="494" y="385"/>
      <point x="480" y="478"/>
      <point x="443" y="550"/>
      <point x="378" y="593"/>
    </contour>
    <contour>
      <point x="236" y="875" type="qcurve"/>
      <point x="265" y="875"/>
      <point x="297" y="839"/>
      <point x="297" y="812" type="qcurve"/>
      <point x="297" y="784"/>
      <point x="265" y="747"/>
      <point x="233" y="747" type="qcurve"/>
      <point x="204" y="747"/>
      <point x="172" y="783"/>
      <point x="172" y="809" type="qcurve"/>
      <point x="172" y="838"/>
      <point x="204" y="875"/>
    </contour>
    <contour>
      <point x="436" y="875" type="qcurve"/>
      <point x="465" y="875"/>
      <point x="497" y="839"/>
      <point x="497" y="812" type="qcurve"/>
      <point x="497" y="784"/>
      <point x="465" y="747"/>
      <point x="433" y="747" type="qcurve"/>
      <point x="404" y="747"/>
      <point x="372" y="783"/>
      <point x="372" y="809" type="qcurve"/>
      <point x="372" y="838"/>
      <point x="404" y="875"/>
    </contour>
  </outline>
</glyph>
<glyph name="Oslash" format="1">
  <advance width="669"/>
  <unicode hex="00D8"/>
  <outline>
    <contour>
      <point x="341" y="686" type="qcurve"/>
      <point x="382" y="686"/>
      <point x="413" y="679" type="qcurve"/>
      <point x="439" y="742" type="line"/>
      <point x="539" y="702" type="line"/>
      <point x="513" y="637" type="line"/>
      <point x="571" y="595"/>
      <point x="624" y="446"/>
      <point x="624" y="344" type="qcurve"/>
      <point x="624" y="266"/>
      <point x="589" y="137"/>
      <point x="516" y="45"/>
      <point x="404" y="-6"/>
      <point x="328" y="-6" type="qcurve"/>
      <point x="288" y="-6"/>
      <point x="254" y="0" type="qcurve"/>
      <point x="229" y="-63" type="line"/>
      <point x="130" y="-23" type="line"/>
      <point x="155" y="40" type="line"/>
      <point x="97" y="81"/>
      <point x="45" y="227"/>
      <point x="45" y="330" type="qcurve"/>
      <point x="45" y="408"/>
      <point x="80" y="539"/>
      <point x="153" y="634"/>
      <point x="265" y="686"/>
    </contour>
    <contour>
      <point x="494" y="334" type="qcurve"/>
      <point x="494" y="387"/>
      <point x="482" y="481"/>
      <point x="464" y="516" type="qcurve"/>
      <point x="292" y="92" type="line"/>
      <point x="303" y="90"/>
      <point x="328" y="87"/>
      <point x="342" y="87" type="qcurve"/>
      <point x="385" y="87"/>
      <point x="443" y="124"/>
      <point x="479" y="190"/>
      <point x="494" y="281"/>
    </contour>
    <contour>
      <point x="327" y="593" type="qcurve"/>
      <point x="284" y="593"/>
      <point x="226" y="554"/>
      <point x="190" y="487"/>
      <point x="175" y="395"/>
      <point x="175" y="341" type="qcurve"/>
      <point x="175" y="288"/>
      <point x="187" y="197"/>
      <point x="204" y="162" type="qcurve"/>
      <point x="376" y="587" type="line"/>
      <point x="355" y="593"/>
    </contour>
  </outline>
</glyph>
<glyph name="Uacute" format="1">
  <advance width="636"/>
  <unicode hex="00DA"/>
  <outline>
    <contour>
      <point x="179" y="677" type="line"/>
      <point x="179" y="259" type="line"/>
      <point x="179" y="166"/>
      <point x="257" y="87"/>
      <point x="324" y="87" type="qcurve"/>
      <point x="391" y="87"/>
      <point x="456" y="178"/>
      <point x="456" y="259" type="qcurve"/>
      <point x="456" y="677" type="line"/>
      <point x="576" y="677" type="line"/>
      <point x="576" y="250" type="line"/>
      <point x="576" y="198"/>
      <point x="549" y="105"/>
      <point x="487" y="35"/>
      <point x="385" y="-6"/>
      <point x="311" y="-6" type="qcurve"/>
      <point x="240" y="-6"/>
      <point x="144" y="35"/>
      <point x="85" y="105"/>
      <point x="60" y="198"/>
      <point x="60" y="250" type="qcurve"/>
      <point x="60" y="677" type="line"/>
    </contour>
    <contour>
      <point x="230" y="777" type="line"/>
      <point x="456" y="929" type="line"/>
      <point x="510" y="847" type="line"/>
      <point x="475" y="815"/>
      <point x="388" y="766"/>
      <point x="350" y="750" type="qcurve"/>
      <point x="305" y="731"/>
      <point x="259" y="718" type="qcurve"/>
    </contour>
  </outline>
</glyph>
<glyph name="Ucircumflex" format="1">
  <advance width="636"/>
  <unicode hex="00DB"/>
  <outline>
    <contour>
      <point x="179" y="677" type="line"/>
      <point x="179" y="259" type="line"/>
      <point x="179" y="166"/>
      <point x="257" y="87"/>
      <point x="324" y="87" type="qcurve"/>
      <point x="391" y="87"/>
      <point x="456" y="178"/>
      <point x="456" y="259" type="qcurve"/>
      <point x="456" y="677" type="line"/>
      <point x="576" y="677" type="line"/>
      <point x="576" y="250" type="line"/>
      <point x="576" y="198"/>
      <point x="549" y="105"/>
      <point x="487" y="35"/>
      <point x="385" y="-6"/>
      <point x="311" y="-6" type="qcurve"/>
      <point x="240" y="-6"/>
      <point x="144" y="35"/>
      <point x="85" y="105"/>
      <point x="60" y="198"/>
      <point x="60" y="250" type="qcurve"/>
      <point x="60" y="677" type="line"/>
    </contour>
    <contour>
      <point x="121" y="772" type="line"/>
      <point x="319" y="930" type="line"/>
      <point x="517" y="772" type="line"/>
      <point x="473" y="718" type="line"/>
      <point x="451" y="728"/>
      <point x="425" y="741" type="qcurve"/>
      <point x="403" y="752"/>
      <point x="348" y="786"/>
      <point x="319" y="808" type="qcurve"/>
      <point x="289" y="786"/>
      <point x="234" y="752"/>
      <point x="212" y="741" type="qcurve"/>
      <point x="186" y="728"/>
      <point x="165" y="718" type="qcurve"/>
    </contour>
  </outline>
</glyph>
<glyph name="Udieresis" format="1">
  <advance width="636"/>
  <unicode hex="00DC"/>
  <outline>
    <contour>
      <point x="179" y="677" type="line"/>
      <point x="179" y="259" type="line"/>
      <point x="179" y="166"/>
      <point x="257" y="87"/>
      <point x="324" y="87" type="qcurve"/>
      <point x="391" y="87"/>
      <point x="456" y="178"/>
      <point x="456" y="259" type="qcurve"/>
      <point x="456" y="677" type="line"/>
      <point x="576" y="677" type="line"/>
      <point x="576" y="250" type="line"/>
      <point x="576" y="198"/>
      <point x="549" y="105"/>
      <point x="487" y="35"/>
      <point x="385" y="-6"/>
      <point x="311" y="-6" type="qcurve"/>
      <point x="240" y="-6"/>
      <point x="144" y="35"/>
      <point x="85" y="105"/>
      <point x="60" y="198"/>
      <point x="60" y="250" type="qcurve"/>
      <point x="60" y="677" type="line"/>
    </contour>
    <contour>
      <point x="219" y="875" type="qcurve"/>
      <point x="248" y="875"/>
      <point x="280" y="839"/>
      <point x="280" y="812" type="qcurve"/>
      <point x="280" y="784"/>
      <point x="248" y="747"/>
      <point x="216" y="747" type="qcurve"/>
      <point x="187" y="747"/>
      <point x="155" y="783"/>
      <point x="155" y="809" type="qcurve"/>
      <point x="155" y="838"/>
      <point x="187" y="875"/>
    </contour>
    <contour>
      <point x="419" y="875" type="qcurve"/>
      <point x="448" y="875"/>
      <point x="480" y="839"/>
      <point x="480" y="812" type="qcurve"/>
      <point x="480" y="784"/>
      <point x="448" y="747"/>
      <point x="416" y="747" type="qcurve"/>
      <point x="387" y="747"/>
      <point x="355" y="783"/>
      <point x="355" y="809" type="qcurve"/>
      <point x="355" y="838"/>
      <point x="387" y="875"/>
    </contour>
  </outline>
</glyph>
<glyph name="Yacute" format="1">
  <advance width="544"/>
  <unicode hex="00DD"/>
  <outline>
    <contour>
      <point x="210" y="259" type="line"/>
      <point x="0" y="677" type="line"/>
      <point x="130" y="677" type="line"/>
      <point x="272" y="372" type="line"/>
      <point x="416" y="677" type="line"/>
      <point x="544" y="677" type="line"/>
      <point x="330" y="254" type="line"/>
      <point x="330" y="0" type="line"/>
      <point x="210" y="0" type="line"/>
    </contour>
    <contour>
      <point x="186" y="777" type="line"/>
      <point x="412" y="929" type="line"/>
      <point x="466" y="847" type="line"/>
      <point x="431" y="815"/>
      <point x="344" y="766"/>
      <point x="306" y="750" type="qcurve"/>
      <point x="261" y="731"/>
      <point x="215" y="718" type="qcurve"/>
    </contour>
  </outline>
</glyph>
<glyph name="Thorn" format="1">
  <advance width="537"/>
  <unicode hex="00DE"/>
  <outline>
    <contour>
      <point x="70" y="677" type="line"/>
      <point x="190" y="677" type="line"/>
      <point x="190" y="555" type="line"/>
      <point x="213" y="556"/>
      <point x="255" y="556"/>
      <point x="271" y="556" type="qcurve"/>
      <point x="395" y="556"/>
      <point x="512" y="449"/>
      <point x="512" y="352" type="qcurve"/>
      <point x="512" y="257"/>
      <point x="385" y="142"/>
      <point x="259" y="142" type="qcurve"/>
      <point x="190" y="142" type="line"/>
      <point x="190" y="0" type="line"/>
      <point x="70" y="0" type="line"/>
    </contour>
    <contour>
      <point x="256" y="470" type="qcurve"/>
      <point x="235" y="470"/>
      <point x="202" y="470"/>
      <point x="190" y="469" type="qcurve"/>
      <point x="190" y="231" type="line"/>
      <point x="266" y="231" type="line"/>
      <point x="328" y="231"/>
      <point x="382" y="298"/>
      <point x="382" y="348" type="qcurve"/>
      <point x="382" y="371"/>
      <point x="370" y="415"/>
      <point x="341" y="449"/>
      <point x="292" y="470"/>
    </contour>
  </outline>
</glyph>
<glyph name="germandbls" format="1">
  <advance width="579"/>
  <unicode hex="00DF"/>
  <outline>
    <contour>
      <point x="210" y="25" type="line"/>
      <point x="210" y="-35"/>
      <point x="179" y="-116"/>
      <point x="129" y="-171"/>
      <point x="68" y="-208"/>
      <point x="38" y="-223" type="qcurve"/>
      <point x="-5" y="-154" type="line"/>
      <point x="32" y="-135"/>
      <point x="73" y="-89"/>
      <point x="92" y="-44"/>
      <point x="95" y="-2"/>
      <point x="95" y="14" type="qcurve"/>
      <point x="95" y="479" type="line"/>
      <point x="95" y="520"/>
      <point x="113" y="601"/>
      <point x="156" y="669"/>
      <point x="229" y="715"/>
      <point x="283" y="722" type="qcurve"/>
      <point x="341" y="729"/>
      <point x="426" y="711"/>
      <point x="481" y="671"/>
      <point x="507" y="615"/>
      <point x="507" y="585" type="qcurve"/>
      <point x="507" y="542"/>
      <point x="471" y="490"/>
      <point x="428" y="454"/>
      <point x="392" y="424"/>
      <point x="392" y="402" type="qcurve"/>
      <point x="392" y="379"/>
      <point x="415" y="347"/>
      <point x="450" y="319"/>
      <point x="491" y="289"/>
      <point x="526" y="249"/>
      <point x="549" y="193"/>
      <point x="549" y="152" type="qcurve"/>
      <point x="549" y="117"/>
      <point x="522" y="58"/>
      <point x="474" y="16"/>
      <point x="406" y="-7"/>
      <point x="364" y="-7" type="qcurve"/>
      <point x="340" y="-7"/>
      <point x="294" y="4"/>
      <point x="276" y="11" type="qcurve"/>
      <point x="255" y="19"/>
      <point x="237" y="30" type="qcurve"/>
      <point x="271" y="106" type="line"/>
      <point x="284" y="98"/>
      <point x="298" y="93" type="qcurve"/>
      <point x="310" y="88"/>
      <point x="337" y="80"/>
      <point x="349" y="80" type="qcurve"/>
      <point x="388" y="80"/>
      <point x="432" y="111"/>
      <point x="432" y="144" type="qcurve"/>
      <point x="432" y="167"/>
      <point x="410" y="199"/>
      <point x="378" y="226"/>
      <point x="340" y="253"/>
      <point x="307" y="290"/>
      <point x="284" y="343"/>
      <point x="284" y="382" type="qcurve"/>
      <point x="284" y="419"/>
      <point x="317" y="470"/>
      <point x="358" y="510"/>
      <point x="392" y="549"/>
      <point x="392" y="575" type="qcurve"/>
      <point x="392" y="593"/>
      <point x="376" y="618"/>
      <point x="350" y="632"/>
      <point x="317" y="637"/>
      <point x="300" y="636" type="qcurve"/>
      <point x="274" y="633"/>
      <point x="239" y="607"/>
      <point x="218" y="567"/>
      <point x="210" y="515"/>
      <point x="210" y="486" type="qcurve"/>
    </contour>
  </outline>
</glyph>
<glyph name="agrave" format="1">
  <advance width="536"/>
  <unicode hex="00E0"/>
  <outline>
    <contour>
      <point x="467" y="241" type="line"/>
      <point x="467" y="181"/>
      <point x="482" y="100"/>
      <point x="491" y="75" type="qcurve"/>
      <point x="502" y="45"/>
      <point x="516" y="28" type="qcurve"/>
      <point x="425" y="-8" type="line"/>
      <point x="413" y="5"/>
      <point x="402" y="23" type="qcurve"/>
      <point x="393" y="38"/>
      <point x="376" y="84"/>
      <point x="374" y="114" type="qcurve"/>
      <point x="357" y="54"/>
      <point x="283" y="-6"/>
      <point x="219" y="-6" type="qcurve"/>
      <point x="172" y="-6"/>
      <point x="103" y="29"/>
      <point x="57" y="94"/>
      <point x="35" y="186"/>
      <point x="35" y="242" type="qcurve"/>
      <point x="35" y="299"/>
      <point x="70" y="396"/>
      <point x="133" y="466"/>
      <point x="221" y="506"/>
      <point x="274" y="506" type="qcurve"/>
      <point x="304" y="506"/>
      <point x="371" y="496"/>
      <point x="400" y="491" type="qcurve"/>
      <point x="433" y="485"/>
      <point x="467" y="477" type="qcurve"/>
    </contour>
    <contour>
      <point x="238" y="75" type="qcurve"/>
      <point x="262" y="75"/>
      <point x="304" y="109"/>
      <point x="335" y="164"/>
      <point x="352" y="234"/>
      <point x="352" y="271" type="qcurve"/>
      <point x="352" y="414" type="line"/>
      <point x="342" y="416"/>
      <point x="302" y="425"/>
      <point x="287" y="425" type="qcurve"/>
      <point x="250" y="425"/>
      <point x="201" y="399"/>
      <point x="171" y="353"/>
      <point x="159" y="289"/>
      <point x="159" y="252" type="qcurve"/>
      <point x="159" y="217"/>
      <point x="163" y="154"/>
      <point x="180" y="104"/>
      <point x="211" y="75"/>
    </contour>
    <contour>
      <point x="328" y="539" type="line"/>
      <point x="294" y="561"/>
      <point x="259" y="587" type="qcurve"/>
      <point x="229" y="610"/>
      <point x="159" y="672"/>
      <point x="130" y="709" type="qcurve"/>
      <point x="207" y="781" type="line"/>
      <point x="377" y="591" type="line"/>
    </contour>
  </outline>
</glyph>
<glyph name="atilde" format="1">
  <advance width="536"/>
  <unicode hex="00E3"/>
  <outline>
    <contour>
      <point x="467" y="241" type="line"/>
      <point x="467" y="181"/>
      <point x="482" y="100"/>
      <point x="491" y="75" type="qcurve"/>
      <point x="502" y="45"/>
      <point x="516" y="28" type="qcurve"/>
      <point x="425" y="-8" type="line"/>
      <point x="413" y="5"/>
      <point x="402" y="23" type="qcurve"/>
      <point x="393" y="38"/>
      <point x="376" y="84"/>
      <point x="374" y="114" type="qcurve"/>
      <point x="357" y="54"/>
      <point x="283" y="-6"/>
      <point x="219" y="-6" type="qcurve"/>
      <point x="172" y="-6"/>
      <point x="103" y="29"/>
      <point x="57" y="94"/>
      <point x="35" y="186"/>
      <point x="35" y="242" type="qcurve"/>
      <point x="35" y="299"/>
      <point x="70" y="396"/>
      <point x="133" y="466"/>
      <point x="221" y="506"/>
      <point x="274" y="506" type="qcurve"/>
      <point x="304" y="506"/>
      <point x="371" y="496"/>
      <point x="400" y="491" type="qcurve"/>
      <point x="433" y="485"/>
      <point x="467" y="477" type="qcurve"/>
    </contour>
    <contour>
      <point x="238" y="75" type="qcurve"/>
      <point x="262" y="75"/>
      <point x="304" y="109"/>
      <point x="335" y="164"/>
      <point x="352" y="234"/>
      <point x="352" y="271" type="qcurve"/>
      <point x="352" y="414" type="line"/>
      <point x="342" y="416"/>
      <point x="302" y="425"/>
      <point x="287" y="425" type="qcurve"/>
      <point x="250" y="425"/>
      <point x="201" y="399"/>
      <point x="171" y="353"/>
      <point x="159" y="289"/>
      <point x="159" y="252" type="qcurve"/>
      <point x="159" y="217"/>
      <point x="163" y="154"/>
      <point x="180" y="104"/>
      <point x="211" y="75"/>
    </contour>
    <contour>
      <point x="106" y="664" type="line"/>
      <point x="117" y="670"/>
      <point x="129" y="675" type="qcurve"/>
      <point x="140" y="680"/>
      <point x="169" y="687"/>
      <point x="186" y="687" type="qcurve"/>
      <point x="223" y="687"/>
      <point x="302" y="667"/>
      <point x="339" y="667" type="qcurve"/>
      <point x="356" y="667"/>
      <point x="385" y="671"/>
      <point x="396" y="674" type="qcurve"/>
      <point x="408" y="677"/>
      <point x="419" y="681" type="qcurve"/>
      <point x="419" y="606" type="line"/>
      <point x="408" y="599"/>
      <point x="396" y="594" type="qcurve"/>
      <point x="385" y="589"/>
      <point x="356" y="583"/>
      <point x="339" y="583" type="qcurve"/>
      <point x="302" y="583"/>
      <point x="223" y="603"/>
      <point x="186" y="603" type="qcurve"/>
      <point x="169" y="603"/>
      <point x="140" y="598"/>
      <point x="129" y="596" type="qcurve"/>
      <point x="117" y="592"/>
      <point x="106" y="589" type="qcurve"/>
    </contour>
  </outline>
</glyph>
<glyph name="ae" format="1">
  <advance width="760"/>
  <unicode hex="00E6"/>
  <outline>
    <contour>
      <point x="274" y="506" type="qcurve"/>
      <point x="328" y="506"/>
      <point x="413" y="482"/>
      <point x="438" y="471" type="qcurve"/>
      <point x="495" y="510"/>
      <point x="573" y="510" type="qcurve"/>
      <point x="618" y="510"/>
      <point x="681" y="488"/>
      <point x="721" y="450"/>
      <point x="740" y="398"/>
      <point x="740" y="368" type="qcurve"/>
      <point x="740" y="332"/>
      <point x="700" y="267"/>
      <point x="626" y="218"/>
      <point x="520" y="189"/>
      <point x="454" y="188" type="qcurve"/>
      <point x="457" y="165"/>
      <point x="470" y="124"/>
      <point x="495" y="94"/>
      <point x="535" y="76"/>
      <point x="564" y="76" type="qcurve"/>
      <point x="586" y="76"/>
      <point x="636" y="86"/>
      <point x="657" y="93" type="qcurve"/>
      <point x="682" y="101"/>
      <point x="706" y="111" type="qcurve"/>
      <point x="736" y="39" type="line"/>
      <point x="710" y="26"/>
      <point x="680" y="16" type="qcurve"/>
      <point x="654" y="7"/>
      <point x="586" y="-7"/>
      <point x="548" y="-7" type="qcurve"/>
      <point x="479" y="-7"/>
      <point x="389" y="41"/>
      <point x="364" y="86" type="qcurve"/>
      <point x="345" y="40"/>
      <point x="275" y="-6"/>
      <point x="219" y="-6" type="qcurve"/>
      <point x="172" y="-6"/>
      <point x="103" y="29"/>
      <point x="57" y="94"/>
      <point x="35" y="186"/>
      <point x="35" y="242" type="qcurve"/>
      <point x="35" y="299"/>
      <point x="70" y="396"/>
      <point x="133" y="466"/>
      <point x="221" y="506"/>
    </contour>
    <contour>
      <point x="332" y="237" type="qcurve"/>
      <point x="332" y="288"/>
      <point x="353" y="370"/>
      <point x="373" y="402" type="qcurve"/>
      <point x="355" y="412"/>
      <point x="313" y="425"/>
      <point x="287" y="425" type="qcurve"/>
      <point x="250" y="425"/>
      <point x="201" y="399"/>
      <point x="171" y="353"/>
      <point x="159" y="289"/>
      <point x="159" y="252" type="qcurve"/>
      <point x="159" y="217"/>
      <point x="163" y="154"/>
      <point x="180" y="104"/>
      <point x="211" y="75"/>
      <point x="238" y="75" type="qcurve"/>
      <point x="272" y="75"/>
      <point x="323" y="127"/>
      <point x="337" y="169" type="qcurve"/>
      <point x="334" y="185"/>
      <point x="332" y="219"/>
    </contour>
    <contour>
      <point x="564" y="431" type="qcurve"/>
      <point x="531" y="431"/>
      <point x="488" y="401"/>
      <point x="463" y="352"/>
      <point x="452" y="291"/>
      <point x="451" y="261" type="qcurve"/>
      <point x="498" y="262"/>
      <point x="564" y="283"/>
      <point x="606" y="314"/>
      <point x="625" y="350"/>
      <point x="625" y="368" type="qcurve"/>
      <point x="625" y="397"/>
      <point x="591" y="431"/>
    </contour>
  </outline>
</glyph>
<glyph name="ccedilla" format="1">
  <advance width="410"/>
  <unicode hex="00E7"/>
  <outline>
    <contour>
      <point x="335" y="380" type="line"/>
      <point x="320" y="397"/>
      <point x="289" y="421"/>
      <point x="264" y="421" type="qcurve"/>
      <point x="249" y="421"/>
      <point x="212" y="412"/>
      <point x="180" y="377"/>
      <point x="159" y="310"/>
      <point x="159" y="252" type="qcurve"/>
      <point x="159" y="194"/>
      <point x="180" y="124"/>
      <point x="213" y="87"/>
      <point x="251" y="76"/>
      <point x="269" y="76" type="qcurve"/>
      <point x="283" y="76"/>
      <point x="316" y="82"/>
      <point x="331" y="86" type="qcurve"/>
      <point x="349" y="90"/>
      <point x="366" y="96" type="qcurve"/>
      <point x="394" y="23" type="line"/>
      <point x="377" y="14"/>
      <point x="355" y="8" type="qcurve"/>
      <point x="336" y="2"/>
      <point x="285" y="-7"/>
      <point x="253" y="-7" type="qcurve"/>
      <point x="195" y="-7"/>
      <point x="113" y="28"/>
      <point x="60" y="92"/>
      <point x="35" y="182"/>
      <point x="35" y="237" type="qcurve"/>
      <point x="35" y="303"/>
      <point x="70" y="405"/>
      <point x="132" y="474"/>
      <point x="216" y="510"/>
      <point x="264" y="510" type="qcurve"/>
      <point x="311" y="510"/>
      <point x="377" y="474"/>
      <point x="400" y="442" type="qcurve"/>
    </contour>
    <contour>
      <point x="286" y="3" type="line"/>
      <point x="275" y="-47" type="line"/>
      <point x="314" y="-50"/>
      <point x="365" y="-89"/>
      <point x="365" y="-126" type="qcurve"/>
      <point x="365" y="-153"/>
      <point x="344" y="-189"/>
      <point x="310" y="-210"/>
      <point x="268" y="-219"/>
      <point x="247" y="-219" type="qcurve"/>
      <point x="222" y="-219"/>
      <point x="177" y="-209"/>
      <point x="160" y="-201" type="qcurve"/>
      <point x="176" y="-147" type="line"/>
      <point x="187" y="-151"/>
      <point x="223" y="-160"/>
      <point x="240" y="-160" type="qcurve"/>
      <point x="267" y="-160"/>
      <point x="290" y="-144"/>
      <point x="290" y="-129" type="qcurve"/>
      <point x="290" y="-117"/>
      <point x="272" y="-101"/>
      <point x="245" y="-90"/>
      <point x="213" y="-85"/>
      <point x="198" y="-85" type="qcurve"/>
      <point x="220" y="3" type="line"/>
    </contour>
  </outline>
</glyph>
